<?xml version="1.0" encoding="utf-8" standalone="no"?>
<!DOCTYPE svg PUBLIC "-//W3C//DTD SVG 1.1//EN"
  "http://www.w3.org/Graphics/SVG/1.1/DTD/svg11.dtd">
<svg xmlns:xlink="http://www.w3.org/1999/xlink" width="538.62pt" height="291.1365pt" viewBox="0 0 538.62 291.1365" xmlns="http://www.w3.org/2000/svg" version="1.1">
 <metadata>
  <rdf:RDF xmlns:dc="http://purl.org/dc/elements/1.1/" xmlns:cc="http://creativecommons.org/ns#" xmlns:rdf="http://www.w3.org/1999/02/22-rdf-syntax-ns#">
   <cc:Work>
    <dc:type rdf:resource="http://purl.org/dc/dcmitype/StillImage"/>
    <dc:date>2026-06-06T03:06:28.576684</dc:date>
    <dc:format>image/svg+xml</dc:format>
    <dc:creator>
     <cc:Agent>
      <dc:title>Matplotlib v3.10.9, https://matplotlib.org/</dc:title>
     </cc:Agent>
    </dc:creator>
   </cc:Work>
  </rdf:RDF>
 </metadata>
 <defs>
  <style type="text/css">*{stroke-linejoin: round; stroke-linecap: butt}</style>
 </defs>
 <g id="figure_1">
  <g id="patch_1">
   <path d="M 0 291.1365 
L 538.62 291.1365 
L 538.62 0 
L 0 0 
z
" style="fill: #ffffff"/>
  </g>
  <g id="axes_1">
   <g id="patch_2">
    <path d="M 27.82 265.6365 
L 530.02 265.6365 
L 530.02 16.1565 
L 27.82 16.1565 
z
" style="fill: #ffffff"/>
   </g>
   <g id="matplotlib.axis_1">
    <g id="xtick_1">
     <g id="line2d_1">
      <path d="M 27.82 265.6365 
L 27.82 16.1565 
" clip-path="url(#p54a924e00f)" style="fill: none; stroke-dasharray: 2.96,1.28; stroke-dashoffset: 0; stroke: #b0b0b0; stroke-opacity: 0.3; stroke-width: 0.8"/>
     </g>
     <g id="line2d_2">
      <defs>
       <path id="m14d48f06c1" d="M 0 0 
L 0 -3 
" style="stroke: #000000; stroke-width: 0.5"/>
      </defs>
      <g>
       <use xlink:href="#m14d48f06c1" x="27.82" y="265.6365" style="stroke: #000000; stroke-width: 0.5"/>
      </g>
     </g>
     <g id="line2d_3">
      <defs>
       <path id="m02fce7fc0b" d="M 0 0 
L 0 3 
" style="stroke: #000000; stroke-width: 0.5"/>
      </defs>
      <g>
       <use xlink:href="#m02fce7fc0b" x="27.82" y="16.1565" style="stroke: #000000; stroke-width: 0.5"/>
      </g>
     </g>
     <g id="text_1">
      <!-- $\mathdefault{0.0}$ -->
      <g transform="translate(22.82 274.60025) scale(0.08 -0.08)">
       <defs>
        <path id="STIXGeneral-Regular-30" d="M 3046 2112 
Q 3046 1683 2963 1302 
Q 2880 922 2717 602 
Q 2554 282 2266 96 
Q 1978 -90 1600 -90 
Q 1210 -90 915 108 
Q 621 307 461 640 
Q 301 973 227 1350 
Q 154 1728 154 2150 
Q 154 2746 301 3222 
Q 448 3699 790 4012 
Q 1133 4326 1626 4326 
Q 2253 4326 2649 3712 
Q 3046 3098 3046 2112 
z
M 2432 2080 
Q 2432 3091 2217 3625 
Q 2003 4160 1587 4160 
Q 1190 4160 979 3622 
Q 768 3085 768 2106 
Q 768 1120 979 598 
Q 1190 77 1600 77 
Q 2003 77 2217 598 
Q 2432 1120 2432 2080 
z
" transform="scale(0.015625)"/>
        <path id="STIXGeneral-Regular-2e" d="M 1158 275 
Q 1158 134 1052 32 
Q 947 -70 800 -70 
Q 653 -70 550 32 
Q 448 134 448 281 
Q 448 429 553 534 
Q 659 640 806 640 
Q 947 640 1052 531 
Q 1158 422 1158 275 
z
" transform="scale(0.015625)"/>
       </defs>
       <use xlink:href="#STIXGeneral-Regular-30" transform="translate(0 0.40625)"/>
       <use xlink:href="#STIXGeneral-Regular-2e" transform="translate(49.999985 0.40625)"/>
       <use xlink:href="#STIXGeneral-Regular-30" transform="translate(74.999969 0.40625)"/>
      </g>
     </g>
    </g>
    <g id="xtick_2">
     <g id="line2d_4">
      <path d="M 90.595 265.6365 
L 90.595 16.1565 
" clip-path="url(#p54a924e00f)" style="fill: none; stroke-dasharray: 2.96,1.28; stroke-dashoffset: 0; stroke: #b0b0b0; stroke-opacity: 0.3; stroke-width: 0.8"/>
     </g>
     <g id="line2d_5">
      <g>
       <use xlink:href="#m14d48f06c1" x="90.595" y="265.6365" style="stroke: #000000; stroke-width: 0.5"/>
      </g>
     </g>
     <g id="line2d_6">
      <g>
       <use xlink:href="#m02fce7fc0b" x="90.595" y="16.1565" style="stroke: #000000; stroke-width: 0.5"/>
      </g>
     </g>
     <g id="text_2">
      <!-- $\mathdefault{0.5}$ -->
      <g transform="translate(85.595 274.60025) scale(0.08 -0.08)">
       <defs>
        <path id="STIXGeneral-Regular-35" d="M 2803 4358 
L 2573 3814 
Q 2534 3731 2400 3731 
L 1158 3731 
L 902 3187 
Q 1606 3053 1920 2896 
Q 2234 2739 2502 2368 
Q 2726 2061 2726 1555 
Q 2726 1094 2576 780 
Q 2426 467 2099 224 
Q 1664 -90 1011 -90 
Q 646 -90 422 19 
Q 198 128 198 307 
Q 198 550 486 550 
Q 717 550 960 352 
Q 1210 147 1414 147 
Q 1747 147 2012 480 
Q 2278 813 2278 1229 
Q 2278 1843 1850 2189 
Q 1293 2637 486 2637 
Q 410 2637 410 2688 
L 416 2720 
L 1114 4237 
L 2438 4237 
Q 2547 4237 2608 4269 
Q 2669 4301 2746 4403 
L 2803 4358 
z
" transform="scale(0.015625)"/>
       </defs>
       <use xlink:href="#STIXGeneral-Regular-30" transform="translate(0 0.203125)"/>
       <use xlink:href="#STIXGeneral-Regular-2e" transform="translate(49.999985 0.203125)"/>
       <use xlink:href="#STIXGeneral-Regular-35" transform="translate(74.999969 0.203125)"/>
      </g>
     </g>
    </g>
    <g id="xtick_3">
     <g id="line2d_7">
      <path d="M 153.37 265.6365 
L 153.37 16.1565 
" clip-path="url(#p54a924e00f)" style="fill: none; stroke-dasharray: 2.96,1.28; stroke-dashoffset: 0; stroke: #b0b0b0; stroke-opacity: 0.3; stroke-width: 0.8"/>
     </g>
     <g id="line2d_8">
      <g>
       <use xlink:href="#m14d48f06c1" x="153.37" y="265.6365" style="stroke: #000000; stroke-width: 0.5"/>
      </g>
     </g>
     <g id="line2d_9">
      <g>
       <use xlink:href="#m02fce7fc0b" x="153.37" y="16.1565" style="stroke: #000000; stroke-width: 0.5"/>
      </g>
     </g>
     <g id="text_3">
      <!-- $\mathdefault{1.0}$ -->
      <g transform="translate(148.37 274.60025) scale(0.08 -0.08)">
       <defs>
        <path id="STIXGeneral-Regular-31" d="M 2522 0 
L 755 0 
L 755 96 
Q 1107 115 1235 227 
Q 1363 339 1363 608 
L 1363 3482 
Q 1363 3795 1171 3795 
Q 1082 3795 883 3718 
L 710 3654 
L 710 3744 
L 1856 4326 
L 1914 4307 
L 1914 486 
Q 1914 275 2042 185 
Q 2170 96 2522 96 
L 2522 0 
z
" transform="scale(0.015625)"/>
       </defs>
       <use xlink:href="#STIXGeneral-Regular-31" transform="translate(0 0.40625)"/>
       <use xlink:href="#STIXGeneral-Regular-2e" transform="translate(49.999985 0.40625)"/>
       <use xlink:href="#STIXGeneral-Regular-30" transform="translate(74.999969 0.40625)"/>
      </g>
     </g>
    </g>
    <g id="xtick_4">
     <g id="line2d_10">
      <path d="M 216.145 265.6365 
L 216.145 16.1565 
" clip-path="url(#p54a924e00f)" style="fill: none; stroke-dasharray: 2.96,1.28; stroke-dashoffset: 0; stroke: #b0b0b0; stroke-opacity: 0.3; stroke-width: 0.8"/>
     </g>
     <g id="line2d_11">
      <g>
       <use xlink:href="#m14d48f06c1" x="216.145" y="265.6365" style="stroke: #000000; stroke-width: 0.5"/>
      </g>
     </g>
     <g id="line2d_12">
      <g>
       <use xlink:href="#m02fce7fc0b" x="216.145" y="16.1565" style="stroke: #000000; stroke-width: 0.5"/>
      </g>
     </g>
     <g id="text_4">
      <!-- $\mathdefault{1.5}$ -->
      <g transform="translate(211.145 274.60025) scale(0.08 -0.08)">
       <use xlink:href="#STIXGeneral-Regular-31" transform="translate(0 0.203125)"/>
       <use xlink:href="#STIXGeneral-Regular-2e" transform="translate(49.999985 0.203125)"/>
       <use xlink:href="#STIXGeneral-Regular-35" transform="translate(74.999969 0.203125)"/>
      </g>
     </g>
    </g>
    <g id="xtick_5">
     <g id="line2d_13">
      <path d="M 278.92 265.6365 
L 278.92 16.1565 
" clip-path="url(#p54a924e00f)" style="fill: none; stroke-dasharray: 2.96,1.28; stroke-dashoffset: 0; stroke: #b0b0b0; stroke-opacity: 0.3; stroke-width: 0.8"/>
     </g>
     <g id="line2d_14">
      <g>
       <use xlink:href="#m14d48f06c1" x="278.92" y="265.6365" style="stroke: #000000; stroke-width: 0.5"/>
      </g>
     </g>
     <g id="line2d_15">
      <g>
       <use xlink:href="#m02fce7fc0b" x="278.92" y="16.1565" style="stroke: #000000; stroke-width: 0.5"/>
      </g>
     </g>
     <g id="text_5">
      <!-- $\mathdefault{2.0}$ -->
      <g transform="translate(273.92 274.60025) scale(0.08 -0.08)">
       <defs>
        <path id="STIXGeneral-Regular-32" d="M 3034 877 
L 2688 0 
L 186 0 
L 186 77 
L 1325 1286 
Q 1773 1754 1965 2144 
Q 2157 2534 2157 2950 
Q 2157 3379 1920 3616 
Q 1683 3853 1267 3853 
Q 922 3853 720 3673 
Q 518 3494 326 3021 
L 192 3053 
Q 301 3648 630 3987 
Q 960 4326 1523 4326 
Q 2054 4326 2380 4006 
Q 2707 3686 2707 3200 
Q 2707 2477 1888 1613 
L 832 486 
L 2330 486 
Q 2541 486 2665 569 
Q 2790 653 2944 915 
L 3034 877 
z
" transform="scale(0.015625)"/>
       </defs>
       <use xlink:href="#STIXGeneral-Regular-32" transform="translate(0 0.40625)"/>
       <use xlink:href="#STIXGeneral-Regular-2e" transform="translate(49.999985 0.40625)"/>
       <use xlink:href="#STIXGeneral-Regular-30" transform="translate(74.999969 0.40625)"/>
      </g>
     </g>
    </g>
    <g id="xtick_6">
     <g id="line2d_16">
      <path d="M 341.695 265.6365 
L 341.695 16.1565 
" clip-path="url(#p54a924e00f)" style="fill: none; stroke-dasharray: 2.96,1.28; stroke-dashoffset: 0; stroke: #b0b0b0; stroke-opacity: 0.3; stroke-width: 0.8"/>
     </g>
     <g id="line2d_17">
      <g>
       <use xlink:href="#m14d48f06c1" x="341.695" y="265.6365" style="stroke: #000000; stroke-width: 0.5"/>
      </g>
     </g>
     <g id="line2d_18">
      <g>
       <use xlink:href="#m02fce7fc0b" x="341.695" y="16.1565" style="stroke: #000000; stroke-width: 0.5"/>
      </g>
     </g>
     <g id="text_6">
      <!-- $\mathdefault{2.5}$ -->
      <g transform="translate(336.695 274.60025) scale(0.08 -0.08)">
       <use xlink:href="#STIXGeneral-Regular-32" transform="translate(0 0.203125)"/>
       <use xlink:href="#STIXGeneral-Regular-2e" transform="translate(49.999985 0.203125)"/>
       <use xlink:href="#STIXGeneral-Regular-35" transform="translate(74.999969 0.203125)"/>
      </g>
     </g>
    </g>
    <g id="xtick_7">
     <g id="line2d_19">
      <path d="M 404.47 265.6365 
L 404.47 16.1565 
" clip-path="url(#p54a924e00f)" style="fill: none; stroke-dasharray: 2.96,1.28; stroke-dashoffset: 0; stroke: #b0b0b0; stroke-opacity: 0.3; stroke-width: 0.8"/>
     </g>
     <g id="line2d_20">
      <g>
       <use xlink:href="#m14d48f06c1" x="404.47" y="265.6365" style="stroke: #000000; stroke-width: 0.5"/>
      </g>
     </g>
     <g id="line2d_21">
      <g>
       <use xlink:href="#m02fce7fc0b" x="404.47" y="16.1565" style="stroke: #000000; stroke-width: 0.5"/>
      </g>
     </g>
     <g id="text_7">
      <!-- $\mathdefault{3.0}$ -->
      <g transform="translate(399.47 274.60025) scale(0.08 -0.08)">
       <defs>
        <path id="STIXGeneral-Regular-33" d="M 390 3264 
L 288 3290 
Q 435 3770 748 4048 
Q 1062 4326 1542 4326 
Q 1990 4326 2265 4083 
Q 2541 3840 2541 3450 
Q 2541 2925 1946 2566 
Q 2298 2413 2477 2227 
Q 2758 1914 2758 1402 
Q 2758 890 2464 506 
Q 2246 211 1840 60 
Q 1434 -90 979 -90 
Q 262 -90 262 275 
Q 262 378 339 442 
Q 416 506 525 506 
Q 685 506 915 339 
Q 1197 141 1466 141 
Q 1818 141 2058 425 
Q 2298 710 2298 1120 
Q 2298 1856 1632 2048 
Q 1434 2112 979 2112 
L 979 2202 
Q 1338 2323 1517 2432 
Q 2035 2726 2035 3290 
Q 2035 3610 1852 3776 
Q 1670 3942 1344 3942 
Q 768 3942 390 3264 
z
" transform="scale(0.015625)"/>
       </defs>
       <use xlink:href="#STIXGeneral-Regular-33" transform="translate(0 0.40625)"/>
       <use xlink:href="#STIXGeneral-Regular-2e" transform="translate(49.999985 0.40625)"/>
       <use xlink:href="#STIXGeneral-Regular-30" transform="translate(74.999969 0.40625)"/>
      </g>
     </g>
    </g>
    <g id="xtick_8">
     <g id="line2d_22">
      <path d="M 467.245 265.6365 
L 467.245 16.1565 
" clip-path="url(#p54a924e00f)" style="fill: none; stroke-dasharray: 2.96,1.28; stroke-dashoffset: 0; stroke: #b0b0b0; stroke-opacity: 0.3; stroke-width: 0.8"/>
     </g>
     <g id="line2d_23">
      <g>
       <use xlink:href="#m14d48f06c1" x="467.245" y="265.6365" style="stroke: #000000; stroke-width: 0.5"/>
      </g>
     </g>
     <g id="line2d_24">
      <g>
       <use xlink:href="#m02fce7fc0b" x="467.245" y="16.1565" style="stroke: #000000; stroke-width: 0.5"/>
      </g>
     </g>
     <g id="text_8">
      <!-- $\mathdefault{3.5}$ -->
      <g transform="translate(462.245 274.60025) scale(0.08 -0.08)">
       <use xlink:href="#STIXGeneral-Regular-33" transform="translate(0 0.203125)"/>
       <use xlink:href="#STIXGeneral-Regular-2e" transform="translate(49.999985 0.203125)"/>
       <use xlink:href="#STIXGeneral-Regular-35" transform="translate(74.999969 0.203125)"/>
      </g>
     </g>
    </g>
    <g id="xtick_9">
     <g id="line2d_25">
      <path d="M 530.02 265.6365 
L 530.02 16.1565 
" clip-path="url(#p54a924e00f)" style="fill: none; stroke-dasharray: 2.96,1.28; stroke-dashoffset: 0; stroke: #b0b0b0; stroke-opacity: 0.3; stroke-width: 0.8"/>
     </g>
     <g id="line2d_26">
      <g>
       <use xlink:href="#m14d48f06c1" x="530.02" y="265.6365" style="stroke: #000000; stroke-width: 0.5"/>
      </g>
     </g>
     <g id="line2d_27">
      <g>
       <use xlink:href="#m02fce7fc0b" x="530.02" y="16.1565" style="stroke: #000000; stroke-width: 0.5"/>
      </g>
     </g>
     <g id="text_9">
      <!-- $\mathdefault{4.0}$ -->
      <g transform="translate(525.02 274.60025) scale(0.08 -0.08)">
       <defs>
        <path id="STIXGeneral-Regular-34" d="M 3027 1069 
L 2368 1069 
L 2368 0 
L 1869 0 
L 1869 1069 
L 77 1069 
L 77 1478 
L 2086 4326 
L 2368 4326 
L 2368 1478 
L 3027 1478 
L 3027 1069 
z
M 1869 1478 
L 1869 3674 
L 333 1478 
L 1869 1478 
z
" transform="scale(0.015625)"/>
       </defs>
       <use xlink:href="#STIXGeneral-Regular-34" transform="translate(0 0.40625)"/>
       <use xlink:href="#STIXGeneral-Regular-2e" transform="translate(49.999985 0.40625)"/>
       <use xlink:href="#STIXGeneral-Regular-30" transform="translate(74.999969 0.40625)"/>
      </g>
     </g>
    </g>
    <g id="xtick_10">
     <g id="line2d_28">
      <defs>
       <path id="m4b7bab876f" d="M 0 0 
L 0 -1.5 
" style="stroke: #000000; stroke-width: 0.5"/>
      </defs>
      <g>
       <use xlink:href="#m4b7bab876f" x="40.375" y="265.6365" style="stroke: #000000; stroke-width: 0.5"/>
      </g>
     </g>
     <g id="line2d_29">
      <defs>
       <path id="m52fe47239e" d="M 0 0 
L 0 1.5 
" style="stroke: #000000; stroke-width: 0.5"/>
      </defs>
      <g>
       <use xlink:href="#m52fe47239e" x="40.375" y="16.1565" style="stroke: #000000; stroke-width: 0.5"/>
      </g>
     </g>
    </g>
    <g id="xtick_11">
     <g id="line2d_30">
      <g>
       <use xlink:href="#m4b7bab876f" x="52.93" y="265.6365" style="stroke: #000000; stroke-width: 0.5"/>
      </g>
     </g>
     <g id="line2d_31">
      <g>
       <use xlink:href="#m52fe47239e" x="52.93" y="16.1565" style="stroke: #000000; stroke-width: 0.5"/>
      </g>
     </g>
    </g>
    <g id="xtick_12">
     <g id="line2d_32">
      <g>
       <use xlink:href="#m4b7bab876f" x="65.485" y="265.6365" style="stroke: #000000; stroke-width: 0.5"/>
      </g>
     </g>
     <g id="line2d_33">
      <g>
       <use xlink:href="#m52fe47239e" x="65.485" y="16.1565" style="stroke: #000000; stroke-width: 0.5"/>
      </g>
     </g>
    </g>
    <g id="xtick_13">
     <g id="line2d_34">
      <g>
       <use xlink:href="#m4b7bab876f" x="78.04" y="265.6365" style="stroke: #000000; stroke-width: 0.5"/>
      </g>
     </g>
     <g id="line2d_35">
      <g>
       <use xlink:href="#m52fe47239e" x="78.04" y="16.1565" style="stroke: #000000; stroke-width: 0.5"/>
      </g>
     </g>
    </g>
    <g id="xtick_14">
     <g id="line2d_36">
      <g>
       <use xlink:href="#m4b7bab876f" x="103.15" y="265.6365" style="stroke: #000000; stroke-width: 0.5"/>
      </g>
     </g>
     <g id="line2d_37">
      <g>
       <use xlink:href="#m52fe47239e" x="103.15" y="16.1565" style="stroke: #000000; stroke-width: 0.5"/>
      </g>
     </g>
    </g>
    <g id="xtick_15">
     <g id="line2d_38">
      <g>
       <use xlink:href="#m4b7bab876f" x="115.705" y="265.6365" style="stroke: #000000; stroke-width: 0.5"/>
      </g>
     </g>
     <g id="line2d_39">
      <g>
       <use xlink:href="#m52fe47239e" x="115.705" y="16.1565" style="stroke: #000000; stroke-width: 0.5"/>
      </g>
     </g>
    </g>
    <g id="xtick_16">
     <g id="line2d_40">
      <g>
       <use xlink:href="#m4b7bab876f" x="128.26" y="265.6365" style="stroke: #000000; stroke-width: 0.5"/>
      </g>
     </g>
     <g id="line2d_41">
      <g>
       <use xlink:href="#m52fe47239e" x="128.26" y="16.1565" style="stroke: #000000; stroke-width: 0.5"/>
      </g>
     </g>
    </g>
    <g id="xtick_17">
     <g id="line2d_42">
      <g>
       <use xlink:href="#m4b7bab876f" x="140.815" y="265.6365" style="stroke: #000000; stroke-width: 0.5"/>
      </g>
     </g>
     <g id="line2d_43">
      <g>
       <use xlink:href="#m52fe47239e" x="140.815" y="16.1565" style="stroke: #000000; stroke-width: 0.5"/>
      </g>
     </g>
    </g>
    <g id="xtick_18">
     <g id="line2d_44">
      <g>
       <use xlink:href="#m4b7bab876f" x="165.925" y="265.6365" style="stroke: #000000; stroke-width: 0.5"/>
      </g>
     </g>
     <g id="line2d_45">
      <g>
       <use xlink:href="#m52fe47239e" x="165.925" y="16.1565" style="stroke: #000000; stroke-width: 0.5"/>
      </g>
     </g>
    </g>
    <g id="xtick_19">
     <g id="line2d_46">
      <g>
       <use xlink:href="#m4b7bab876f" x="178.48" y="265.6365" style="stroke: #000000; stroke-width: 0.5"/>
      </g>
     </g>
     <g id="line2d_47">
      <g>
       <use xlink:href="#m52fe47239e" x="178.48" y="16.1565" style="stroke: #000000; stroke-width: 0.5"/>
      </g>
     </g>
    </g>
    <g id="xtick_20">
     <g id="line2d_48">
      <g>
       <use xlink:href="#m4b7bab876f" x="191.035" y="265.6365" style="stroke: #000000; stroke-width: 0.5"/>
      </g>
     </g>
     <g id="line2d_49">
      <g>
       <use xlink:href="#m52fe47239e" x="191.035" y="16.1565" style="stroke: #000000; stroke-width: 0.5"/>
      </g>
     </g>
    </g>
    <g id="xtick_21">
     <g id="line2d_50">
      <g>
       <use xlink:href="#m4b7bab876f" x="203.59" y="265.6365" style="stroke: #000000; stroke-width: 0.5"/>
      </g>
     </g>
     <g id="line2d_51">
      <g>
       <use xlink:href="#m52fe47239e" x="203.59" y="16.1565" style="stroke: #000000; stroke-width: 0.5"/>
      </g>
     </g>
    </g>
    <g id="xtick_22">
     <g id="line2d_52">
      <g>
       <use xlink:href="#m4b7bab876f" x="228.7" y="265.6365" style="stroke: #000000; stroke-width: 0.5"/>
      </g>
     </g>
     <g id="line2d_53">
      <g>
       <use xlink:href="#m52fe47239e" x="228.7" y="16.1565" style="stroke: #000000; stroke-width: 0.5"/>
      </g>
     </g>
    </g>
    <g id="xtick_23">
     <g id="line2d_54">
      <g>
       <use xlink:href="#m4b7bab876f" x="241.255" y="265.6365" style="stroke: #000000; stroke-width: 0.5"/>
      </g>
     </g>
     <g id="line2d_55">
      <g>
       <use xlink:href="#m52fe47239e" x="241.255" y="16.1565" style="stroke: #000000; stroke-width: 0.5"/>
      </g>
     </g>
    </g>
    <g id="xtick_24">
     <g id="line2d_56">
      <g>
       <use xlink:href="#m4b7bab876f" x="253.81" y="265.6365" style="stroke: #000000; stroke-width: 0.5"/>
      </g>
     </g>
     <g id="line2d_57">
      <g>
       <use xlink:href="#m52fe47239e" x="253.81" y="16.1565" style="stroke: #000000; stroke-width: 0.5"/>
      </g>
     </g>
    </g>
    <g id="xtick_25">
     <g id="line2d_58">
      <g>
       <use xlink:href="#m4b7bab876f" x="266.365" y="265.6365" style="stroke: #000000; stroke-width: 0.5"/>
      </g>
     </g>
     <g id="line2d_59">
      <g>
       <use xlink:href="#m52fe47239e" x="266.365" y="16.1565" style="stroke: #000000; stroke-width: 0.5"/>
      </g>
     </g>
    </g>
    <g id="xtick_26">
     <g id="line2d_60">
      <g>
       <use xlink:href="#m4b7bab876f" x="291.475" y="265.6365" style="stroke: #000000; stroke-width: 0.5"/>
      </g>
     </g>
     <g id="line2d_61">
      <g>
       <use xlink:href="#m52fe47239e" x="291.475" y="16.1565" style="stroke: #000000; stroke-width: 0.5"/>
      </g>
     </g>
    </g>
    <g id="xtick_27">
     <g id="line2d_62">
      <g>
       <use xlink:href="#m4b7bab876f" x="304.03" y="265.6365" style="stroke: #000000; stroke-width: 0.5"/>
      </g>
     </g>
     <g id="line2d_63">
      <g>
       <use xlink:href="#m52fe47239e" x="304.03" y="16.1565" style="stroke: #000000; stroke-width: 0.5"/>
      </g>
     </g>
    </g>
    <g id="xtick_28">
     <g id="line2d_64">
      <g>
       <use xlink:href="#m4b7bab876f" x="316.585" y="265.6365" style="stroke: #000000; stroke-width: 0.5"/>
      </g>
     </g>
     <g id="line2d_65">
      <g>
       <use xlink:href="#m52fe47239e" x="316.585" y="16.1565" style="stroke: #000000; stroke-width: 0.5"/>
      </g>
     </g>
    </g>
    <g id="xtick_29">
     <g id="line2d_66">
      <g>
       <use xlink:href="#m4b7bab876f" x="329.14" y="265.6365" style="stroke: #000000; stroke-width: 0.5"/>
      </g>
     </g>
     <g id="line2d_67">
      <g>
       <use xlink:href="#m52fe47239e" x="329.14" y="16.1565" style="stroke: #000000; stroke-width: 0.5"/>
      </g>
     </g>
    </g>
    <g id="xtick_30">
     <g id="line2d_68">
      <g>
       <use xlink:href="#m4b7bab876f" x="354.25" y="265.6365" style="stroke: #000000; stroke-width: 0.5"/>
      </g>
     </g>
     <g id="line2d_69">
      <g>
       <use xlink:href="#m52fe47239e" x="354.25" y="16.1565" style="stroke: #000000; stroke-width: 0.5"/>
      </g>
     </g>
    </g>
    <g id="xtick_31">
     <g id="line2d_70">
      <g>
       <use xlink:href="#m4b7bab876f" x="366.805" y="265.6365" style="stroke: #000000; stroke-width: 0.5"/>
      </g>
     </g>
     <g id="line2d_71">
      <g>
       <use xlink:href="#m52fe47239e" x="366.805" y="16.1565" style="stroke: #000000; stroke-width: 0.5"/>
      </g>
     </g>
    </g>
    <g id="xtick_32">
     <g id="line2d_72">
      <g>
       <use xlink:href="#m4b7bab876f" x="379.36" y="265.6365" style="stroke: #000000; stroke-width: 0.5"/>
      </g>
     </g>
     <g id="line2d_73">
      <g>
       <use xlink:href="#m52fe47239e" x="379.36" y="16.1565" style="stroke: #000000; stroke-width: 0.5"/>
      </g>
     </g>
    </g>
    <g id="xtick_33">
     <g id="line2d_74">
      <g>
       <use xlink:href="#m4b7bab876f" x="391.915" y="265.6365" style="stroke: #000000; stroke-width: 0.5"/>
      </g>
     </g>
     <g id="line2d_75">
      <g>
       <use xlink:href="#m52fe47239e" x="391.915" y="16.1565" style="stroke: #000000; stroke-width: 0.5"/>
      </g>
     </g>
    </g>
    <g id="xtick_34">
     <g id="line2d_76">
      <g>
       <use xlink:href="#m4b7bab876f" x="417.025" y="265.6365" style="stroke: #000000; stroke-width: 0.5"/>
      </g>
     </g>
     <g id="line2d_77">
      <g>
       <use xlink:href="#m52fe47239e" x="417.025" y="16.1565" style="stroke: #000000; stroke-width: 0.5"/>
      </g>
     </g>
    </g>
    <g id="xtick_35">
     <g id="line2d_78">
      <g>
       <use xlink:href="#m4b7bab876f" x="429.58" y="265.6365" style="stroke: #000000; stroke-width: 0.5"/>
      </g>
     </g>
     <g id="line2d_79">
      <g>
       <use xlink:href="#m52fe47239e" x="429.58" y="16.1565" style="stroke: #000000; stroke-width: 0.5"/>
      </g>
     </g>
    </g>
    <g id="xtick_36">
     <g id="line2d_80">
      <g>
       <use xlink:href="#m4b7bab876f" x="442.135" y="265.6365" style="stroke: #000000; stroke-width: 0.5"/>
      </g>
     </g>
     <g id="line2d_81">
      <g>
       <use xlink:href="#m52fe47239e" x="442.135" y="16.1565" style="stroke: #000000; stroke-width: 0.5"/>
      </g>
     </g>
    </g>
    <g id="xtick_37">
     <g id="line2d_82">
      <g>
       <use xlink:href="#m4b7bab876f" x="454.69" y="265.6365" style="stroke: #000000; stroke-width: 0.5"/>
      </g>
     </g>
     <g id="line2d_83">
      <g>
       <use xlink:href="#m52fe47239e" x="454.69" y="16.1565" style="stroke: #000000; stroke-width: 0.5"/>
      </g>
     </g>
    </g>
    <g id="xtick_38">
     <g id="line2d_84">
      <g>
       <use xlink:href="#m4b7bab876f" x="479.8" y="265.6365" style="stroke: #000000; stroke-width: 0.5"/>
      </g>
     </g>
     <g id="line2d_85">
      <g>
       <use xlink:href="#m52fe47239e" x="479.8" y="16.1565" style="stroke: #000000; stroke-width: 0.5"/>
      </g>
     </g>
    </g>
    <g id="xtick_39">
     <g id="line2d_86">
      <g>
       <use xlink:href="#m4b7bab876f" x="492.355" y="265.6365" style="stroke: #000000; stroke-width: 0.5"/>
      </g>
     </g>
     <g id="line2d_87">
      <g>
       <use xlink:href="#m52fe47239e" x="492.355" y="16.1565" style="stroke: #000000; stroke-width: 0.5"/>
      </g>
     </g>
    </g>
    <g id="xtick_40">
     <g id="line2d_88">
      <g>
       <use xlink:href="#m4b7bab876f" x="504.91" y="265.6365" style="stroke: #000000; stroke-width: 0.5"/>
      </g>
     </g>
     <g id="line2d_89">
      <g>
       <use xlink:href="#m52fe47239e" x="504.91" y="16.1565" style="stroke: #000000; stroke-width: 0.5"/>
      </g>
     </g>
    </g>
    <g id="xtick_41">
     <g id="line2d_90">
      <g>
       <use xlink:href="#m4b7bab876f" x="517.465" y="265.6365" style="stroke: #000000; stroke-width: 0.5"/>
      </g>
     </g>
     <g id="line2d_91">
      <g>
       <use xlink:href="#m52fe47239e" x="517.465" y="16.1565" style="stroke: #000000; stroke-width: 0.5"/>
      </g>
     </g>
    </g>
    <g id="text_10">
     <!-- Time (ns) -->
     <g transform="translate(263.25625 285.80025) scale(0.08 -0.08)">
      <defs>
       <path id="STIXGeneral-Regular-54" d="M 3795 3149 
L 3642 3149 
Q 3539 3674 3353 3821 
Q 3168 3968 2656 3968 
L 2278 3968 
L 2278 710 
Q 2278 346 2387 243 
Q 2496 141 2893 122 
L 2893 0 
L 1024 0 
L 1024 122 
Q 1427 147 1526 256 
Q 1626 365 1626 787 
L 1626 3968 
L 1242 3968 
Q 723 3968 540 3817 
Q 358 3667 262 3149 
L 109 3149 
L 154 4237 
L 3750 4237 
L 3795 3149 
z
" transform="scale(0.015625)"/>
       <path id="STIXGeneral-Regular-69" d="M 1152 4045 
Q 1152 3904 1056 3811 
Q 960 3718 819 3718 
Q 685 3718 592 3811 
Q 499 3904 499 4045 
Q 499 4179 595 4275 
Q 691 4371 826 4371 
Q 966 4371 1059 4275 
Q 1152 4179 1152 4045 
z
M 1619 0 
L 102 0 
L 102 96 
Q 435 115 521 211 
Q 608 307 608 666 
L 608 2118 
Q 608 2342 563 2432 
Q 518 2522 397 2522 
Q 243 2522 128 2490 
L 128 2592 
L 1120 2944 
L 1146 2918 
L 1146 672 
Q 1146 314 1226 218 
Q 1306 122 1619 96 
L 1619 0 
z
" transform="scale(0.015625)"/>
       <path id="STIXGeneral-Regular-6d" d="M 4960 0 
L 3565 0 
L 3565 96 
Q 3834 122 3907 208 
Q 3981 294 3981 576 
L 3981 1894 
Q 3981 2278 3869 2444 
Q 3757 2611 3488 2611 
Q 3264 2611 3107 2521 
Q 2950 2432 2803 2221 
L 2803 608 
Q 2803 301 2896 201 
Q 2989 102 3264 96 
L 3264 0 
L 1830 0 
L 1830 96 
Q 2112 115 2189 188 
Q 2266 262 2266 550 
L 2266 1901 
Q 2266 2611 1850 2611 
Q 1670 2611 1468 2531 
Q 1267 2451 1171 2336 
Q 1088 2240 1088 2227 
L 1088 448 
Q 1088 243 1177 176 
Q 1267 109 1523 96 
L 1523 0 
L 102 0 
L 102 96 
Q 371 102 460 195 
Q 550 288 550 563 
L 550 2150 
Q 550 2387 499 2480 
Q 448 2573 326 2573 
Q 230 2573 122 2547 
L 122 2656 
Q 557 2778 1011 2944 
L 1062 2925 
L 1062 2451 
L 1075 2451 
Q 1363 2752 1584 2848 
Q 1805 2944 2054 2944 
Q 2560 2944 2733 2406 
Q 3232 2944 3776 2944 
Q 4518 2944 4518 1792 
L 4518 493 
Q 4518 282 4582 202 
Q 4646 122 4794 109 
L 4960 96 
L 4960 0 
z
" transform="scale(0.015625)"/>
       <path id="STIXGeneral-Regular-65" d="M 2611 1050 
L 2714 1005 
Q 2330 -64 1376 -64 
Q 813 -64 486 329 
Q 160 723 160 1389 
Q 160 2074 525 2509 
Q 890 2944 1485 2944 
Q 2061 2944 2374 2502 
Q 2560 2246 2592 1773 
L 621 1773 
Q 646 1370 700 1158 
Q 755 947 915 730 
Q 1184 378 1626 378 
Q 1939 378 2153 531 
Q 2368 685 2611 1050 
z
M 634 1978 
L 1939 1978 
Q 1882 2381 1750 2547 
Q 1619 2714 1312 2714 
Q 1043 2714 864 2525 
Q 685 2336 634 1978 
z
" transform="scale(0.015625)"/>
       <path id="STIXGeneral-Regular-20" transform="scale(0.015625)"/>
       <path id="STIXGeneral-Regular-28" d="M 1946 -1030 
L 1869 -1133 
Q 1126 -710 716 32 
Q 307 774 307 1613 
Q 307 3386 1888 4326 
L 1946 4224 
Q 1293 3667 1075 3126 
Q 858 2586 858 1632 
Q 858 685 1082 96 
Q 1306 -493 1946 -1030 
z
" transform="scale(0.015625)"/>
       <path id="STIXGeneral-Regular-6e" d="M 3104 0 
L 1773 0 
L 1779 96 
Q 2016 115 2096 233 
Q 2176 352 2176 672 
L 2176 1946 
Q 2176 2592 1709 2592 
Q 1549 2592 1408 2515 
Q 1267 2438 1050 2227 
L 1050 461 
Q 1050 269 1136 192 
Q 1222 115 1466 96 
L 1466 0 
L 115 0 
L 115 96 
Q 358 115 435 214 
Q 512 314 512 602 
L 512 2157 
Q 512 2394 467 2483 
Q 422 2573 288 2573 
Q 160 2573 102 2547 
L 102 2656 
Q 550 2784 979 2944 
L 1030 2925 
L 1030 2426 
L 1037 2426 
Q 1491 2944 1958 2944 
Q 2323 2944 2518 2688 
Q 2714 2432 2714 1958 
L 2714 544 
Q 2714 288 2790 205 
Q 2867 122 3104 96 
L 3104 0 
z
" transform="scale(0.015625)"/>
       <path id="STIXGeneral-Regular-73" d="M 998 1926 
L 1664 1523 
Q 1984 1331 2105 1164 
Q 2227 998 2227 736 
Q 2227 416 1961 176 
Q 1696 -64 1331 -64 
Q 1030 -64 864 -6 
Q 691 51 570 51 
Q 461 51 416 -26 
L 333 -26 
L 333 979 
L 435 979 
Q 538 512 730 294 
Q 922 77 1248 77 
Q 1485 77 1632 211 
Q 1779 346 1779 550 
Q 1779 845 1440 1030 
L 1094 1222 
Q 326 1651 326 2150 
Q 326 2522 566 2730 
Q 806 2938 1210 2938 
Q 1491 2938 1638 2867 
Q 1754 2816 1818 2816 
Q 1862 2816 1920 2880 
L 1990 2880 
L 2022 2010 
L 1926 2010 
Q 1818 2445 1654 2621 
Q 1491 2797 1203 2797 
Q 986 2797 854 2688 
Q 723 2579 723 2362 
Q 723 2253 796 2128 
Q 870 2003 998 1926 
z
" transform="scale(0.015625)"/>
       <path id="STIXGeneral-Regular-29" d="M 186 4224 
L 262 4326 
Q 992 3891 1408 3148 
Q 1824 2406 1824 1581 
Q 1824 -166 243 -1133 
L 186 -1030 
Q 845 -486 1059 54 
Q 1274 595 1274 1562 
Q 1274 2534 1059 3120 
Q 845 3706 186 4224 
z
" transform="scale(0.015625)"/>
      </defs>
      <use xlink:href="#STIXGeneral-Regular-54"/>
      <use xlink:href="#STIXGeneral-Regular-69" transform="translate(61.099991 0)"/>
      <use xlink:href="#STIXGeneral-Regular-6d" transform="translate(88.899979 0)"/>
      <use xlink:href="#STIXGeneral-Regular-65" transform="translate(166.699966 0)"/>
      <use xlink:href="#STIXGeneral-Regular-20" transform="translate(211.09996 0)"/>
      <use xlink:href="#STIXGeneral-Regular-28" transform="translate(236.099945 0)"/>
      <use xlink:href="#STIXGeneral-Regular-6e" transform="translate(269.399933 0)"/>
      <use xlink:href="#STIXGeneral-Regular-73" transform="translate(319.399918 0)"/>
      <use xlink:href="#STIXGeneral-Regular-29" transform="translate(358.299911 0)"/>
     </g>
    </g>
   </g>
   <g id="matplotlib.axis_2">
    <g id="ytick_1">
     <g id="line2d_92">
      <path d="M 27.82 252.159053 
L 530.02 252.159053 
" clip-path="url(#p54a924e00f)" style="fill: none; stroke-dasharray: 2.96,1.28; stroke-dashoffset: 0; stroke: #b0b0b0; stroke-opacity: 0.3; stroke-width: 0.8"/>
     </g>
     <g id="line2d_93">
      <defs>
       <path id="m8ecce559b7" d="M 0 0 
L 3 0 
" style="stroke: #000000; stroke-width: 0.5"/>
      </defs>
      <g>
       <use xlink:href="#m8ecce559b7" x="27.82" y="252.159053" style="stroke: #000000; stroke-width: 0.5"/>
      </g>
     </g>
     <g id="line2d_94">
      <defs>
       <path id="mee9fe64716" d="M 0 0 
L -3 0 
" style="stroke: #000000; stroke-width: 0.5"/>
      </defs>
      <g>
       <use xlink:href="#mee9fe64716" x="530.02" y="252.159053" style="stroke: #000000; stroke-width: 0.5"/>
      </g>
     </g>
     <g id="text_11">
      <!-- $\mathdefault{−4}$ -->
      <g transform="translate(14.8 254.890928) scale(0.08 -0.08)">
       <defs>
        <path id="STIXGeneral-Regular-2212" d="M 3974 1408 
L 410 1408 
L 410 1830 
L 3974 1830 
L 3974 1408 
z
" transform="scale(0.015625)"/>
       </defs>
       <use xlink:href="#STIXGeneral-Regular-2212" transform="translate(0 0.40625)"/>
       <use xlink:href="#STIXGeneral-Regular-34" transform="translate(68.499985 0.40625)"/>
      </g>
     </g>
    </g>
    <g id="ytick_2">
     <g id="line2d_95">
      <path d="M 27.82 219.79389 
L 530.02 219.79389 
" clip-path="url(#p54a924e00f)" style="fill: none; stroke-dasharray: 2.96,1.28; stroke-dashoffset: 0; stroke: #b0b0b0; stroke-opacity: 0.3; stroke-width: 0.8"/>
     </g>
     <g id="line2d_96">
      <g>
       <use xlink:href="#m8ecce559b7" x="27.82" y="219.79389" style="stroke: #000000; stroke-width: 0.5"/>
      </g>
     </g>
     <g id="line2d_97">
      <g>
       <use xlink:href="#mee9fe64716" x="530.02" y="219.79389" style="stroke: #000000; stroke-width: 0.5"/>
      </g>
     </g>
     <g id="text_12">
      <!-- $\mathdefault{−3}$ -->
      <g transform="translate(14.8 222.525765) scale(0.08 -0.08)">
       <use xlink:href="#STIXGeneral-Regular-2212" transform="translate(0 0.40625)"/>
       <use xlink:href="#STIXGeneral-Regular-33" transform="translate(68.499985 0.40625)"/>
      </g>
     </g>
    </g>
    <g id="ytick_3">
     <g id="line2d_98">
      <path d="M 27.82 187.428726 
L 530.02 187.428726 
" clip-path="url(#p54a924e00f)" style="fill: none; stroke-dasharray: 2.96,1.28; stroke-dashoffset: 0; stroke: #b0b0b0; stroke-opacity: 0.3; stroke-width: 0.8"/>
     </g>
     <g id="line2d_99">
      <g>
       <use xlink:href="#m8ecce559b7" x="27.82" y="187.428726" style="stroke: #000000; stroke-width: 0.5"/>
      </g>
     </g>
     <g id="line2d_100">
      <g>
       <use xlink:href="#mee9fe64716" x="530.02" y="187.428726" style="stroke: #000000; stroke-width: 0.5"/>
      </g>
     </g>
     <g id="text_13">
      <!-- $\mathdefault{−2}$ -->
      <g transform="translate(14.8 190.160601) scale(0.08 -0.08)">
       <use xlink:href="#STIXGeneral-Regular-2212" transform="translate(0 0.40625)"/>
       <use xlink:href="#STIXGeneral-Regular-32" transform="translate(68.499985 0.40625)"/>
      </g>
     </g>
    </g>
    <g id="ytick_4">
     <g id="line2d_101">
      <path d="M 27.82 155.063562 
L 530.02 155.063562 
" clip-path="url(#p54a924e00f)" style="fill: none; stroke-dasharray: 2.96,1.28; stroke-dashoffset: 0; stroke: #b0b0b0; stroke-opacity: 0.3; stroke-width: 0.8"/>
     </g>
     <g id="line2d_102">
      <g>
       <use xlink:href="#m8ecce559b7" x="27.82" y="155.063562" style="stroke: #000000; stroke-width: 0.5"/>
      </g>
     </g>
     <g id="line2d_103">
      <g>
       <use xlink:href="#mee9fe64716" x="530.02" y="155.063562" style="stroke: #000000; stroke-width: 0.5"/>
      </g>
     </g>
     <g id="text_14">
      <!-- $\mathdefault{−1}$ -->
      <g transform="translate(14.8 157.795437) scale(0.08 -0.08)">
       <use xlink:href="#STIXGeneral-Regular-2212" transform="translate(0 0.40625)"/>
       <use xlink:href="#STIXGeneral-Regular-31" transform="translate(68.499985 0.40625)"/>
      </g>
     </g>
    </g>
    <g id="ytick_5">
     <g id="line2d_104">
      <path d="M 27.82 122.698399 
L 530.02 122.698399 
" clip-path="url(#p54a924e00f)" style="fill: none; stroke-dasharray: 2.96,1.28; stroke-dashoffset: 0; stroke: #b0b0b0; stroke-opacity: 0.3; stroke-width: 0.8"/>
     </g>
     <g id="line2d_105">
      <g>
       <use xlink:href="#m8ecce559b7" x="27.82" y="122.698399" style="stroke: #000000; stroke-width: 0.5"/>
      </g>
     </g>
     <g id="line2d_106">
      <g>
       <use xlink:href="#mee9fe64716" x="530.02" y="122.698399" style="stroke: #000000; stroke-width: 0.5"/>
      </g>
     </g>
     <g id="text_15">
      <!-- $\mathdefault{0}$ -->
      <g transform="translate(20.32 125.430274) scale(0.08 -0.08)">
       <use xlink:href="#STIXGeneral-Regular-30" transform="translate(0 0.40625)"/>
      </g>
     </g>
    </g>
    <g id="ytick_6">
     <g id="line2d_107">
      <path d="M 27.82 90.333235 
L 530.02 90.333235 
" clip-path="url(#p54a924e00f)" style="fill: none; stroke-dasharray: 2.96,1.28; stroke-dashoffset: 0; stroke: #b0b0b0; stroke-opacity: 0.3; stroke-width: 0.8"/>
     </g>
     <g id="line2d_108">
      <g>
       <use xlink:href="#m8ecce559b7" x="27.82" y="90.333235" style="stroke: #000000; stroke-width: 0.5"/>
      </g>
     </g>
     <g id="line2d_109">
      <g>
       <use xlink:href="#mee9fe64716" x="530.02" y="90.333235" style="stroke: #000000; stroke-width: 0.5"/>
      </g>
     </g>
     <g id="text_16">
      <!-- $\mathdefault{1}$ -->
      <g transform="translate(20.32 93.06511) scale(0.08 -0.08)">
       <use xlink:href="#STIXGeneral-Regular-31" transform="translate(0 0.40625)"/>
      </g>
     </g>
    </g>
    <g id="ytick_7">
     <g id="line2d_110">
      <path d="M 27.82 57.968071 
L 530.02 57.968071 
" clip-path="url(#p54a924e00f)" style="fill: none; stroke-dasharray: 2.96,1.28; stroke-dashoffset: 0; stroke: #b0b0b0; stroke-opacity: 0.3; stroke-width: 0.8"/>
     </g>
     <g id="line2d_111">
      <g>
       <use xlink:href="#m8ecce559b7" x="27.82" y="57.968071" style="stroke: #000000; stroke-width: 0.5"/>
      </g>
     </g>
     <g id="line2d_112">
      <g>
       <use xlink:href="#mee9fe64716" x="530.02" y="57.968071" style="stroke: #000000; stroke-width: 0.5"/>
      </g>
     </g>
     <g id="text_17">
      <!-- $\mathdefault{2}$ -->
      <g transform="translate(20.32 60.699946) scale(0.08 -0.08)">
       <use xlink:href="#STIXGeneral-Regular-32" transform="translate(0 0.40625)"/>
      </g>
     </g>
    </g>
    <g id="ytick_8">
     <g id="line2d_113">
      <path d="M 27.82 25.602907 
L 530.02 25.602907 
" clip-path="url(#p54a924e00f)" style="fill: none; stroke-dasharray: 2.96,1.28; stroke-dashoffset: 0; stroke: #b0b0b0; stroke-opacity: 0.3; stroke-width: 0.8"/>
     </g>
     <g id="line2d_114">
      <g>
       <use xlink:href="#m8ecce559b7" x="27.82" y="25.602907" style="stroke: #000000; stroke-width: 0.5"/>
      </g>
     </g>
     <g id="line2d_115">
      <g>
       <use xlink:href="#mee9fe64716" x="530.02" y="25.602907" style="stroke: #000000; stroke-width: 0.5"/>
      </g>
     </g>
     <g id="text_18">
      <!-- $\mathdefault{3}$ -->
      <g transform="translate(20.32 28.334782) scale(0.08 -0.08)">
       <use xlink:href="#STIXGeneral-Regular-33" transform="translate(0 0.40625)"/>
      </g>
     </g>
    </g>
    <g id="ytick_9">
     <g id="line2d_116">
      <defs>
       <path id="m2b505d43db" d="M 0 0 
L 1.5 0 
" style="stroke: #000000; stroke-width: 0.5"/>
      </defs>
      <g>
       <use xlink:href="#m2b505d43db" x="27.82" y="265.105119" style="stroke: #000000; stroke-width: 0.5"/>
      </g>
     </g>
     <g id="line2d_117">
      <defs>
       <path id="mb2fa2f5528" d="M 0 0 
L -1.5 0 
" style="stroke: #000000; stroke-width: 0.5"/>
      </defs>
      <g>
       <use xlink:href="#mb2fa2f5528" x="530.02" y="265.105119" style="stroke: #000000; stroke-width: 0.5"/>
      </g>
     </g>
    </g>
    <g id="ytick_10">
     <g id="line2d_118">
      <g>
       <use xlink:href="#m2b505d43db" x="27.82" y="258.632086" style="stroke: #000000; stroke-width: 0.5"/>
      </g>
     </g>
     <g id="line2d_119">
      <g>
       <use xlink:href="#mb2fa2f5528" x="530.02" y="258.632086" style="stroke: #000000; stroke-width: 0.5"/>
      </g>
     </g>
    </g>
    <g id="ytick_11">
     <g id="line2d_120">
      <g>
       <use xlink:href="#m2b505d43db" x="27.82" y="245.686021" style="stroke: #000000; stroke-width: 0.5"/>
      </g>
     </g>
     <g id="line2d_121">
      <g>
       <use xlink:href="#mb2fa2f5528" x="530.02" y="245.686021" style="stroke: #000000; stroke-width: 0.5"/>
      </g>
     </g>
    </g>
    <g id="ytick_12">
     <g id="line2d_122">
      <g>
       <use xlink:href="#m2b505d43db" x="27.82" y="239.212988" style="stroke: #000000; stroke-width: 0.5"/>
      </g>
     </g>
     <g id="line2d_123">
      <g>
       <use xlink:href="#mb2fa2f5528" x="530.02" y="239.212988" style="stroke: #000000; stroke-width: 0.5"/>
      </g>
     </g>
    </g>
    <g id="ytick_13">
     <g id="line2d_124">
      <g>
       <use xlink:href="#m2b505d43db" x="27.82" y="232.739955" style="stroke: #000000; stroke-width: 0.5"/>
      </g>
     </g>
     <g id="line2d_125">
      <g>
       <use xlink:href="#mb2fa2f5528" x="530.02" y="232.739955" style="stroke: #000000; stroke-width: 0.5"/>
      </g>
     </g>
    </g>
    <g id="ytick_14">
     <g id="line2d_126">
      <g>
       <use xlink:href="#m2b505d43db" x="27.82" y="226.266922" style="stroke: #000000; stroke-width: 0.5"/>
      </g>
     </g>
     <g id="line2d_127">
      <g>
       <use xlink:href="#mb2fa2f5528" x="530.02" y="226.266922" style="stroke: #000000; stroke-width: 0.5"/>
      </g>
     </g>
    </g>
    <g id="ytick_15">
     <g id="line2d_128">
      <g>
       <use xlink:href="#m2b505d43db" x="27.82" y="213.320857" style="stroke: #000000; stroke-width: 0.5"/>
      </g>
     </g>
     <g id="line2d_129">
      <g>
       <use xlink:href="#mb2fa2f5528" x="530.02" y="213.320857" style="stroke: #000000; stroke-width: 0.5"/>
      </g>
     </g>
    </g>
    <g id="ytick_16">
     <g id="line2d_130">
      <g>
       <use xlink:href="#m2b505d43db" x="27.82" y="206.847824" style="stroke: #000000; stroke-width: 0.5"/>
      </g>
     </g>
     <g id="line2d_131">
      <g>
       <use xlink:href="#mb2fa2f5528" x="530.02" y="206.847824" style="stroke: #000000; stroke-width: 0.5"/>
      </g>
     </g>
    </g>
    <g id="ytick_17">
     <g id="line2d_132">
      <g>
       <use xlink:href="#m2b505d43db" x="27.82" y="200.374791" style="stroke: #000000; stroke-width: 0.5"/>
      </g>
     </g>
     <g id="line2d_133">
      <g>
       <use xlink:href="#mb2fa2f5528" x="530.02" y="200.374791" style="stroke: #000000; stroke-width: 0.5"/>
      </g>
     </g>
    </g>
    <g id="ytick_18">
     <g id="line2d_134">
      <g>
       <use xlink:href="#m2b505d43db" x="27.82" y="193.901759" style="stroke: #000000; stroke-width: 0.5"/>
      </g>
     </g>
     <g id="line2d_135">
      <g>
       <use xlink:href="#mb2fa2f5528" x="530.02" y="193.901759" style="stroke: #000000; stroke-width: 0.5"/>
      </g>
     </g>
    </g>
    <g id="ytick_19">
     <g id="line2d_136">
      <g>
       <use xlink:href="#m2b505d43db" x="27.82" y="180.955693" style="stroke: #000000; stroke-width: 0.5"/>
      </g>
     </g>
     <g id="line2d_137">
      <g>
       <use xlink:href="#mb2fa2f5528" x="530.02" y="180.955693" style="stroke: #000000; stroke-width: 0.5"/>
      </g>
     </g>
    </g>
    <g id="ytick_20">
     <g id="line2d_138">
      <g>
       <use xlink:href="#m2b505d43db" x="27.82" y="174.48266" style="stroke: #000000; stroke-width: 0.5"/>
      </g>
     </g>
     <g id="line2d_139">
      <g>
       <use xlink:href="#mb2fa2f5528" x="530.02" y="174.48266" style="stroke: #000000; stroke-width: 0.5"/>
      </g>
     </g>
    </g>
    <g id="ytick_21">
     <g id="line2d_140">
      <g>
       <use xlink:href="#m2b505d43db" x="27.82" y="168.009628" style="stroke: #000000; stroke-width: 0.5"/>
      </g>
     </g>
     <g id="line2d_141">
      <g>
       <use xlink:href="#mb2fa2f5528" x="530.02" y="168.009628" style="stroke: #000000; stroke-width: 0.5"/>
      </g>
     </g>
    </g>
    <g id="ytick_22">
     <g id="line2d_142">
      <g>
       <use xlink:href="#m2b505d43db" x="27.82" y="161.536595" style="stroke: #000000; stroke-width: 0.5"/>
      </g>
     </g>
     <g id="line2d_143">
      <g>
       <use xlink:href="#mb2fa2f5528" x="530.02" y="161.536595" style="stroke: #000000; stroke-width: 0.5"/>
      </g>
     </g>
    </g>
    <g id="ytick_23">
     <g id="line2d_144">
      <g>
       <use xlink:href="#m2b505d43db" x="27.82" y="148.59053" style="stroke: #000000; stroke-width: 0.5"/>
      </g>
     </g>
     <g id="line2d_145">
      <g>
       <use xlink:href="#mb2fa2f5528" x="530.02" y="148.59053" style="stroke: #000000; stroke-width: 0.5"/>
      </g>
     </g>
    </g>
    <g id="ytick_24">
     <g id="line2d_146">
      <g>
       <use xlink:href="#m2b505d43db" x="27.82" y="142.117497" style="stroke: #000000; stroke-width: 0.5"/>
      </g>
     </g>
     <g id="line2d_147">
      <g>
       <use xlink:href="#mb2fa2f5528" x="530.02" y="142.117497" style="stroke: #000000; stroke-width: 0.5"/>
      </g>
     </g>
    </g>
    <g id="ytick_25">
     <g id="line2d_148">
      <g>
       <use xlink:href="#m2b505d43db" x="27.82" y="135.644464" style="stroke: #000000; stroke-width: 0.5"/>
      </g>
     </g>
     <g id="line2d_149">
      <g>
       <use xlink:href="#mb2fa2f5528" x="530.02" y="135.644464" style="stroke: #000000; stroke-width: 0.5"/>
      </g>
     </g>
    </g>
    <g id="ytick_26">
     <g id="line2d_150">
      <g>
       <use xlink:href="#m2b505d43db" x="27.82" y="129.171431" style="stroke: #000000; stroke-width: 0.5"/>
      </g>
     </g>
     <g id="line2d_151">
      <g>
       <use xlink:href="#mb2fa2f5528" x="530.02" y="129.171431" style="stroke: #000000; stroke-width: 0.5"/>
      </g>
     </g>
    </g>
    <g id="ytick_27">
     <g id="line2d_152">
      <g>
       <use xlink:href="#m2b505d43db" x="27.82" y="116.225366" style="stroke: #000000; stroke-width: 0.5"/>
      </g>
     </g>
     <g id="line2d_153">
      <g>
       <use xlink:href="#mb2fa2f5528" x="530.02" y="116.225366" style="stroke: #000000; stroke-width: 0.5"/>
      </g>
     </g>
    </g>
    <g id="ytick_28">
     <g id="line2d_154">
      <g>
       <use xlink:href="#m2b505d43db" x="27.82" y="109.752333" style="stroke: #000000; stroke-width: 0.5"/>
      </g>
     </g>
     <g id="line2d_155">
      <g>
       <use xlink:href="#mb2fa2f5528" x="530.02" y="109.752333" style="stroke: #000000; stroke-width: 0.5"/>
      </g>
     </g>
    </g>
    <g id="ytick_29">
     <g id="line2d_156">
      <g>
       <use xlink:href="#m2b505d43db" x="27.82" y="103.2793" style="stroke: #000000; stroke-width: 0.5"/>
      </g>
     </g>
     <g id="line2d_157">
      <g>
       <use xlink:href="#mb2fa2f5528" x="530.02" y="103.2793" style="stroke: #000000; stroke-width: 0.5"/>
      </g>
     </g>
    </g>
    <g id="ytick_30">
     <g id="line2d_158">
      <g>
       <use xlink:href="#m2b505d43db" x="27.82" y="96.806268" style="stroke: #000000; stroke-width: 0.5"/>
      </g>
     </g>
     <g id="line2d_159">
      <g>
       <use xlink:href="#mb2fa2f5528" x="530.02" y="96.806268" style="stroke: #000000; stroke-width: 0.5"/>
      </g>
     </g>
    </g>
    <g id="ytick_31">
     <g id="line2d_160">
      <g>
       <use xlink:href="#m2b505d43db" x="27.82" y="83.860202" style="stroke: #000000; stroke-width: 0.5"/>
      </g>
     </g>
     <g id="line2d_161">
      <g>
       <use xlink:href="#mb2fa2f5528" x="530.02" y="83.860202" style="stroke: #000000; stroke-width: 0.5"/>
      </g>
     </g>
    </g>
    <g id="ytick_32">
     <g id="line2d_162">
      <g>
       <use xlink:href="#m2b505d43db" x="27.82" y="77.387169" style="stroke: #000000; stroke-width: 0.5"/>
      </g>
     </g>
     <g id="line2d_163">
      <g>
       <use xlink:href="#mb2fa2f5528" x="530.02" y="77.387169" style="stroke: #000000; stroke-width: 0.5"/>
      </g>
     </g>
    </g>
    <g id="ytick_33">
     <g id="line2d_164">
      <g>
       <use xlink:href="#m2b505d43db" x="27.82" y="70.914137" style="stroke: #000000; stroke-width: 0.5"/>
      </g>
     </g>
     <g id="line2d_165">
      <g>
       <use xlink:href="#mb2fa2f5528" x="530.02" y="70.914137" style="stroke: #000000; stroke-width: 0.5"/>
      </g>
     </g>
    </g>
    <g id="ytick_34">
     <g id="line2d_166">
      <g>
       <use xlink:href="#m2b505d43db" x="27.82" y="64.441104" style="stroke: #000000; stroke-width: 0.5"/>
      </g>
     </g>
     <g id="line2d_167">
      <g>
       <use xlink:href="#mb2fa2f5528" x="530.02" y="64.441104" style="stroke: #000000; stroke-width: 0.5"/>
      </g>
     </g>
    </g>
    <g id="ytick_35">
     <g id="line2d_168">
      <g>
       <use xlink:href="#m2b505d43db" x="27.82" y="51.495038" style="stroke: #000000; stroke-width: 0.5"/>
      </g>
     </g>
     <g id="line2d_169">
      <g>
       <use xlink:href="#mb2fa2f5528" x="530.02" y="51.495038" style="stroke: #000000; stroke-width: 0.5"/>
      </g>
     </g>
    </g>
    <g id="ytick_36">
     <g id="line2d_170">
      <g>
       <use xlink:href="#m2b505d43db" x="27.82" y="45.022006" style="stroke: #000000; stroke-width: 0.5"/>
      </g>
     </g>
     <g id="line2d_171">
      <g>
       <use xlink:href="#mb2fa2f5528" x="530.02" y="45.022006" style="stroke: #000000; stroke-width: 0.5"/>
      </g>
     </g>
    </g>
    <g id="ytick_37">
     <g id="line2d_172">
      <g>
       <use xlink:href="#m2b505d43db" x="27.82" y="38.548973" style="stroke: #000000; stroke-width: 0.5"/>
      </g>
     </g>
     <g id="line2d_173">
      <g>
       <use xlink:href="#mb2fa2f5528" x="530.02" y="38.548973" style="stroke: #000000; stroke-width: 0.5"/>
      </g>
     </g>
    </g>
    <g id="ytick_38">
     <g id="line2d_174">
      <g>
       <use xlink:href="#m2b505d43db" x="27.82" y="32.07594" style="stroke: #000000; stroke-width: 0.5"/>
      </g>
     </g>
     <g id="line2d_175">
      <g>
       <use xlink:href="#mb2fa2f5528" x="530.02" y="32.07594" style="stroke: #000000; stroke-width: 0.5"/>
      </g>
     </g>
    </g>
    <g id="ytick_39">
     <g id="line2d_176">
      <g>
       <use xlink:href="#m2b505d43db" x="27.82" y="19.129875" style="stroke: #000000; stroke-width: 0.5"/>
      </g>
     </g>
     <g id="line2d_177">
      <g>
       <use xlink:href="#mb2fa2f5528" x="530.02" y="19.129875" style="stroke: #000000; stroke-width: 0.5"/>
      </g>
     </g>
    </g>
    <g id="text_19">
     <!-- Ey (V/m) -->
     <g transform="translate(9.05625 156.115875) rotate(-90) scale(0.08 -0.08)">
      <defs>
       <path id="STIXGeneral-Regular-45" d="M 3821 1082 
L 3526 0 
L 77 0 
L 77 122 
Q 442 147 538 252 
Q 634 358 634 730 
L 634 3520 
Q 634 3878 534 3987 
Q 435 4096 77 4115 
L 77 4237 
L 3469 4237 
L 3494 3322 
L 3334 3322 
Q 3264 3750 3085 3872 
Q 2906 3994 2349 3994 
L 1510 3994 
Q 1370 3994 1328 3952 
Q 1286 3910 1286 3763 
L 1286 2355 
L 2253 2355 
Q 2656 2355 2787 2470 
Q 2918 2586 2976 2970 
L 3123 2970 
L 3123 1472 
L 2976 1472 
Q 2918 1875 2790 1984 
Q 2662 2093 2253 2093 
L 1286 2093 
L 1286 538 
Q 1286 346 1420 291 
Q 1555 237 1933 237 
L 2163 237 
Q 2848 237 3136 403 
Q 3424 570 3642 1082 
L 3821 1082 
z
" transform="scale(0.015625)"/>
       <path id="STIXGeneral-Regular-79" d="M 3040 2880 
L 3040 2784 
Q 2925 2771 2854 2700 
Q 2784 2630 2720 2458 
L 1760 -160 
Q 1510 -838 1257 -1116 
Q 1005 -1395 640 -1395 
Q 435 -1395 313 -1289 
Q 192 -1184 192 -1024 
Q 192 -902 272 -816 
Q 352 -730 467 -730 
Q 653 -730 800 -813 
Q 883 -858 966 -858 
Q 1101 -858 1286 -576 
Q 1376 -448 1459 -211 
Q 1542 26 1542 115 
Q 1542 198 1274 762 
L 429 2566 
Q 346 2752 90 2790 
L 90 2880 
L 1402 2880 
L 1402 2784 
Q 1197 2778 1117 2739 
Q 1037 2701 1037 2611 
Q 1037 2541 1120 2349 
L 1837 749 
L 2458 2515 
Q 2483 2573 2483 2630 
Q 2483 2784 2189 2784 
L 2189 2880 
L 3040 2880 
z
" transform="scale(0.015625)"/>
       <path id="STIXGeneral-Regular-56" d="M 4461 4237 
L 4461 4115 
Q 4262 4109 4134 3990 
Q 4006 3872 3872 3533 
L 2451 -70 
L 2355 -70 
L 794 3411 
Q 589 3866 467 3987 
Q 346 4109 102 4115 
L 102 4237 
L 1798 4237 
L 1798 4115 
L 1619 4102 
Q 1331 4083 1331 3904 
Q 1331 3776 1581 3219 
L 2554 1030 
L 3494 3392 
Q 3616 3699 3616 3853 
Q 3616 3898 3606 3933 
Q 3597 3968 3584 3993 
Q 3571 4019 3536 4038 
Q 3501 4058 3481 4067 
Q 3462 4077 3411 4086 
Q 3360 4096 3337 4099 
Q 3315 4102 3248 4108 
Q 3181 4115 3155 4115 
L 3155 4237 
L 4461 4237 
z
" transform="scale(0.015625)"/>
       <path id="STIXGeneral-Regular-2f" d="M 1837 4326 
L 378 -90 
L -58 -90 
L 1408 4326 
L 1837 4326 
z
" transform="scale(0.015625)"/>
      </defs>
      <use xlink:href="#STIXGeneral-Regular-45"/>
      <use xlink:href="#STIXGeneral-Regular-79" transform="translate(61.099991 0)"/>
      <use xlink:href="#STIXGeneral-Regular-20" transform="translate(111.099976 0)"/>
      <use xlink:href="#STIXGeneral-Regular-28" transform="translate(136.09996 0)"/>
      <use xlink:href="#STIXGeneral-Regular-56" transform="translate(169.399948 0)"/>
      <use xlink:href="#STIXGeneral-Regular-2f" transform="translate(241.59993 0)"/>
      <use xlink:href="#STIXGeneral-Regular-6d" transform="translate(269.399918 0)"/>
      <use xlink:href="#STIXGeneral-Regular-29" transform="translate(347.199905 0)"/>
     </g>
    </g>
    <g id="text_20">
     <!-- $\times\mathdefault{10^{−7}}\mathdefault{}$ -->
     <g transform="translate(27.82 13.1565) scale(0.08 -0.08)">
      <defs>
       <path id="Cmsy10-a3" d="M 941 184 
Q 941 234 972 275 
L 2303 1600 
L 972 2931 
Q 941 2963 941 3016 
Q 941 3063 978 3103 
Q 1016 3144 1069 3144 
Q 1113 3144 1166 3103 
L 2491 1778 
L 3809 3103 
Q 3863 3144 3903 3144 
Q 3956 3144 3993 3106 
Q 4031 3069 4031 3016 
Q 4031 2963 4000 2931 
L 2669 1600 
L 4000 275 
Q 4031 234 4031 184 
Q 4031 131 3993 93 
Q 3956 56 3903 56 
Q 3856 56 3809 103 
L 2491 1422 
L 1166 103 
Q 1119 56 1069 56 
Q 1016 56 978 97 
Q 941 138 941 184 
z
" transform="scale(0.015625)"/>
       <path id="STIXGeneral-Regular-37" d="M 2874 4134 
L 1517 -51 
L 1101 -51 
L 2368 3763 
L 992 3763 
Q 717 3763 582 3667 
Q 448 3571 243 3238 
L 128 3296 
L 512 4237 
L 2874 4237 
L 2874 4134 
z
" transform="scale(0.015625)"/>
      </defs>
      <use xlink:href="#Cmsy10-a3" transform="translate(0 0.657813)"/>
      <use xlink:href="#STIXGeneral-Regular-31" transform="translate(77.685547 0.657813)"/>
      <use xlink:href="#STIXGeneral-Regular-30" transform="translate(127.685532 0.657813)"/>
      <use xlink:href="#STIXGeneral-Regular-2212" transform="translate(179.260516 36.657813) scale(0.7)"/>
      <use xlink:href="#STIXGeneral-Regular-37" transform="translate(227.210506 36.657813) scale(0.7)"/>
     </g>
    </g>
   </g>
   <g id="line2d_178">
    <path d="M 27.82 122.698399 
L 72.526636 122.590734 
L 76.858358 122.434719 
L 77.920855 122.688158 
L 78.901623 123.147287 
L 80.291043 124.082231 
L 81.435271 124.772474 
L 82.089116 124.941369 
L 82.66123 124.865661 
L 83.233344 124.536534 
L 83.805458 123.940772 
L 84.541034 122.82709 
L 87.074682 118.605997 
L 87.565066 118.279175 
L 88.055449 118.222905 
L 88.545833 118.429884 
L 89.117947 118.952068 
L 90.016984 120.14461 
L 91.242943 121.733966 
L 91.978518 122.317115 
L 92.632363 122.533513 
L 93.286208 122.508457 
L 94.348705 122.19215 
L 95.329472 121.981145 
L 95.901587 122.079826 
L 96.39197 122.388016 
L 96.882354 122.969934 
L 97.454468 124.069611 
L 98.026582 125.672888 
L 98.762158 128.433359 
L 100.723692 136.342602 
L 101.132345 137.120523 
L 101.459267 137.311491 
L 101.704459 137.174799 
L 102.031381 136.603165 
L 102.440034 135.271674 
L 103.012149 132.392567 
L 103.992916 125.851343 
L 104.973683 119.758538 
L 105.545797 117.390709 
L 106.036181 116.247842 
L 106.363103 115.907791 
L 106.690025 115.840133 
L 107.098678 116.016553 
L 108.161176 116.622458 
L 108.488098 116.548908 
L 108.815021 116.271892 
L 109.223674 115.634029 
L 109.877519 114.0813 
L 111.103478 111.027123 
L 111.512131 110.487732 
L 111.839053 110.345347 
L 112.165975 110.481882 
L 112.492898 110.896337 
L 112.983281 111.993756 
L 113.637126 114.146039 
L 116.579428 124.817223 
L 117.151542 125.88088 
L 117.560195 126.288734 
L 117.887117 126.386643 
L 118.214039 126.27779 
L 118.622692 125.861103 
L 119.113076 124.998906 
L 119.930382 122.991578 
L 121.07461 120.243824 
L 121.646724 119.42629 
L 122.055377 119.175826 
L 122.3823 119.183901 
L 122.790953 119.443453 
L 123.281336 120.084056 
L 123.935181 121.40132 
L 124.752487 123.623603 
L 125.814985 127.206247 
L 127.776519 134.006008 
L 128.430364 135.523314 
L 129.002478 136.366267 
L 129.574592 136.837568 
L 131.045743 137.810356 
L 131.536127 138.545736 
L 132.108241 139.814842 
L 133.170739 142.904073 
L 133.824583 144.51536 
L 134.233236 145.015035 
L 134.478428 145.024765 
L 134.72362 144.763875 
L 135.050542 143.923782 
L 135.459195 141.959527 
L 135.949579 138.084804 
L 136.521693 131.318878 
L 137.175538 120.723708 
L 138.156305 100.632143 
L 139.627456 70.467989 
L 140.2813 61.200657 
L 140.771684 56.94272 
L 141.098606 55.481602 
L 141.343798 55.100356 
L 141.507259 55.174116 
L 141.752451 55.751723 
L 142.079374 57.328087 
L 142.569757 61.189508 
L 143.223602 68.543794 
L 144.040908 80.41164 
L 144.939944 96.76368 
L 145.838981 117.60997 
L 146.819748 146.076155 
L 148.617821 199.874341 
L 149.189935 210.401463 
L 149.598588 214.220271 
L 149.84378 214.855204 
L 150.007241 214.568829 
L 150.252433 213.081412 
L 150.579356 209.197128 
L 151.069739 199.74313 
L 151.805314 179.727433 
L 153.439926 132.912456 
L 154.093771 120.395243 
L 154.665885 113.267019 
L 155.156269 109.48449 
L 155.646653 107.170566 
L 156.218767 105.46925 
L 157.608187 102.335776 
L 158.262032 101.220291 
L 158.670685 100.883859 
L 158.997607 100.8806 
L 159.324529 101.125466 
L 159.733182 101.750232 
L 160.387027 103.259255 
L 161.694717 106.354636 
L 162.430292 107.484355 
L 163.819712 109.401388 
L 165.617785 112.403712 
L 165.944708 112.438991 
L 166.189899 112.244593 
L 166.516822 111.653742 
L 166.925475 110.359689 
L 167.497589 107.60109 
L 169.540854 96.459554 
L 169.867776 95.894802 
L 170.112968 95.871495 
L 170.35816 96.209249 
L 170.685082 97.224295 
L 171.093735 99.355846 
L 171.665849 103.696447 
L 172.728347 114.045156 
L 173.954306 125.317995 
L 174.853343 131.579151 
L 177.22353 146.760069 
L 178.776411 157.674998 
L 179.348525 160.340459 
L 179.757178 161.481226 
L 180.084101 161.898444 
L 180.329293 161.922292 
L 180.574484 161.706112 
L 180.901407 161.065044 
L 181.31006 159.747279 
L 181.882174 157.077586 
L 182.617749 152.52927 
L 183.680247 144.444918 
L 186.86774 119.179089 
L 188.093699 111.702082 
L 188.911005 107.912757 
L 189.483119 106.099562 
L 189.973503 105.17866 
L 190.382156 104.832223 
L 190.790809 104.783879 
L 192.098498 104.962862 
L 192.425421 104.678823 
L 192.834074 103.989675 
L 193.324457 102.690704 
L 194.877339 98.108523 
L 195.12253 97.922506 
L 195.367722 98.039519 
L 195.612914 98.504784 
L 195.939836 99.726511 
L 196.348489 102.285622 
L 196.838873 106.866315 
L 197.492718 115.167345 
L 199.454252 141.969474 
L 199.862905 144.633393 
L 200.108097 145.294704 
L 200.271558 145.30479 
L 200.435019 144.954422 
L 200.680211 143.735629 
L 201.007133 140.810263 
L 201.497517 133.776936 
L 202.151362 120.405824 
L 204.031165 79.299495 
L 204.521549 74.011424 
L 204.848471 72.628072 
L 205.011933 72.612977 
L 205.175394 73.050648 
L 205.420586 74.541952 
L 205.747508 78.016607 
L 206.237892 86.046979 
L 206.973467 102.700351 
L 208.853271 147.83739 
L 209.507115 157.822865 
L 209.997499 162.337054 
L 210.324421 163.925675 
L 210.569613 164.405766 
L 210.733074 164.404731 
L 210.896536 164.159888 
L 211.141727 163.362317 
L 211.55038 160.994312 
L 212.040764 156.696943 
L 212.776339 148.020475 
L 215.309988 115.523642 
L 215.718641 113.074171 
L 216.045563 112.234446 
L 216.209024 112.216628 
L 216.372486 112.473768 
L 216.617677 113.375283 
L 216.9446 115.512863 
L 217.434983 120.521256 
L 218.170559 130.919497 
L 219.559979 151.129803 
L 220.132093 156.346627 
L 220.540746 158.276176 
L 220.785938 158.659593 
L 220.949399 158.589858 
L 221.194591 158.004604 
L 221.521513 156.360662 
L 221.930166 153.029116 
L 222.50228 146.367736 
L 223.401317 132.883054 
L 224.790737 112.096059 
L 225.444582 105.425333 
L 225.934965 102.538718 
L 226.261888 101.708341 
L 226.425349 101.618152 
L 226.58881 101.736494 
L 226.834002 102.283071 
L 227.160924 103.628701 
L 227.651308 106.673009 
L 229.36765 118.312686 
L 229.694573 119.207477 
L 229.939764 119.404622 
L 230.103226 119.301127 
L 230.348417 118.795194 
L 230.67534 117.49959 
L 231.165723 114.441161 
L 232.963797 101.67191 
L 233.290719 100.91128 
L 233.45418 100.844065 
L 233.617641 100.993025 
L 233.862833 101.620126 
L 234.189755 103.172157 
L 234.680139 106.784584 
L 236.559943 122.307553 
L 236.886865 123.134928 
L 237.050326 123.195291 
L 237.213788 123.012437 
L 237.458979 122.282842 
L 237.785902 120.493583 
L 238.276285 116.289273 
L 239.093591 106.82319 
L 239.992628 96.998645 
L 240.483011 93.783589 
L 240.809934 92.941128 
L 240.973395 92.960144 
L 241.136856 93.28454 
L 241.382048 94.348136 
L 241.70897 96.815805 
L 242.199354 102.516972 
L 243.01666 115.385304 
L 243.997427 129.920102 
L 244.487811 134.160007 
L 244.814733 135.347954 
L 244.978194 135.4221 
L 245.141655 135.154846 
L 245.386847 134.145783 
L 245.7955 131.057146 
L 246.531076 122.879357 
L 247.266651 115.404473 
L 247.675304 113.315117 
L 247.838765 113.084633 
L 248.002226 113.240441 
L 248.247418 114.231665 
L 248.57434 116.986326 
L 248.982993 122.607448 
L 249.636838 135.517621 
L 251.18972 168.115123 
L 251.680103 173.592747 
L 252.007025 175.102857 
L 252.170487 175.178921 
L 252.333948 174.801677 
L 252.57914 173.404334 
L 252.906062 170.076039 
L 253.396446 162.37033 
L 254.132021 146.669565 
L 255.603172 114.896595 
L 256.175286 107.333572 
L 256.583939 104.623036 
L 256.829131 104.176361 
L 256.992592 104.380991 
L 257.237784 105.437545 
L 257.564706 108.203375 
L 257.973359 113.666707 
L 258.627204 126.091956 
L 260.588738 166.478029 
L 260.997391 170.526179 
L 261.324313 171.845788 
L 261.487775 171.827 
L 261.651236 171.349471 
L 261.896428 169.780429 
L 262.22335 166.155471 
L 262.713734 157.77385 
L 263.449309 140.287546 
L 265.656035 84.065883 
L 266.39161 71.759501 
L 267.045455 64.459106 
L 267.535839 61.172808 
L 267.862761 60.016513 
L 268.107953 59.700206 
L 268.271414 59.75646 
L 268.516606 60.249099 
L 268.843528 61.682776 
L 269.252181 64.740913 
L 269.742565 70.234295 
L 270.39641 80.306209 
L 271.622369 103.815618 
L 272.603136 120.840653 
L 273.25698 128.737384 
L 273.747364 132.48827 
L 274.156017 134.302889 
L 274.482939 135.033358 
L 274.809862 135.252263 
L 275.055054 135.152507 
L 275.381976 134.751507 
L 275.87236 133.729965 
L 276.526204 131.766835 
L 277.180049 129.091334 
L 277.997355 124.671961 
L 279.305045 117.479223 
L 279.713698 116.349624 
L 279.958889 116.143308 
L 280.122351 116.226436 
L 280.367542 116.696394 
L 280.694465 117.964118 
L 281.184848 121.09619 
L 282.002154 128.309227 
L 282.982921 136.420332 
L 283.555036 139.468938 
L 284.12715 141.301468 
L 285.271378 144.318555 
L 285.761762 146.545246 
L 286.497337 151.133933 
L 287.314643 155.971082 
L 287.641565 157.012765 
L 287.886757 157.240992 
L 288.050218 157.089625 
L 288.29541 156.373669 
L 288.622333 154.484974 
L 289.030986 150.707234 
L 289.68483 142.231634 
L 290.99252 124.935688 
L 291.482903 121.22026 
L 291.809826 119.975204 
L 292.055018 119.675512 
L 292.218479 119.755137 
L 292.463671 120.247969 
L 292.872324 121.873781 
L 293.607899 126.198762 
L 294.588666 131.808292 
L 295.16078 134.028644 
L 295.651164 135.124007 
L 295.978086 135.392158 
L 296.223278 135.318367 
L 296.46847 134.977422 
L 296.795392 134.045729 
L 297.204045 131.982654 
L 297.694429 127.96889 
L 298.266543 120.984991 
L 299.002118 108.801606 
L 300.718461 79.019669 
L 301.208844 74.031036 
L 301.617497 71.781108 
L 301.862689 71.261385 
L 302.02615 71.242256 
L 302.189612 71.468756 
L 302.434803 72.232343 
L 302.843456 74.481567 
L 303.415571 79.214664 
L 304.232876 88.219943 
L 305.131913 100.670695 
L 306.439603 122.530941 
L 307.338639 136.046503 
L 307.829023 140.83232 
L 308.155945 142.563159 
L 308.401137 143.02273 
L 308.564598 142.926504 
L 308.80979 142.197385 
L 309.136712 140.221672 
L 309.627096 135.541897 
L 311.5069 115.414465 
L 311.915553 113.662182 
L 312.160744 113.288949 
L 312.324205 113.318877 
L 312.569397 113.765356 
L 312.89632 115.05929 
L 313.304973 117.666618 
L 313.877087 122.8103 
L 314.776123 133.28282 
L 316.655927 155.871724 
L 317.146311 159.355572 
L 317.473233 160.608846 
L 317.718425 160.922006 
L 317.881886 160.822705 
L 318.127078 160.213763 
L 318.454 158.580719 
L 318.944384 154.611477 
L 319.76169 145.539464 
L 320.824188 134.238188 
L 321.396302 130.187523 
L 321.886685 128.026712 
L 322.377069 126.75755 
L 323.603028 124.21855 
L 324.093411 122.400178 
L 324.828987 118.604937 
L 325.973215 112.586993 
L 326.463599 111.062441 
L 326.790521 110.573364 
L 327.035713 110.477397 
L 327.280905 110.585819 
L 327.689558 111.106092 
L 328.752055 112.694963 
L 328.997247 112.741375 
L 329.242439 112.567479 
L 329.569361 111.947955 
L 329.978014 110.521754 
L 330.468398 107.928266 
L 331.367434 101.625148 
L 332.266471 95.759857 
L 332.675124 94.142743 
L 333.002046 93.620252 
L 333.165508 93.66563 
L 333.410699 94.161115 
L 333.737622 95.685768 
L 334.146275 99.071791 
L 334.636658 105.321823 
L 335.290503 116.881571 
L 337.170307 153.027274 
L 337.57896 156.996354 
L 337.905882 158.329915 
L 338.069343 158.34183 
L 338.232805 157.911488 
L 338.477996 156.447351 
L 338.804919 153.038094 
L 339.295302 145.19079 
L 340.030878 129.132456 
L 341.74722 90.324395 
L 342.319334 81.883847 
L 342.809718 77.664273 
L 343.13664 76.60887 
L 343.300101 76.643549 
L 343.463563 77.064874 
L 343.708754 78.434828 
L 344.035677 81.651928 
L 344.44433 87.875823 
L 345.016444 100.381868 
L 345.83375 124.052536 
L 347.550092 175.675409 
L 348.122207 186.742828 
L 348.53086 191.31532 
L 348.776051 192.557765 
L 348.939513 192.729478 
L 349.102974 192.365121 
L 349.348166 190.804266 
L 349.675088 186.839185 
L 350.083741 178.968091 
L 350.655855 163.13072 
L 351.554892 130.704869 
L 352.780851 87.593815 
L 353.352965 74.566314 
L 353.761618 69.523017 
L 354.00681 68.324404 
L 354.170271 68.281763 
L 354.333732 68.826512 
L 354.578924 70.690152 
L 354.987577 76.294089 
L 355.559691 88.187713 
L 358.011609 145.236763 
L 358.501992 151.017245 
L 358.910645 153.566883 
L 359.155837 154.079694 
L 359.319298 154.000488 
L 359.56449 153.265496 
L 359.891413 151.19453 
L 360.381796 146.046291 
L 361.117371 135.235142 
L 362.34333 117.344397 
L 362.833714 112.869089 
L 363.242367 110.774944 
L 363.569289 110.095217 
L 363.814481 110.065317 
L 364.059673 110.345282 
L 364.550056 111.412193 
L 365.122171 112.593504 
L 365.449093 112.876802 
L 365.694285 112.831761 
L 366.021207 112.435651 
L 366.511591 111.324581 
L 367.247166 109.706956 
L 367.492358 109.536862 
L 367.655819 109.594221 
L 367.901011 109.976425 
L 368.227933 111.08321 
L 368.636586 113.409063 
L 369.290431 118.727112 
L 370.271198 126.555693 
L 370.679851 128.209465 
L 370.925043 128.467745 
L 371.088504 128.302409 
L 371.333696 127.534897 
L 371.660618 125.565303 
L 372.151002 120.850989 
L 374.030806 99.865536 
L 374.357728 98.807388 
L 374.521189 98.783087 
L 374.68465 99.106098 
L 374.929842 100.237563 
L 375.256765 102.890599 
L 375.747148 108.918259 
L 377.708682 136.150756 
L 378.117335 138.45884 
L 378.444258 139.163203 
L 378.607719 139.188907 
L 378.852911 138.906407 
L 379.261564 137.902199 
L 379.915409 136.364054 
L 380.1606 136.227423 
L 380.324062 136.344621 
L 380.569253 136.866824 
L 380.896176 138.214397 
L 381.386559 141.381057 
L 382.367326 148.114168 
L 382.694249 149.027163 
L 382.85771 149.022033 
L 383.021171 148.663195 
L 383.266363 147.411314 
L 383.593285 144.359184 
L 384.083669 136.978563 
L 384.819244 121.585022 
L 385.800012 101.750039 
L 386.290395 96.028129 
L 386.617317 94.565139 
L 386.780779 94.586742 
L 386.94424 95.107055 
L 387.189432 96.786343 
L 387.598085 101.72868 
L 388.170199 111.946299 
L 389.64135 139.960929 
L 390.131733 145.548651 
L 390.540386 148.084183 
L 390.785578 148.716522 
L 390.949039 148.800274 
L 391.1125 148.638855 
L 391.357692 147.991218 
L 391.766345 146.054027 
L 392.50192 141.038114 
L 393.973071 130.840323 
L 395.19903 124.146874 
L 397.650948 111.371821 
L 398.223062 106.70893 
L 398.876907 99.328374 
L 399.694213 87.133607 
L 400.756711 71.60292 
L 401.165364 68.346895 
L 401.410555 67.711387 
L 401.492286 67.755895 
L 401.655747 68.259268 
L 401.900939 70.106525 
L 402.227861 74.698716 
L 402.636514 83.827645 
L 403.208629 102.041609 
L 405.170163 170.801709 
L 405.578816 177.512438 
L 405.905738 179.792826 
L 406.069199 179.906836 
L 406.232661 179.363756 
L 406.477852 177.392596 
L 406.886505 171.41526 
L 407.45862 158.935735 
L 409.501884 110.714569 
L 410.073999 102.690136 
L 410.564382 98.384878 
L 410.973035 96.533183 
L 411.218227 96.132651 
L 411.381688 96.143998 
L 411.62688 96.553574 
L 411.953802 97.771535 
L 412.444186 100.813592 
L 413.179761 107.211958 
L 414.977834 123.435176 
L 416.694177 137.172514 
L 417.593213 147.17286 
L 418.737442 159.720019 
L 419.146095 162.244386 
L 419.391287 162.870185 
L 419.554748 162.857205 
L 419.718209 162.475002 
L 419.963401 161.178643 
L 420.290323 158.074862 
L 420.780707 150.610658 
L 421.434551 136.540139 
L 422.987433 101.146865 
L 423.477816 94.620941 
L 423.804739 92.343252 
L 424.049931 91.777093 
L 424.213392 91.936203 
L 424.458584 92.944366 
L 424.785506 95.602089 
L 425.275889 101.866831 
L 426.338387 119.732456 
L 427.073963 130.400147 
L 427.564346 134.867799 
L 427.891269 136.343954 
L 428.13646 136.614391 
L 428.299922 136.396189 
L 428.545113 135.48721 
L 428.872036 133.255279 
L 429.362419 128.038557 
L 430.179725 116.243111 
L 431.242223 101.483005 
L 431.732607 97.242748 
L 432.059529 95.770592 
L 432.304721 95.426122 
L 432.468182 95.553835 
L 432.713374 96.252996 
L 433.040296 98.026974 
L 433.61241 102.767571 
L 434.674908 111.959889 
L 435.083561 113.871884 
L 435.328753 114.33728 
L 435.492214 114.352679 
L 435.655675 114.139216 
L 435.900867 113.423112 
L 436.30952 111.383122 
L 437.535479 104.36122 
L 437.780671 103.83264 
L 437.944132 103.772558 
L 438.107593 103.964409 
L 438.352785 104.738422 
L 438.679707 106.657531 
L 439.170091 111.16265 
L 441.213356 132.551044 
L 441.703739 134.668076 
L 442.112392 135.489182 
L 442.521045 135.818588 
L 443.093159 136.210345 
L 443.420082 136.727199 
L 443.828735 137.900253 
L 444.319118 140.195743 
L 444.972963 144.622674 
L 446.035461 153.751888 
L 447.751803 168.404308 
L 448.323918 171.676564 
L 448.65084 172.67194 
L 448.896032 172.856039 
L 449.059493 172.667525 
L 449.304685 171.86661 
L 449.631607 169.748132 
L 450.04026 165.319517 
L 450.612374 155.936141 
L 451.42968 137.977296 
L 452.655639 111.314181 
L 453.309484 101.883028 
L 453.799868 97.555038 
L 454.290251 95.037995 
L 454.944096 93.007037 
L 455.51621 91.044713 
L 456.088324 88.171498 
L 457.396014 81.143901 
L 457.641206 80.716523 
L 457.804667 80.734424 
L 457.968128 81.022896 
L 458.21332 81.999006 
L 458.540242 84.348895 
L 459.030626 89.985527 
L 459.847932 103.04087 
L 460.746968 116.547 
L 461.237352 120.825555 
L 461.564274 121.949609 
L 461.727735 121.96846 
L 461.891197 121.633317 
L 462.136388 120.503736 
L 462.545041 117.176354 
L 463.198886 109.442168 
L 464.179653 97.975378 
L 464.670037 94.602541 
L 464.996959 93.651868 
L 465.16042 93.585628 
L 465.323882 93.788239 
L 465.569073 94.57532 
L 465.895996 96.446807 
L 466.386379 100.674139 
L 467.367147 111.726719 
L 468.429644 122.862511 
L 469.16522 128.382976 
L 469.982526 132.727194 
L 471.045023 138.22281 
L 471.617138 142.492462 
L 472.270982 149.179931 
L 473.251749 162.086048 
L 474.150786 173.172696 
L 474.64117 176.773365 
L 474.886361 177.530807 
L 475.049823 177.586161 
L 475.213284 177.258612 
L 475.458476 176.021903 
L 475.785398 172.963761 
L 476.275782 165.520464 
L 476.929626 151.466929 
L 478.482508 116.722636 
L 478.972891 110.473513 
L 479.381544 107.882851 
L 479.626736 107.413539 
L 479.790197 107.500023 
L 480.035389 108.135249 
L 480.444042 110.154554 
L 481.424809 115.45248 
L 481.670001 115.984644 
L 481.833462 116.045735 
L 481.996923 115.85527 
L 482.242115 115.092844 
L 482.569037 113.244573 
L 483.141152 108.381953 
L 483.958458 101.515789 
L 484.28538 100.21246 
L 484.448841 100.079568 
L 484.612302 100.343921 
L 484.857494 101.541943 
L 485.184417 104.693994 
L 485.59307 111.029658 
L 486.246914 125.310245 
L 487.391143 150.467402 
L 487.799796 155.254181 
L 488.044987 156.366455 
L 488.126718 156.417011 
L 488.290179 156.024018 
L 488.535371 154.1933 
L 488.862293 149.508223 
L 489.352677 138.293007 
L 490.251714 110.329624 
L 491.069019 86.93818 
L 491.559403 78.124518 
L 491.886325 75.251454 
L 492.049787 74.774808 
L 492.131517 74.77686 
L 492.294978 75.254384 
L 492.54017 77.112455 
L 492.867093 81.540959 
L 493.357476 91.561206 
L 495.482472 140.764121 
L 495.891125 144.193448 
L 496.136316 144.69404 
L 496.299778 144.362969 
L 496.544969 142.878666 
L 496.871892 139.130802 
L 497.362275 130.153877 
L 498.097851 111.437071 
L 499.40554 77.917063 
L 499.895924 70.480449 
L 500.222846 68.087316 
L 500.386307 67.733404 
L 500.468038 67.772227 
L 500.631499 68.283056 
L 500.876691 70.122103 
L 501.203613 74.498097 
L 501.693997 84.732255 
L 502.429572 106.099084 
L 504.472837 168.972495 
L 505.126682 181.731768 
L 505.617066 187.712439 
L 506.025719 190.240444 
L 506.27091 190.682719 
L 506.434372 190.535176 
L 506.679563 189.662846 
L 507.006486 187.323466 
L 507.415139 182.625125 
L 507.987253 173.13557 
L 508.804559 155.151114 
L 511.66513 87.685439 
L 512.237244 80.019181 
L 512.645897 77.070968 
L 512.891089 76.480065 
L 513.05455 76.614104 
L 513.218011 77.185442 
L 513.463203 78.878363 
L 513.790125 82.696665 
L 514.280509 91.588986 
L 514.934354 108.182998 
L 516.732427 156.400916 
L 517.22281 163.294283 
L 517.549733 165.429709 
L 517.713194 165.732513 
L 517.794924 165.693726 
L 517.958386 165.241811 
L 518.203577 163.657159 
L 518.5305 159.966487 
L 519.020883 151.525555 
L 519.756459 134.228663 
L 521.963185 79.362879 
L 522.535299 70.90893 
L 522.943952 67.483764 
L 523.189144 66.581952 
L 523.352605 66.478338 
L 523.516066 66.776363 
L 523.761258 67.973054 
L 524.08818 70.932295 
L 524.578564 78.069049 
L 525.232409 91.681976 
L 526.458368 123.530577 
L 527.602596 151.256927 
L 528.338171 164.282319 
L 528.910286 170.704768 
L 529.318939 172.990267 
L 529.56413 173.372277 
L 529.727591 173.20175 
L 529.972783 172.30004 
L 530.054514 171.826834 
L 530.054514 171.826834 
" clip-path="url(#p54a924e00f)" style="fill: none; stroke: #0c5da5; stroke-linecap: square"/>
   </g>
   <g id="patch_3">
    <path d="M 27.82 265.6365 
L 27.82 16.1565 
" style="fill: none; stroke: #000000; stroke-width: 0.5; stroke-linejoin: miter; stroke-linecap: square"/>
   </g>
   <g id="patch_4">
    <path d="M 530.02 265.6365 
L 530.02 16.1565 
" style="fill: none; stroke: #000000; stroke-width: 0.5; stroke-linejoin: miter; stroke-linecap: square"/>
   </g>
   <g id="patch_5">
    <path d="M 27.82 265.6365 
L 530.02 265.6365 
" style="fill: none; stroke: #000000; stroke-width: 0.5; stroke-linejoin: miter; stroke-linecap: square"/>
   </g>
   <g id="patch_6">
    <path d="M 27.82 16.1565 
L 530.02 16.1565 
" style="fill: none; stroke: #000000; stroke-width: 0.5; stroke-linejoin: miter; stroke-linecap: square"/>
   </g>
   <g id="text_21">
    <!-- P3 electric field - high_capacitance -->
    <g transform="translate(211.1995 10.1565) scale(0.096 -0.096)">
     <defs>
      <path id="STIXGeneral-Regular-50" d="M 102 4237 
L 1760 4237 
Q 2669 4237 3149 3834 
Q 3469 3565 3469 3072 
Q 3469 2560 3104 2234 
Q 2835 1990 2553 1916 
Q 2272 1843 1734 1843 
Q 1549 1843 1293 1862 
L 1293 717 
Q 1293 352 1398 246 
Q 1504 141 1894 122 
L 1894 0 
L 102 0 
L 102 122 
Q 474 147 557 256 
Q 640 365 640 781 
L 640 3526 
Q 640 3885 547 3987 
Q 454 4090 102 4115 
L 102 4237 
z
M 1293 3770 
L 1293 2118 
Q 1510 2099 1683 2099 
Q 2202 2099 2486 2352 
Q 2771 2605 2771 3040 
Q 2771 3558 2476 3779 
Q 2182 4000 1517 4000 
Q 1382 4000 1337 3952 
Q 1293 3904 1293 3770 
z
" transform="scale(0.015625)"/>
      <path id="STIXGeneral-Regular-6c" d="M 1645 0 
L 134 0 
L 134 96 
Q 435 122 531 221 
Q 627 320 627 589 
L 627 3590 
Q 627 3821 569 3910 
Q 512 4000 358 4000 
Q 224 4000 122 3987 
L 122 4090 
Q 730 4237 1133 4371 
L 1165 4346 
L 1165 557 
Q 1165 288 1254 201 
Q 1344 115 1645 96 
L 1645 0 
z
" transform="scale(0.015625)"/>
      <path id="STIXGeneral-Regular-63" d="M 2547 998 
L 2637 941 
Q 2362 403 2112 205 
Q 1786 -64 1376 -64 
Q 845 -64 502 336 
Q 160 736 160 1357 
Q 160 2170 698 2618 
Q 1094 2944 1562 2944 
Q 1965 2944 2256 2749 
Q 2547 2554 2547 2285 
Q 2547 2176 2457 2096 
Q 2368 2016 2246 2016 
Q 2022 2016 1939 2310 
L 1901 2451 
Q 1850 2630 1773 2694 
Q 1696 2758 1523 2758 
Q 1133 2758 893 2451 
Q 653 2144 653 1645 
Q 653 1094 928 745 
Q 1203 397 1645 397 
Q 1920 397 2118 528 
Q 2317 659 2547 998 
z
" transform="scale(0.015625)"/>
      <path id="STIXGeneral-Regular-74" d="M 1702 493 
L 1786 422 
Q 1478 -64 1011 -64 
Q 448 -64 448 749 
L 448 2675 
L 109 2675 
Q 83 2694 83 2720 
Q 83 2771 192 2842 
Q 435 2982 813 3526 
Q 826 3546 874 3606 
Q 922 3667 941 3706 
Q 986 3706 986 3622 
L 986 2880 
L 1632 2880 
L 1632 2675 
L 986 2675 
L 986 845 
Q 986 538 1062 403 
Q 1139 269 1318 269 
Q 1510 269 1702 493 
z
" transform="scale(0.015625)"/>
      <path id="STIXGeneral-Regular-72" d="M 1024 2931 
L 1024 2342 
Q 1267 2688 1430 2816 
Q 1594 2944 1792 2944 
Q 1958 2944 2051 2854 
Q 2144 2765 2144 2605 
Q 2144 2470 2077 2393 
Q 2010 2317 1894 2317 
Q 1773 2317 1638 2445 
Q 1536 2541 1472 2541 
Q 1338 2541 1181 2355 
Q 1024 2170 1024 2016 
L 1024 576 
Q 1024 301 1133 205 
Q 1242 109 1568 96 
L 1568 0 
L 32 0 
L 32 96 
Q 339 154 412 224 
Q 486 294 486 538 
L 486 2138 
Q 486 2349 438 2435 
Q 390 2522 269 2522 
Q 166 2522 45 2496 
L 45 2598 
Q 448 2726 992 2944 
L 1024 2931 
z
" transform="scale(0.015625)"/>
      <path id="STIXGeneral-Regular-66" d="M 134 2880 
L 659 2880 
Q 666 3264 710 3478 
Q 755 3693 883 3910 
Q 1152 4371 1786 4371 
Q 2074 4371 2262 4259 
Q 2451 4147 2451 3974 
Q 2451 3866 2374 3789 
Q 2298 3712 2182 3712 
Q 2029 3712 1894 3942 
Q 1741 4192 1555 4192 
Q 1197 4192 1197 3622 
L 1197 2880 
L 1978 2880 
L 1978 2675 
L 1197 2675 
L 1197 666 
Q 1197 307 1299 208 
Q 1402 109 1792 96 
L 1792 0 
L 128 0 
L 128 96 
Q 474 115 566 214 
Q 659 314 659 666 
L 659 2675 
L 134 2675 
L 134 2880 
z
" transform="scale(0.015625)"/>
      <path id="STIXGeneral-Regular-64" d="M 3142 269 
L 2202 -64 
L 2176 -45 
L 2176 365 
Q 1869 -64 1357 -64 
Q 826 -64 499 317 
Q 173 698 173 1312 
Q 173 1990 563 2467 
Q 954 2944 1504 2944 
Q 1850 2944 2176 2669 
L 2176 3667 
Q 2176 3866 2118 3930 
Q 2061 3994 1882 3994 
Q 1792 3994 1741 3987 
L 1741 4090 
Q 2323 4243 2682 4371 
L 2714 4358 
L 2714 730 
Q 2714 506 2768 435 
Q 2822 365 2995 365 
Q 3034 365 3142 371 
L 3142 269 
z
M 2176 653 
L 2176 2125 
Q 2176 2381 1981 2573 
Q 1786 2765 1523 2765 
Q 1158 2765 940 2438 
Q 723 2112 723 1568 
Q 723 979 963 624 
Q 1203 269 1606 269 
Q 1907 269 2080 474 
Q 2176 582 2176 653 
z
" transform="scale(0.015625)"/>
      <path id="STIXGeneral-Regular-2d" d="M 1824 1242 
L 250 1242 
L 250 1645 
L 1824 1645 
L 1824 1242 
z
" transform="scale(0.015625)"/>
      <path id="STIXGeneral-Regular-68" d="M 3117 0 
L 1760 0 
L 1760 96 
Q 2042 128 2118 224 
Q 2195 320 2195 653 
L 2195 1920 
Q 2195 2598 1722 2598 
Q 1530 2598 1370 2508 
Q 1210 2419 1005 2195 
L 1005 653 
Q 1005 320 1081 224 
Q 1158 128 1440 96 
L 1440 0 
L 58 0 
L 58 96 
Q 333 134 400 224 
Q 467 314 467 653 
L 467 3667 
Q 467 3872 406 3933 
Q 346 3994 141 3994 
Q 83 3994 64 3987 
L 64 4090 
L 237 4141 
Q 730 4288 973 4371 
L 1005 4352 
L 1005 2406 
Q 1229 2694 1446 2819 
Q 1664 2944 1946 2944 
Q 2733 2944 2733 1926 
L 2733 653 
Q 2733 320 2793 233 
Q 2854 147 3117 96 
L 3117 0 
z
" transform="scale(0.015625)"/>
      <path id="STIXGeneral-Regular-67" d="M 3008 2483 
L 2477 2483 
Q 2598 2208 2598 1946 
Q 2598 1453 2265 1203 
Q 1933 954 1600 954 
Q 1530 954 1357 973 
L 1235 986 
Q 1107 947 979 812 
Q 851 678 851 582 
Q 851 435 1350 410 
L 2176 371 
Q 2528 358 2739 172 
Q 2950 -13 2950 -314 
Q 2950 -685 2566 -986 
Q 2035 -1395 1286 -1395 
Q 826 -1395 502 -1212 
Q 179 -1030 179 -774 
Q 179 -595 320 -419 
Q 461 -243 806 6 
Q 602 102 534 172 
Q 467 243 467 346 
Q 467 531 762 787 
Q 909 915 1037 1043 
Q 717 1203 579 1401 
Q 442 1600 442 1901 
Q 442 2336 752 2640 
Q 1062 2944 1510 2944 
Q 1766 2944 2022 2848 
L 2163 2797 
Q 2349 2733 2515 2733 
L 3008 2733 
L 3008 2483 
z
M 973 2163 
L 973 2144 
Q 973 1683 1155 1398 
Q 1338 1114 1632 1114 
Q 1850 1114 1978 1270 
Q 2106 1427 2106 1690 
Q 2106 2112 1914 2464 
Q 1754 2765 1446 2765 
Q 1222 2765 1097 2605 
Q 973 2445 973 2163 
z
M 2771 -410 
Q 2771 -230 2595 -163 
Q 2419 -96 1978 -96 
Q 1344 -96 941 -13 
Q 749 -243 688 -348 
Q 627 -454 627 -563 
Q 627 -774 880 -902 
Q 1133 -1030 1555 -1030 
Q 2099 -1030 2435 -860 
Q 2771 -691 2771 -410 
z
" transform="scale(0.015625)"/>
      <path id="STIXGeneral-Regular-5f" d="M 3200 -800 
L 0 -800 
L 0 -480 
L 3200 -480 
L 3200 -800 
z
" transform="scale(0.015625)"/>
      <path id="STIXGeneral-Regular-61" d="M 2829 422 
L 2829 243 
Q 2586 -64 2253 -64 
Q 1888 -64 1843 403 
L 1837 403 
Q 1427 -64 909 -64 
Q 608 -64 422 112 
Q 237 288 237 602 
Q 237 1050 685 1350 
Q 992 1555 1837 1869 
L 1837 2214 
Q 1837 2502 1699 2646 
Q 1562 2790 1338 2790 
Q 1146 2790 1018 2697 
Q 890 2605 890 2477 
Q 890 2419 909 2348 
Q 928 2278 928 2208 
Q 928 2112 841 2029 
Q 755 1946 634 1946 
Q 525 1946 441 2029 
Q 358 2112 358 2240 
Q 358 2547 685 2752 
Q 986 2944 1421 2944 
Q 1939 2944 2176 2656 
Q 2291 2522 2323 2384 
Q 2355 2246 2355 1946 
L 2355 723 
Q 2355 301 2554 301 
Q 2682 301 2829 422 
z
M 1837 813 
L 1837 1715 
Q 1248 1510 1018 1293 
Q 800 1094 800 800 
Q 800 557 921 432 
Q 1043 307 1242 307 
Q 1453 307 1613 410 
Q 1747 506 1792 589 
Q 1837 672 1837 813 
z
" transform="scale(0.015625)"/>
      <path id="STIXGeneral-Regular-70" d="M 1018 2931 
L 1018 2438 
Q 1421 2944 1939 2944 
Q 2406 2944 2707 2560 
Q 3008 2176 3008 1581 
Q 3008 883 2621 409 
Q 2234 -64 1664 -64 
Q 1466 -64 1328 -6 
Q 1190 51 1018 211 
L 1018 -794 
Q 1018 -1094 1120 -1180 
Q 1222 -1267 1581 -1274 
L 1581 -1389 
L 32 -1389 
L 32 -1280 
Q 314 -1254 397 -1171 
Q 480 -1088 480 -838 
L 480 2157 
Q 480 2381 429 2451 
Q 378 2522 218 2522 
Q 115 2522 58 2515 
L 58 2618 
Q 506 2752 979 2944 
L 1018 2931 
z
M 1018 2138 
L 1018 563 
Q 1018 422 1238 281 
Q 1459 141 1683 141 
Q 2029 141 2243 467 
Q 2458 794 2458 1325 
Q 2458 1888 2243 2224 
Q 2029 2560 1670 2560 
Q 1446 2560 1232 2419 
Q 1018 2278 1018 2138 
z
" transform="scale(0.015625)"/>
     </defs>
     <use xlink:href="#STIXGeneral-Regular-50"/>
     <use xlink:href="#STIXGeneral-Regular-33" transform="translate(55.699997 0)"/>
     <use xlink:href="#STIXGeneral-Regular-20" transform="translate(105.699982 0)"/>
     <use xlink:href="#STIXGeneral-Regular-65" transform="translate(130.699966 0)"/>
     <use xlink:href="#STIXGeneral-Regular-6c" transform="translate(175.09996 0)"/>
     <use xlink:href="#STIXGeneral-Regular-65" transform="translate(202.899948 0)"/>
     <use xlink:href="#STIXGeneral-Regular-63" transform="translate(247.299942 0)"/>
     <use xlink:href="#STIXGeneral-Regular-74" transform="translate(291.699936 0)"/>
     <use xlink:href="#STIXGeneral-Regular-72" transform="translate(319.499924 0)"/>
     <use xlink:href="#STIXGeneral-Regular-69" transform="translate(352.799911 0)"/>
     <use xlink:href="#STIXGeneral-Regular-63" transform="translate(380.599899 0)"/>
     <use xlink:href="#STIXGeneral-Regular-20" transform="translate(424.999893 0)"/>
     <use xlink:href="#STIXGeneral-Regular-66" transform="translate(449.999878 0)"/>
     <use xlink:href="#STIXGeneral-Regular-69" transform="translate(483.299866 0)"/>
     <use xlink:href="#STIXGeneral-Regular-65" transform="translate(511.099854 0)"/>
     <use xlink:href="#STIXGeneral-Regular-6c" transform="translate(555.499847 0)"/>
     <use xlink:href="#STIXGeneral-Regular-64" transform="translate(583.299835 0)"/>
     <use xlink:href="#STIXGeneral-Regular-20" transform="translate(633.29982 0)"/>
     <use xlink:href="#STIXGeneral-Regular-2d" transform="translate(658.299805 0)"/>
     <use xlink:href="#STIXGeneral-Regular-20" transform="translate(691.599792 0)"/>
     <use xlink:href="#STIXGeneral-Regular-68" transform="translate(716.599777 0)"/>
     <use xlink:href="#STIXGeneral-Regular-69" transform="translate(766.599762 0)"/>
     <use xlink:href="#STIXGeneral-Regular-67" transform="translate(794.39975 0)"/>
     <use xlink:href="#STIXGeneral-Regular-68" transform="translate(844.399734 0)"/>
     <use xlink:href="#STIXGeneral-Regular-5f" transform="translate(894.399719 0)"/>
     <use xlink:href="#STIXGeneral-Regular-63" transform="translate(944.399704 0)"/>
     <use xlink:href="#STIXGeneral-Regular-61" transform="translate(988.799698 0)"/>
     <use xlink:href="#STIXGeneral-Regular-70" transform="translate(1033.199692 0)"/>
     <use xlink:href="#STIXGeneral-Regular-61" transform="translate(1083.199677 0)"/>
     <use xlink:href="#STIXGeneral-Regular-63" transform="translate(1127.59967 0)"/>
     <use xlink:href="#STIXGeneral-Regular-69" transform="translate(1171.999664 0)"/>
     <use xlink:href="#STIXGeneral-Regular-74" transform="translate(1199.799652 0)"/>
     <use xlink:href="#STIXGeneral-Regular-61" transform="translate(1227.59964 0)"/>
     <use xlink:href="#STIXGeneral-Regular-6e" transform="translate(1271.999634 0)"/>
     <use xlink:href="#STIXGeneral-Regular-63" transform="translate(1321.999619 0)"/>
     <use xlink:href="#STIXGeneral-Regular-65" transform="translate(1366.399612 0)"/>
    </g>
   </g>
   <g id="legend_1">
    <g id="patch_7">
     <path d="M 443.28125 33.90025 
L 524.42 33.90025 
Q 526.02 33.90025 526.02 32.30025 
L 526.02 21.7565 
Q 526.02 20.1565 524.42 20.1565 
L 443.28125 20.1565 
Q 441.68125 20.1565 441.68125 21.7565 
L 441.68125 32.30025 
Q 441.68125 33.90025 443.28125 33.90025 
z
" style="fill: #ffffff; opacity: 0.95; stroke: #cccccc; stroke-linejoin: miter"/>
    </g>
    <g id="line2d_179">
     <path d="M 444.88125 26.1565 
L 452.88125 26.1565 
L 460.88125 26.1565 
" style="fill: none; stroke: #0c5da5; stroke-linecap: square"/>
    </g>
    <g id="text_22">
     <!-- high_capacitance -->
     <g transform="translate(467.28125 28.9565) scale(0.08 -0.08)">
      <use xlink:href="#STIXGeneral-Regular-68"/>
      <use xlink:href="#STIXGeneral-Regular-69" transform="translate(49.999985 0)"/>
      <use xlink:href="#STIXGeneral-Regular-67" transform="translate(77.799973 0)"/>
      <use xlink:href="#STIXGeneral-Regular-68" transform="translate(127.799957 0)"/>
      <use xlink:href="#STIXGeneral-Regular-5f" transform="translate(177.799942 0)"/>
      <use xlink:href="#STIXGeneral-Regular-63" transform="translate(227.799927 0)"/>
      <use xlink:href="#STIXGeneral-Regular-61" transform="translate(272.199921 0)"/>
      <use xlink:href="#STIXGeneral-Regular-70" transform="translate(316.599915 0)"/>
      <use xlink:href="#STIXGeneral-Regular-61" transform="translate(366.599899 0)"/>
      <use xlink:href="#STIXGeneral-Regular-63" transform="translate(410.999893 0)"/>
      <use xlink:href="#STIXGeneral-Regular-69" transform="translate(455.399887 0)"/>
      <use xlink:href="#STIXGeneral-Regular-74" transform="translate(483.199875 0)"/>
      <use xlink:href="#STIXGeneral-Regular-61" transform="translate(510.999863 0)"/>
      <use xlink:href="#STIXGeneral-Regular-6e" transform="translate(555.399857 0)"/>
      <use xlink:href="#STIXGeneral-Regular-63" transform="translate(605.399841 0)"/>
      <use xlink:href="#STIXGeneral-Regular-65" transform="translate(649.799835 0)"/>
     </g>
    </g>
   </g>
  </g>
 </g>
 <defs>
  <clipPath id="p54a924e00f">
   <rect x="27.82" y="16.1565" width="502.2" height="249.48"/>
  </clipPath>
 </defs>
</svg>
