<?xml version="1.0" encoding="utf-8" standalone="no"?>
<!DOCTYPE svg PUBLIC "-//W3C//DTD SVG 1.1//EN"
  "http://www.w3.org/Graphics/SVG/1.1/DTD/svg11.dtd">
<svg xmlns:xlink="http://www.w3.org/1999/xlink" width="538.62pt" height="291.1365pt" viewBox="0 0 538.62 291.1365" xmlns="http://www.w3.org/2000/svg" version="1.1">
 <metadata>
  <rdf:RDF xmlns:dc="http://purl.org/dc/elements/1.1/" xmlns:cc="http://creativecommons.org/ns#" xmlns:rdf="http://www.w3.org/1999/02/22-rdf-syntax-ns#">
   <cc:Work>
    <dc:type rdf:resource="http://purl.org/dc/dcmitype/StillImage"/>
    <dc:date>2026-06-07T13:54:40.908182</dc:date>
    <dc:format>image/svg+xml</dc:format>
    <dc:creator>
     <cc:Agent>
      <dc:title>Matplotlib v3.10.9, https://matplotlib.org/</dc:title>
     </cc:Agent>
    </dc:creator>
   </cc:Work>
  </rdf:RDF>
 </metadata>
 <defs>
  <style type="text/css">*{stroke-linejoin: round; stroke-linecap: butt}</style>
 </defs>
 <g id="figure_1">
  <g id="patch_1">
   <path d="M 0 291.1365 
L 538.62 291.1365 
L 538.62 0 
L 0 0 
z
" style="fill: #ffffff"/>
  </g>
  <g id="axes_1">
   <g id="patch_2">
    <path d="M 27.82 265.6365 
L 530.02 265.6365 
L 530.02 16.1565 
L 27.82 16.1565 
z
" style="fill: #ffffff"/>
   </g>
   <g id="matplotlib.axis_1">
    <g id="xtick_1">
     <g id="line2d_1">
      <path d="M 27.82 265.6365 
L 27.82 16.1565 
" clip-path="url(#p8d2b20a7c9)" style="fill: none; stroke-dasharray: 2.96,1.28; stroke-dashoffset: 0; stroke: #b0b0b0; stroke-opacity: 0.3; stroke-width: 0.8"/>
     </g>
     <g id="line2d_2">
      <defs>
       <path id="mda58b9ef35" d="M 0 0 
L 0 -3 
" style="stroke: #000000; stroke-width: 0.5"/>
      </defs>
      <g>
       <use xlink:href="#mda58b9ef35" x="27.82" y="265.6365" style="stroke: #000000; stroke-width: 0.5"/>
      </g>
     </g>
     <g id="line2d_3">
      <defs>
       <path id="m53922f25e2" d="M 0 0 
L 0 3 
" style="stroke: #000000; stroke-width: 0.5"/>
      </defs>
      <g>
       <use xlink:href="#m53922f25e2" x="27.82" y="16.1565" style="stroke: #000000; stroke-width: 0.5"/>
      </g>
     </g>
     <g id="text_1">
      <!-- $\mathdefault{0.0}$ -->
      <g transform="translate(22.82 274.60025) scale(0.08 -0.08)">
       <defs>
        <path id="STIXGeneral-Regular-30" d="M 3046 2112 
Q 3046 1683 2963 1302 
Q 2880 922 2717 602 
Q 2554 282 2266 96 
Q 1978 -90 1600 -90 
Q 1210 -90 915 108 
Q 621 307 461 640 
Q 301 973 227 1350 
Q 154 1728 154 2150 
Q 154 2746 301 3222 
Q 448 3699 790 4012 
Q 1133 4326 1626 4326 
Q 2253 4326 2649 3712 
Q 3046 3098 3046 2112 
z
M 2432 2080 
Q 2432 3091 2217 3625 
Q 2003 4160 1587 4160 
Q 1190 4160 979 3622 
Q 768 3085 768 2106 
Q 768 1120 979 598 
Q 1190 77 1600 77 
Q 2003 77 2217 598 
Q 2432 1120 2432 2080 
z
" transform="scale(0.015625)"/>
        <path id="STIXGeneral-Regular-2e" d="M 1158 275 
Q 1158 134 1052 32 
Q 947 -70 800 -70 
Q 653 -70 550 32 
Q 448 134 448 281 
Q 448 429 553 534 
Q 659 640 806 640 
Q 947 640 1052 531 
Q 1158 422 1158 275 
z
" transform="scale(0.015625)"/>
       </defs>
       <use xlink:href="#STIXGeneral-Regular-30" transform="translate(0 0.40625)"/>
       <use xlink:href="#STIXGeneral-Regular-2e" transform="translate(49.999985 0.40625)"/>
       <use xlink:href="#STIXGeneral-Regular-30" transform="translate(74.999969 0.40625)"/>
      </g>
     </g>
    </g>
    <g id="xtick_2">
     <g id="line2d_4">
      <path d="M 90.595 265.6365 
L 90.595 16.1565 
" clip-path="url(#p8d2b20a7c9)" style="fill: none; stroke-dasharray: 2.96,1.28; stroke-dashoffset: 0; stroke: #b0b0b0; stroke-opacity: 0.3; stroke-width: 0.8"/>
     </g>
     <g id="line2d_5">
      <g>
       <use xlink:href="#mda58b9ef35" x="90.595" y="265.6365" style="stroke: #000000; stroke-width: 0.5"/>
      </g>
     </g>
     <g id="line2d_6">
      <g>
       <use xlink:href="#m53922f25e2" x="90.595" y="16.1565" style="stroke: #000000; stroke-width: 0.5"/>
      </g>
     </g>
     <g id="text_2">
      <!-- $\mathdefault{0.5}$ -->
      <g transform="translate(85.595 274.60025) scale(0.08 -0.08)">
       <defs>
        <path id="STIXGeneral-Regular-35" d="M 2803 4358 
L 2573 3814 
Q 2534 3731 2400 3731 
L 1158 3731 
L 902 3187 
Q 1606 3053 1920 2896 
Q 2234 2739 2502 2368 
Q 2726 2061 2726 1555 
Q 2726 1094 2576 780 
Q 2426 467 2099 224 
Q 1664 -90 1011 -90 
Q 646 -90 422 19 
Q 198 128 198 307 
Q 198 550 486 550 
Q 717 550 960 352 
Q 1210 147 1414 147 
Q 1747 147 2012 480 
Q 2278 813 2278 1229 
Q 2278 1843 1850 2189 
Q 1293 2637 486 2637 
Q 410 2637 410 2688 
L 416 2720 
L 1114 4237 
L 2438 4237 
Q 2547 4237 2608 4269 
Q 2669 4301 2746 4403 
L 2803 4358 
z
" transform="scale(0.015625)"/>
       </defs>
       <use xlink:href="#STIXGeneral-Regular-30" transform="translate(0 0.203125)"/>
       <use xlink:href="#STIXGeneral-Regular-2e" transform="translate(49.999985 0.203125)"/>
       <use xlink:href="#STIXGeneral-Regular-35" transform="translate(74.999969 0.203125)"/>
      </g>
     </g>
    </g>
    <g id="xtick_3">
     <g id="line2d_7">
      <path d="M 153.37 265.6365 
L 153.37 16.1565 
" clip-path="url(#p8d2b20a7c9)" style="fill: none; stroke-dasharray: 2.96,1.28; stroke-dashoffset: 0; stroke: #b0b0b0; stroke-opacity: 0.3; stroke-width: 0.8"/>
     </g>
     <g id="line2d_8">
      <g>
       <use xlink:href="#mda58b9ef35" x="153.37" y="265.6365" style="stroke: #000000; stroke-width: 0.5"/>
      </g>
     </g>
     <g id="line2d_9">
      <g>
       <use xlink:href="#m53922f25e2" x="153.37" y="16.1565" style="stroke: #000000; stroke-width: 0.5"/>
      </g>
     </g>
     <g id="text_3">
      <!-- $\mathdefault{1.0}$ -->
      <g transform="translate(148.37 274.60025) scale(0.08 -0.08)">
       <defs>
        <path id="STIXGeneral-Regular-31" d="M 2522 0 
L 755 0 
L 755 96 
Q 1107 115 1235 227 
Q 1363 339 1363 608 
L 1363 3482 
Q 1363 3795 1171 3795 
Q 1082 3795 883 3718 
L 710 3654 
L 710 3744 
L 1856 4326 
L 1914 4307 
L 1914 486 
Q 1914 275 2042 185 
Q 2170 96 2522 96 
L 2522 0 
z
" transform="scale(0.015625)"/>
       </defs>
       <use xlink:href="#STIXGeneral-Regular-31" transform="translate(0 0.40625)"/>
       <use xlink:href="#STIXGeneral-Regular-2e" transform="translate(49.999985 0.40625)"/>
       <use xlink:href="#STIXGeneral-Regular-30" transform="translate(74.999969 0.40625)"/>
      </g>
     </g>
    </g>
    <g id="xtick_4">
     <g id="line2d_10">
      <path d="M 216.145 265.6365 
L 216.145 16.1565 
" clip-path="url(#p8d2b20a7c9)" style="fill: none; stroke-dasharray: 2.96,1.28; stroke-dashoffset: 0; stroke: #b0b0b0; stroke-opacity: 0.3; stroke-width: 0.8"/>
     </g>
     <g id="line2d_11">
      <g>
       <use xlink:href="#mda58b9ef35" x="216.145" y="265.6365" style="stroke: #000000; stroke-width: 0.5"/>
      </g>
     </g>
     <g id="line2d_12">
      <g>
       <use xlink:href="#m53922f25e2" x="216.145" y="16.1565" style="stroke: #000000; stroke-width: 0.5"/>
      </g>
     </g>
     <g id="text_4">
      <!-- $\mathdefault{1.5}$ -->
      <g transform="translate(211.145 274.60025) scale(0.08 -0.08)">
       <use xlink:href="#STIXGeneral-Regular-31" transform="translate(0 0.203125)"/>
       <use xlink:href="#STIXGeneral-Regular-2e" transform="translate(49.999985 0.203125)"/>
       <use xlink:href="#STIXGeneral-Regular-35" transform="translate(74.999969 0.203125)"/>
      </g>
     </g>
    </g>
    <g id="xtick_5">
     <g id="line2d_13">
      <path d="M 278.92 265.6365 
L 278.92 16.1565 
" clip-path="url(#p8d2b20a7c9)" style="fill: none; stroke-dasharray: 2.96,1.28; stroke-dashoffset: 0; stroke: #b0b0b0; stroke-opacity: 0.3; stroke-width: 0.8"/>
     </g>
     <g id="line2d_14">
      <g>
       <use xlink:href="#mda58b9ef35" x="278.92" y="265.6365" style="stroke: #000000; stroke-width: 0.5"/>
      </g>
     </g>
     <g id="line2d_15">
      <g>
       <use xlink:href="#m53922f25e2" x="278.92" y="16.1565" style="stroke: #000000; stroke-width: 0.5"/>
      </g>
     </g>
     <g id="text_5">
      <!-- $\mathdefault{2.0}$ -->
      <g transform="translate(273.92 274.60025) scale(0.08 -0.08)">
       <defs>
        <path id="STIXGeneral-Regular-32" d="M 3034 877 
L 2688 0 
L 186 0 
L 186 77 
L 1325 1286 
Q 1773 1754 1965 2144 
Q 2157 2534 2157 2950 
Q 2157 3379 1920 3616 
Q 1683 3853 1267 3853 
Q 922 3853 720 3673 
Q 518 3494 326 3021 
L 192 3053 
Q 301 3648 630 3987 
Q 960 4326 1523 4326 
Q 2054 4326 2380 4006 
Q 2707 3686 2707 3200 
Q 2707 2477 1888 1613 
L 832 486 
L 2330 486 
Q 2541 486 2665 569 
Q 2790 653 2944 915 
L 3034 877 
z
" transform="scale(0.015625)"/>
       </defs>
       <use xlink:href="#STIXGeneral-Regular-32" transform="translate(0 0.40625)"/>
       <use xlink:href="#STIXGeneral-Regular-2e" transform="translate(49.999985 0.40625)"/>
       <use xlink:href="#STIXGeneral-Regular-30" transform="translate(74.999969 0.40625)"/>
      </g>
     </g>
    </g>
    <g id="xtick_6">
     <g id="line2d_16">
      <path d="M 341.695 265.6365 
L 341.695 16.1565 
" clip-path="url(#p8d2b20a7c9)" style="fill: none; stroke-dasharray: 2.96,1.28; stroke-dashoffset: 0; stroke: #b0b0b0; stroke-opacity: 0.3; stroke-width: 0.8"/>
     </g>
     <g id="line2d_17">
      <g>
       <use xlink:href="#mda58b9ef35" x="341.695" y="265.6365" style="stroke: #000000; stroke-width: 0.5"/>
      </g>
     </g>
     <g id="line2d_18">
      <g>
       <use xlink:href="#m53922f25e2" x="341.695" y="16.1565" style="stroke: #000000; stroke-width: 0.5"/>
      </g>
     </g>
     <g id="text_6">
      <!-- $\mathdefault{2.5}$ -->
      <g transform="translate(336.695 274.60025) scale(0.08 -0.08)">
       <use xlink:href="#STIXGeneral-Regular-32" transform="translate(0 0.203125)"/>
       <use xlink:href="#STIXGeneral-Regular-2e" transform="translate(49.999985 0.203125)"/>
       <use xlink:href="#STIXGeneral-Regular-35" transform="translate(74.999969 0.203125)"/>
      </g>
     </g>
    </g>
    <g id="xtick_7">
     <g id="line2d_19">
      <path d="M 404.47 265.6365 
L 404.47 16.1565 
" clip-path="url(#p8d2b20a7c9)" style="fill: none; stroke-dasharray: 2.96,1.28; stroke-dashoffset: 0; stroke: #b0b0b0; stroke-opacity: 0.3; stroke-width: 0.8"/>
     </g>
     <g id="line2d_20">
      <g>
       <use xlink:href="#mda58b9ef35" x="404.47" y="265.6365" style="stroke: #000000; stroke-width: 0.5"/>
      </g>
     </g>
     <g id="line2d_21">
      <g>
       <use xlink:href="#m53922f25e2" x="404.47" y="16.1565" style="stroke: #000000; stroke-width: 0.5"/>
      </g>
     </g>
     <g id="text_7">
      <!-- $\mathdefault{3.0}$ -->
      <g transform="translate(399.47 274.60025) scale(0.08 -0.08)">
       <defs>
        <path id="STIXGeneral-Regular-33" d="M 390 3264 
L 288 3290 
Q 435 3770 748 4048 
Q 1062 4326 1542 4326 
Q 1990 4326 2265 4083 
Q 2541 3840 2541 3450 
Q 2541 2925 1946 2566 
Q 2298 2413 2477 2227 
Q 2758 1914 2758 1402 
Q 2758 890 2464 506 
Q 2246 211 1840 60 
Q 1434 -90 979 -90 
Q 262 -90 262 275 
Q 262 378 339 442 
Q 416 506 525 506 
Q 685 506 915 339 
Q 1197 141 1466 141 
Q 1818 141 2058 425 
Q 2298 710 2298 1120 
Q 2298 1856 1632 2048 
Q 1434 2112 979 2112 
L 979 2202 
Q 1338 2323 1517 2432 
Q 2035 2726 2035 3290 
Q 2035 3610 1852 3776 
Q 1670 3942 1344 3942 
Q 768 3942 390 3264 
z
" transform="scale(0.015625)"/>
       </defs>
       <use xlink:href="#STIXGeneral-Regular-33" transform="translate(0 0.40625)"/>
       <use xlink:href="#STIXGeneral-Regular-2e" transform="translate(49.999985 0.40625)"/>
       <use xlink:href="#STIXGeneral-Regular-30" transform="translate(74.999969 0.40625)"/>
      </g>
     </g>
    </g>
    <g id="xtick_8">
     <g id="line2d_22">
      <path d="M 467.245 265.6365 
L 467.245 16.1565 
" clip-path="url(#p8d2b20a7c9)" style="fill: none; stroke-dasharray: 2.96,1.28; stroke-dashoffset: 0; stroke: #b0b0b0; stroke-opacity: 0.3; stroke-width: 0.8"/>
     </g>
     <g id="line2d_23">
      <g>
       <use xlink:href="#mda58b9ef35" x="467.245" y="265.6365" style="stroke: #000000; stroke-width: 0.5"/>
      </g>
     </g>
     <g id="line2d_24">
      <g>
       <use xlink:href="#m53922f25e2" x="467.245" y="16.1565" style="stroke: #000000; stroke-width: 0.5"/>
      </g>
     </g>
     <g id="text_8">
      <!-- $\mathdefault{3.5}$ -->
      <g transform="translate(462.245 274.60025) scale(0.08 -0.08)">
       <use xlink:href="#STIXGeneral-Regular-33" transform="translate(0 0.203125)"/>
       <use xlink:href="#STIXGeneral-Regular-2e" transform="translate(49.999985 0.203125)"/>
       <use xlink:href="#STIXGeneral-Regular-35" transform="translate(74.999969 0.203125)"/>
      </g>
     </g>
    </g>
    <g id="xtick_9">
     <g id="line2d_25">
      <path d="M 530.02 265.6365 
L 530.02 16.1565 
" clip-path="url(#p8d2b20a7c9)" style="fill: none; stroke-dasharray: 2.96,1.28; stroke-dashoffset: 0; stroke: #b0b0b0; stroke-opacity: 0.3; stroke-width: 0.8"/>
     </g>
     <g id="line2d_26">
      <g>
       <use xlink:href="#mda58b9ef35" x="530.02" y="265.6365" style="stroke: #000000; stroke-width: 0.5"/>
      </g>
     </g>
     <g id="line2d_27">
      <g>
       <use xlink:href="#m53922f25e2" x="530.02" y="16.1565" style="stroke: #000000; stroke-width: 0.5"/>
      </g>
     </g>
     <g id="text_9">
      <!-- $\mathdefault{4.0}$ -->
      <g transform="translate(525.02 274.60025) scale(0.08 -0.08)">
       <defs>
        <path id="STIXGeneral-Regular-34" d="M 3027 1069 
L 2368 1069 
L 2368 0 
L 1869 0 
L 1869 1069 
L 77 1069 
L 77 1478 
L 2086 4326 
L 2368 4326 
L 2368 1478 
L 3027 1478 
L 3027 1069 
z
M 1869 1478 
L 1869 3674 
L 333 1478 
L 1869 1478 
z
" transform="scale(0.015625)"/>
       </defs>
       <use xlink:href="#STIXGeneral-Regular-34" transform="translate(0 0.40625)"/>
       <use xlink:href="#STIXGeneral-Regular-2e" transform="translate(49.999985 0.40625)"/>
       <use xlink:href="#STIXGeneral-Regular-30" transform="translate(74.999969 0.40625)"/>
      </g>
     </g>
    </g>
    <g id="xtick_10">
     <g id="line2d_28">
      <defs>
       <path id="ma1085d0fa8" d="M 0 0 
L 0 -1.5 
" style="stroke: #000000; stroke-width: 0.5"/>
      </defs>
      <g>
       <use xlink:href="#ma1085d0fa8" x="40.375" y="265.6365" style="stroke: #000000; stroke-width: 0.5"/>
      </g>
     </g>
     <g id="line2d_29">
      <defs>
       <path id="m60cc796884" d="M 0 0 
L 0 1.5 
" style="stroke: #000000; stroke-width: 0.5"/>
      </defs>
      <g>
       <use xlink:href="#m60cc796884" x="40.375" y="16.1565" style="stroke: #000000; stroke-width: 0.5"/>
      </g>
     </g>
    </g>
    <g id="xtick_11">
     <g id="line2d_30">
      <g>
       <use xlink:href="#ma1085d0fa8" x="52.93" y="265.6365" style="stroke: #000000; stroke-width: 0.5"/>
      </g>
     </g>
     <g id="line2d_31">
      <g>
       <use xlink:href="#m60cc796884" x="52.93" y="16.1565" style="stroke: #000000; stroke-width: 0.5"/>
      </g>
     </g>
    </g>
    <g id="xtick_12">
     <g id="line2d_32">
      <g>
       <use xlink:href="#ma1085d0fa8" x="65.485" y="265.6365" style="stroke: #000000; stroke-width: 0.5"/>
      </g>
     </g>
     <g id="line2d_33">
      <g>
       <use xlink:href="#m60cc796884" x="65.485" y="16.1565" style="stroke: #000000; stroke-width: 0.5"/>
      </g>
     </g>
    </g>
    <g id="xtick_13">
     <g id="line2d_34">
      <g>
       <use xlink:href="#ma1085d0fa8" x="78.04" y="265.6365" style="stroke: #000000; stroke-width: 0.5"/>
      </g>
     </g>
     <g id="line2d_35">
      <g>
       <use xlink:href="#m60cc796884" x="78.04" y="16.1565" style="stroke: #000000; stroke-width: 0.5"/>
      </g>
     </g>
    </g>
    <g id="xtick_14">
     <g id="line2d_36">
      <g>
       <use xlink:href="#ma1085d0fa8" x="103.15" y="265.6365" style="stroke: #000000; stroke-width: 0.5"/>
      </g>
     </g>
     <g id="line2d_37">
      <g>
       <use xlink:href="#m60cc796884" x="103.15" y="16.1565" style="stroke: #000000; stroke-width: 0.5"/>
      </g>
     </g>
    </g>
    <g id="xtick_15">
     <g id="line2d_38">
      <g>
       <use xlink:href="#ma1085d0fa8" x="115.705" y="265.6365" style="stroke: #000000; stroke-width: 0.5"/>
      </g>
     </g>
     <g id="line2d_39">
      <g>
       <use xlink:href="#m60cc796884" x="115.705" y="16.1565" style="stroke: #000000; stroke-width: 0.5"/>
      </g>
     </g>
    </g>
    <g id="xtick_16">
     <g id="line2d_40">
      <g>
       <use xlink:href="#ma1085d0fa8" x="128.26" y="265.6365" style="stroke: #000000; stroke-width: 0.5"/>
      </g>
     </g>
     <g id="line2d_41">
      <g>
       <use xlink:href="#m60cc796884" x="128.26" y="16.1565" style="stroke: #000000; stroke-width: 0.5"/>
      </g>
     </g>
    </g>
    <g id="xtick_17">
     <g id="line2d_42">
      <g>
       <use xlink:href="#ma1085d0fa8" x="140.815" y="265.6365" style="stroke: #000000; stroke-width: 0.5"/>
      </g>
     </g>
     <g id="line2d_43">
      <g>
       <use xlink:href="#m60cc796884" x="140.815" y="16.1565" style="stroke: #000000; stroke-width: 0.5"/>
      </g>
     </g>
    </g>
    <g id="xtick_18">
     <g id="line2d_44">
      <g>
       <use xlink:href="#ma1085d0fa8" x="165.925" y="265.6365" style="stroke: #000000; stroke-width: 0.5"/>
      </g>
     </g>
     <g id="line2d_45">
      <g>
       <use xlink:href="#m60cc796884" x="165.925" y="16.1565" style="stroke: #000000; stroke-width: 0.5"/>
      </g>
     </g>
    </g>
    <g id="xtick_19">
     <g id="line2d_46">
      <g>
       <use xlink:href="#ma1085d0fa8" x="178.48" y="265.6365" style="stroke: #000000; stroke-width: 0.5"/>
      </g>
     </g>
     <g id="line2d_47">
      <g>
       <use xlink:href="#m60cc796884" x="178.48" y="16.1565" style="stroke: #000000; stroke-width: 0.5"/>
      </g>
     </g>
    </g>
    <g id="xtick_20">
     <g id="line2d_48">
      <g>
       <use xlink:href="#ma1085d0fa8" x="191.035" y="265.6365" style="stroke: #000000; stroke-width: 0.5"/>
      </g>
     </g>
     <g id="line2d_49">
      <g>
       <use xlink:href="#m60cc796884" x="191.035" y="16.1565" style="stroke: #000000; stroke-width: 0.5"/>
      </g>
     </g>
    </g>
    <g id="xtick_21">
     <g id="line2d_50">
      <g>
       <use xlink:href="#ma1085d0fa8" x="203.59" y="265.6365" style="stroke: #000000; stroke-width: 0.5"/>
      </g>
     </g>
     <g id="line2d_51">
      <g>
       <use xlink:href="#m60cc796884" x="203.59" y="16.1565" style="stroke: #000000; stroke-width: 0.5"/>
      </g>
     </g>
    </g>
    <g id="xtick_22">
     <g id="line2d_52">
      <g>
       <use xlink:href="#ma1085d0fa8" x="228.7" y="265.6365" style="stroke: #000000; stroke-width: 0.5"/>
      </g>
     </g>
     <g id="line2d_53">
      <g>
       <use xlink:href="#m60cc796884" x="228.7" y="16.1565" style="stroke: #000000; stroke-width: 0.5"/>
      </g>
     </g>
    </g>
    <g id="xtick_23">
     <g id="line2d_54">
      <g>
       <use xlink:href="#ma1085d0fa8" x="241.255" y="265.6365" style="stroke: #000000; stroke-width: 0.5"/>
      </g>
     </g>
     <g id="line2d_55">
      <g>
       <use xlink:href="#m60cc796884" x="241.255" y="16.1565" style="stroke: #000000; stroke-width: 0.5"/>
      </g>
     </g>
    </g>
    <g id="xtick_24">
     <g id="line2d_56">
      <g>
       <use xlink:href="#ma1085d0fa8" x="253.81" y="265.6365" style="stroke: #000000; stroke-width: 0.5"/>
      </g>
     </g>
     <g id="line2d_57">
      <g>
       <use xlink:href="#m60cc796884" x="253.81" y="16.1565" style="stroke: #000000; stroke-width: 0.5"/>
      </g>
     </g>
    </g>
    <g id="xtick_25">
     <g id="line2d_58">
      <g>
       <use xlink:href="#ma1085d0fa8" x="266.365" y="265.6365" style="stroke: #000000; stroke-width: 0.5"/>
      </g>
     </g>
     <g id="line2d_59">
      <g>
       <use xlink:href="#m60cc796884" x="266.365" y="16.1565" style="stroke: #000000; stroke-width: 0.5"/>
      </g>
     </g>
    </g>
    <g id="xtick_26">
     <g id="line2d_60">
      <g>
       <use xlink:href="#ma1085d0fa8" x="291.475" y="265.6365" style="stroke: #000000; stroke-width: 0.5"/>
      </g>
     </g>
     <g id="line2d_61">
      <g>
       <use xlink:href="#m60cc796884" x="291.475" y="16.1565" style="stroke: #000000; stroke-width: 0.5"/>
      </g>
     </g>
    </g>
    <g id="xtick_27">
     <g id="line2d_62">
      <g>
       <use xlink:href="#ma1085d0fa8" x="304.03" y="265.6365" style="stroke: #000000; stroke-width: 0.5"/>
      </g>
     </g>
     <g id="line2d_63">
      <g>
       <use xlink:href="#m60cc796884" x="304.03" y="16.1565" style="stroke: #000000; stroke-width: 0.5"/>
      </g>
     </g>
    </g>
    <g id="xtick_28">
     <g id="line2d_64">
      <g>
       <use xlink:href="#ma1085d0fa8" x="316.585" y="265.6365" style="stroke: #000000; stroke-width: 0.5"/>
      </g>
     </g>
     <g id="line2d_65">
      <g>
       <use xlink:href="#m60cc796884" x="316.585" y="16.1565" style="stroke: #000000; stroke-width: 0.5"/>
      </g>
     </g>
    </g>
    <g id="xtick_29">
     <g id="line2d_66">
      <g>
       <use xlink:href="#ma1085d0fa8" x="329.14" y="265.6365" style="stroke: #000000; stroke-width: 0.5"/>
      </g>
     </g>
     <g id="line2d_67">
      <g>
       <use xlink:href="#m60cc796884" x="329.14" y="16.1565" style="stroke: #000000; stroke-width: 0.5"/>
      </g>
     </g>
    </g>
    <g id="xtick_30">
     <g id="line2d_68">
      <g>
       <use xlink:href="#ma1085d0fa8" x="354.25" y="265.6365" style="stroke: #000000; stroke-width: 0.5"/>
      </g>
     </g>
     <g id="line2d_69">
      <g>
       <use xlink:href="#m60cc796884" x="354.25" y="16.1565" style="stroke: #000000; stroke-width: 0.5"/>
      </g>
     </g>
    </g>
    <g id="xtick_31">
     <g id="line2d_70">
      <g>
       <use xlink:href="#ma1085d0fa8" x="366.805" y="265.6365" style="stroke: #000000; stroke-width: 0.5"/>
      </g>
     </g>
     <g id="line2d_71">
      <g>
       <use xlink:href="#m60cc796884" x="366.805" y="16.1565" style="stroke: #000000; stroke-width: 0.5"/>
      </g>
     </g>
    </g>
    <g id="xtick_32">
     <g id="line2d_72">
      <g>
       <use xlink:href="#ma1085d0fa8" x="379.36" y="265.6365" style="stroke: #000000; stroke-width: 0.5"/>
      </g>
     </g>
     <g id="line2d_73">
      <g>
       <use xlink:href="#m60cc796884" x="379.36" y="16.1565" style="stroke: #000000; stroke-width: 0.5"/>
      </g>
     </g>
    </g>
    <g id="xtick_33">
     <g id="line2d_74">
      <g>
       <use xlink:href="#ma1085d0fa8" x="391.915" y="265.6365" style="stroke: #000000; stroke-width: 0.5"/>
      </g>
     </g>
     <g id="line2d_75">
      <g>
       <use xlink:href="#m60cc796884" x="391.915" y="16.1565" style="stroke: #000000; stroke-width: 0.5"/>
      </g>
     </g>
    </g>
    <g id="xtick_34">
     <g id="line2d_76">
      <g>
       <use xlink:href="#ma1085d0fa8" x="417.025" y="265.6365" style="stroke: #000000; stroke-width: 0.5"/>
      </g>
     </g>
     <g id="line2d_77">
      <g>
       <use xlink:href="#m60cc796884" x="417.025" y="16.1565" style="stroke: #000000; stroke-width: 0.5"/>
      </g>
     </g>
    </g>
    <g id="xtick_35">
     <g id="line2d_78">
      <g>
       <use xlink:href="#ma1085d0fa8" x="429.58" y="265.6365" style="stroke: #000000; stroke-width: 0.5"/>
      </g>
     </g>
     <g id="line2d_79">
      <g>
       <use xlink:href="#m60cc796884" x="429.58" y="16.1565" style="stroke: #000000; stroke-width: 0.5"/>
      </g>
     </g>
    </g>
    <g id="xtick_36">
     <g id="line2d_80">
      <g>
       <use xlink:href="#ma1085d0fa8" x="442.135" y="265.6365" style="stroke: #000000; stroke-width: 0.5"/>
      </g>
     </g>
     <g id="line2d_81">
      <g>
       <use xlink:href="#m60cc796884" x="442.135" y="16.1565" style="stroke: #000000; stroke-width: 0.5"/>
      </g>
     </g>
    </g>
    <g id="xtick_37">
     <g id="line2d_82">
      <g>
       <use xlink:href="#ma1085d0fa8" x="454.69" y="265.6365" style="stroke: #000000; stroke-width: 0.5"/>
      </g>
     </g>
     <g id="line2d_83">
      <g>
       <use xlink:href="#m60cc796884" x="454.69" y="16.1565" style="stroke: #000000; stroke-width: 0.5"/>
      </g>
     </g>
    </g>
    <g id="xtick_38">
     <g id="line2d_84">
      <g>
       <use xlink:href="#ma1085d0fa8" x="479.8" y="265.6365" style="stroke: #000000; stroke-width: 0.5"/>
      </g>
     </g>
     <g id="line2d_85">
      <g>
       <use xlink:href="#m60cc796884" x="479.8" y="16.1565" style="stroke: #000000; stroke-width: 0.5"/>
      </g>
     </g>
    </g>
    <g id="xtick_39">
     <g id="line2d_86">
      <g>
       <use xlink:href="#ma1085d0fa8" x="492.355" y="265.6365" style="stroke: #000000; stroke-width: 0.5"/>
      </g>
     </g>
     <g id="line2d_87">
      <g>
       <use xlink:href="#m60cc796884" x="492.355" y="16.1565" style="stroke: #000000; stroke-width: 0.5"/>
      </g>
     </g>
    </g>
    <g id="xtick_40">
     <g id="line2d_88">
      <g>
       <use xlink:href="#ma1085d0fa8" x="504.91" y="265.6365" style="stroke: #000000; stroke-width: 0.5"/>
      </g>
     </g>
     <g id="line2d_89">
      <g>
       <use xlink:href="#m60cc796884" x="504.91" y="16.1565" style="stroke: #000000; stroke-width: 0.5"/>
      </g>
     </g>
    </g>
    <g id="xtick_41">
     <g id="line2d_90">
      <g>
       <use xlink:href="#ma1085d0fa8" x="517.465" y="265.6365" style="stroke: #000000; stroke-width: 0.5"/>
      </g>
     </g>
     <g id="line2d_91">
      <g>
       <use xlink:href="#m60cc796884" x="517.465" y="16.1565" style="stroke: #000000; stroke-width: 0.5"/>
      </g>
     </g>
    </g>
    <g id="text_10">
     <!-- Time (ns) -->
     <g transform="translate(263.25625 285.80025) scale(0.08 -0.08)">
      <defs>
       <path id="STIXGeneral-Regular-54" d="M 3795 3149 
L 3642 3149 
Q 3539 3674 3353 3821 
Q 3168 3968 2656 3968 
L 2278 3968 
L 2278 710 
Q 2278 346 2387 243 
Q 2496 141 2893 122 
L 2893 0 
L 1024 0 
L 1024 122 
Q 1427 147 1526 256 
Q 1626 365 1626 787 
L 1626 3968 
L 1242 3968 
Q 723 3968 540 3817 
Q 358 3667 262 3149 
L 109 3149 
L 154 4237 
L 3750 4237 
L 3795 3149 
z
" transform="scale(0.015625)"/>
       <path id="STIXGeneral-Regular-69" d="M 1152 4045 
Q 1152 3904 1056 3811 
Q 960 3718 819 3718 
Q 685 3718 592 3811 
Q 499 3904 499 4045 
Q 499 4179 595 4275 
Q 691 4371 826 4371 
Q 966 4371 1059 4275 
Q 1152 4179 1152 4045 
z
M 1619 0 
L 102 0 
L 102 96 
Q 435 115 521 211 
Q 608 307 608 666 
L 608 2118 
Q 608 2342 563 2432 
Q 518 2522 397 2522 
Q 243 2522 128 2490 
L 128 2592 
L 1120 2944 
L 1146 2918 
L 1146 672 
Q 1146 314 1226 218 
Q 1306 122 1619 96 
L 1619 0 
z
" transform="scale(0.015625)"/>
       <path id="STIXGeneral-Regular-6d" d="M 4960 0 
L 3565 0 
L 3565 96 
Q 3834 122 3907 208 
Q 3981 294 3981 576 
L 3981 1894 
Q 3981 2278 3869 2444 
Q 3757 2611 3488 2611 
Q 3264 2611 3107 2521 
Q 2950 2432 2803 2221 
L 2803 608 
Q 2803 301 2896 201 
Q 2989 102 3264 96 
L 3264 0 
L 1830 0 
L 1830 96 
Q 2112 115 2189 188 
Q 2266 262 2266 550 
L 2266 1901 
Q 2266 2611 1850 2611 
Q 1670 2611 1468 2531 
Q 1267 2451 1171 2336 
Q 1088 2240 1088 2227 
L 1088 448 
Q 1088 243 1177 176 
Q 1267 109 1523 96 
L 1523 0 
L 102 0 
L 102 96 
Q 371 102 460 195 
Q 550 288 550 563 
L 550 2150 
Q 550 2387 499 2480 
Q 448 2573 326 2573 
Q 230 2573 122 2547 
L 122 2656 
Q 557 2778 1011 2944 
L 1062 2925 
L 1062 2451 
L 1075 2451 
Q 1363 2752 1584 2848 
Q 1805 2944 2054 2944 
Q 2560 2944 2733 2406 
Q 3232 2944 3776 2944 
Q 4518 2944 4518 1792 
L 4518 493 
Q 4518 282 4582 202 
Q 4646 122 4794 109 
L 4960 96 
L 4960 0 
z
" transform="scale(0.015625)"/>
       <path id="STIXGeneral-Regular-65" d="M 2611 1050 
L 2714 1005 
Q 2330 -64 1376 -64 
Q 813 -64 486 329 
Q 160 723 160 1389 
Q 160 2074 525 2509 
Q 890 2944 1485 2944 
Q 2061 2944 2374 2502 
Q 2560 2246 2592 1773 
L 621 1773 
Q 646 1370 700 1158 
Q 755 947 915 730 
Q 1184 378 1626 378 
Q 1939 378 2153 531 
Q 2368 685 2611 1050 
z
M 634 1978 
L 1939 1978 
Q 1882 2381 1750 2547 
Q 1619 2714 1312 2714 
Q 1043 2714 864 2525 
Q 685 2336 634 1978 
z
" transform="scale(0.015625)"/>
       <path id="STIXGeneral-Regular-20" transform="scale(0.015625)"/>
       <path id="STIXGeneral-Regular-28" d="M 1946 -1030 
L 1869 -1133 
Q 1126 -710 716 32 
Q 307 774 307 1613 
Q 307 3386 1888 4326 
L 1946 4224 
Q 1293 3667 1075 3126 
Q 858 2586 858 1632 
Q 858 685 1082 96 
Q 1306 -493 1946 -1030 
z
" transform="scale(0.015625)"/>
       <path id="STIXGeneral-Regular-6e" d="M 3104 0 
L 1773 0 
L 1779 96 
Q 2016 115 2096 233 
Q 2176 352 2176 672 
L 2176 1946 
Q 2176 2592 1709 2592 
Q 1549 2592 1408 2515 
Q 1267 2438 1050 2227 
L 1050 461 
Q 1050 269 1136 192 
Q 1222 115 1466 96 
L 1466 0 
L 115 0 
L 115 96 
Q 358 115 435 214 
Q 512 314 512 602 
L 512 2157 
Q 512 2394 467 2483 
Q 422 2573 288 2573 
Q 160 2573 102 2547 
L 102 2656 
Q 550 2784 979 2944 
L 1030 2925 
L 1030 2426 
L 1037 2426 
Q 1491 2944 1958 2944 
Q 2323 2944 2518 2688 
Q 2714 2432 2714 1958 
L 2714 544 
Q 2714 288 2790 205 
Q 2867 122 3104 96 
L 3104 0 
z
" transform="scale(0.015625)"/>
       <path id="STIXGeneral-Regular-73" d="M 998 1926 
L 1664 1523 
Q 1984 1331 2105 1164 
Q 2227 998 2227 736 
Q 2227 416 1961 176 
Q 1696 -64 1331 -64 
Q 1030 -64 864 -6 
Q 691 51 570 51 
Q 461 51 416 -26 
L 333 -26 
L 333 979 
L 435 979 
Q 538 512 730 294 
Q 922 77 1248 77 
Q 1485 77 1632 211 
Q 1779 346 1779 550 
Q 1779 845 1440 1030 
L 1094 1222 
Q 326 1651 326 2150 
Q 326 2522 566 2730 
Q 806 2938 1210 2938 
Q 1491 2938 1638 2867 
Q 1754 2816 1818 2816 
Q 1862 2816 1920 2880 
L 1990 2880 
L 2022 2010 
L 1926 2010 
Q 1818 2445 1654 2621 
Q 1491 2797 1203 2797 
Q 986 2797 854 2688 
Q 723 2579 723 2362 
Q 723 2253 796 2128 
Q 870 2003 998 1926 
z
" transform="scale(0.015625)"/>
       <path id="STIXGeneral-Regular-29" d="M 186 4224 
L 262 4326 
Q 992 3891 1408 3148 
Q 1824 2406 1824 1581 
Q 1824 -166 243 -1133 
L 186 -1030 
Q 845 -486 1059 54 
Q 1274 595 1274 1562 
Q 1274 2534 1059 3120 
Q 845 3706 186 4224 
z
" transform="scale(0.015625)"/>
      </defs>
      <use xlink:href="#STIXGeneral-Regular-54"/>
      <use xlink:href="#STIXGeneral-Regular-69" transform="translate(61.099991 0)"/>
      <use xlink:href="#STIXGeneral-Regular-6d" transform="translate(88.899979 0)"/>
      <use xlink:href="#STIXGeneral-Regular-65" transform="translate(166.699966 0)"/>
      <use xlink:href="#STIXGeneral-Regular-20" transform="translate(211.09996 0)"/>
      <use xlink:href="#STIXGeneral-Regular-28" transform="translate(236.099945 0)"/>
      <use xlink:href="#STIXGeneral-Regular-6e" transform="translate(269.399933 0)"/>
      <use xlink:href="#STIXGeneral-Regular-73" transform="translate(319.399918 0)"/>
      <use xlink:href="#STIXGeneral-Regular-29" transform="translate(358.299911 0)"/>
     </g>
    </g>
   </g>
   <g id="matplotlib.axis_2">
    <g id="ytick_1">
     <g id="line2d_92">
      <path d="M 27.82 226.064419 
L 530.02 226.064419 
" clip-path="url(#p8d2b20a7c9)" style="fill: none; stroke-dasharray: 2.96,1.28; stroke-dashoffset: 0; stroke: #b0b0b0; stroke-opacity: 0.3; stroke-width: 0.8"/>
     </g>
     <g id="line2d_93">
      <defs>
       <path id="ma820e37b8e" d="M 0 0 
L 3 0 
" style="stroke: #000000; stroke-width: 0.5"/>
      </defs>
      <g>
       <use xlink:href="#ma820e37b8e" x="27.82" y="226.064419" style="stroke: #000000; stroke-width: 0.5"/>
      </g>
     </g>
     <g id="line2d_94">
      <defs>
       <path id="m38f8d54dcf" d="M 0 0 
L -3 0 
" style="stroke: #000000; stroke-width: 0.5"/>
      </defs>
      <g>
       <use xlink:href="#m38f8d54dcf" x="530.02" y="226.064419" style="stroke: #000000; stroke-width: 0.5"/>
      </g>
     </g>
     <g id="text_11">
      <!-- $\mathdefault{−4}$ -->
      <g transform="translate(14.8 228.796294) scale(0.08 -0.08)">
       <defs>
        <path id="STIXGeneral-Regular-2212" d="M 3974 1408 
L 410 1408 
L 410 1830 
L 3974 1830 
L 3974 1408 
z
" transform="scale(0.015625)"/>
       </defs>
       <use xlink:href="#STIXGeneral-Regular-2212" transform="translate(0 0.40625)"/>
       <use xlink:href="#STIXGeneral-Regular-34" transform="translate(68.499985 0.40625)"/>
      </g>
     </g>
    </g>
    <g id="ytick_2">
     <g id="line2d_95">
      <path d="M 27.82 176.530786 
L 530.02 176.530786 
" clip-path="url(#p8d2b20a7c9)" style="fill: none; stroke-dasharray: 2.96,1.28; stroke-dashoffset: 0; stroke: #b0b0b0; stroke-opacity: 0.3; stroke-width: 0.8"/>
     </g>
     <g id="line2d_96">
      <g>
       <use xlink:href="#ma820e37b8e" x="27.82" y="176.530786" style="stroke: #000000; stroke-width: 0.5"/>
      </g>
     </g>
     <g id="line2d_97">
      <g>
       <use xlink:href="#m38f8d54dcf" x="530.02" y="176.530786" style="stroke: #000000; stroke-width: 0.5"/>
      </g>
     </g>
     <g id="text_12">
      <!-- $\mathdefault{−2}$ -->
      <g transform="translate(14.8 179.262661) scale(0.08 -0.08)">
       <use xlink:href="#STIXGeneral-Regular-2212" transform="translate(0 0.40625)"/>
       <use xlink:href="#STIXGeneral-Regular-32" transform="translate(68.499985 0.40625)"/>
      </g>
     </g>
    </g>
    <g id="ytick_3">
     <g id="line2d_98">
      <path d="M 27.82 126.997153 
L 530.02 126.997153 
" clip-path="url(#p8d2b20a7c9)" style="fill: none; stroke-dasharray: 2.96,1.28; stroke-dashoffset: 0; stroke: #b0b0b0; stroke-opacity: 0.3; stroke-width: 0.8"/>
     </g>
     <g id="line2d_99">
      <g>
       <use xlink:href="#ma820e37b8e" x="27.82" y="126.997153" style="stroke: #000000; stroke-width: 0.5"/>
      </g>
     </g>
     <g id="line2d_100">
      <g>
       <use xlink:href="#m38f8d54dcf" x="530.02" y="126.997153" style="stroke: #000000; stroke-width: 0.5"/>
      </g>
     </g>
     <g id="text_13">
      <!-- $\mathdefault{0}$ -->
      <g transform="translate(20.32 129.729028) scale(0.08 -0.08)">
       <use xlink:href="#STIXGeneral-Regular-30" transform="translate(0 0.40625)"/>
      </g>
     </g>
    </g>
    <g id="ytick_4">
     <g id="line2d_101">
      <path d="M 27.82 77.463519 
L 530.02 77.463519 
" clip-path="url(#p8d2b20a7c9)" style="fill: none; stroke-dasharray: 2.96,1.28; stroke-dashoffset: 0; stroke: #b0b0b0; stroke-opacity: 0.3; stroke-width: 0.8"/>
     </g>
     <g id="line2d_102">
      <g>
       <use xlink:href="#ma820e37b8e" x="27.82" y="77.463519" style="stroke: #000000; stroke-width: 0.5"/>
      </g>
     </g>
     <g id="line2d_103">
      <g>
       <use xlink:href="#m38f8d54dcf" x="530.02" y="77.463519" style="stroke: #000000; stroke-width: 0.5"/>
      </g>
     </g>
     <g id="text_14">
      <!-- $\mathdefault{2}$ -->
      <g transform="translate(20.32 80.195394) scale(0.08 -0.08)">
       <use xlink:href="#STIXGeneral-Regular-32" transform="translate(0 0.40625)"/>
      </g>
     </g>
    </g>
    <g id="ytick_5">
     <g id="line2d_104">
      <path d="M 27.82 27.929886 
L 530.02 27.929886 
" clip-path="url(#p8d2b20a7c9)" style="fill: none; stroke-dasharray: 2.96,1.28; stroke-dashoffset: 0; stroke: #b0b0b0; stroke-opacity: 0.3; stroke-width: 0.8"/>
     </g>
     <g id="line2d_105">
      <g>
       <use xlink:href="#ma820e37b8e" x="27.82" y="27.929886" style="stroke: #000000; stroke-width: 0.5"/>
      </g>
     </g>
     <g id="line2d_106">
      <g>
       <use xlink:href="#m38f8d54dcf" x="530.02" y="27.929886" style="stroke: #000000; stroke-width: 0.5"/>
      </g>
     </g>
     <g id="text_15">
      <!-- $\mathdefault{4}$ -->
      <g transform="translate(20.32 30.661761) scale(0.08 -0.08)">
       <use xlink:href="#STIXGeneral-Regular-34" transform="translate(0 0.40625)"/>
      </g>
     </g>
    </g>
    <g id="ytick_6">
     <g id="line2d_107">
      <defs>
       <path id="mccc984eb56" d="M 0 0 
L 1.5 0 
" style="stroke: #000000; stroke-width: 0.5"/>
      </defs>
      <g>
       <use xlink:href="#mccc984eb56" x="27.82" y="263.214644" style="stroke: #000000; stroke-width: 0.5"/>
      </g>
     </g>
     <g id="line2d_108">
      <defs>
       <path id="m65ccf092ad" d="M 0 0 
L -1.5 0 
" style="stroke: #000000; stroke-width: 0.5"/>
      </defs>
      <g>
       <use xlink:href="#m65ccf092ad" x="530.02" y="263.214644" style="stroke: #000000; stroke-width: 0.5"/>
      </g>
     </g>
    </g>
    <g id="ytick_7">
     <g id="line2d_109">
      <g>
       <use xlink:href="#mccc984eb56" x="27.82" y="250.831235" style="stroke: #000000; stroke-width: 0.5"/>
      </g>
     </g>
     <g id="line2d_110">
      <g>
       <use xlink:href="#m65ccf092ad" x="530.02" y="250.831235" style="stroke: #000000; stroke-width: 0.5"/>
      </g>
     </g>
    </g>
    <g id="ytick_8">
     <g id="line2d_111">
      <g>
       <use xlink:href="#mccc984eb56" x="27.82" y="238.447827" style="stroke: #000000; stroke-width: 0.5"/>
      </g>
     </g>
     <g id="line2d_112">
      <g>
       <use xlink:href="#m65ccf092ad" x="530.02" y="238.447827" style="stroke: #000000; stroke-width: 0.5"/>
      </g>
     </g>
    </g>
    <g id="ytick_9">
     <g id="line2d_113">
      <g>
       <use xlink:href="#mccc984eb56" x="27.82" y="213.68101" style="stroke: #000000; stroke-width: 0.5"/>
      </g>
     </g>
     <g id="line2d_114">
      <g>
       <use xlink:href="#m65ccf092ad" x="530.02" y="213.68101" style="stroke: #000000; stroke-width: 0.5"/>
      </g>
     </g>
    </g>
    <g id="ytick_10">
     <g id="line2d_115">
      <g>
       <use xlink:href="#mccc984eb56" x="27.82" y="201.297602" style="stroke: #000000; stroke-width: 0.5"/>
      </g>
     </g>
     <g id="line2d_116">
      <g>
       <use xlink:href="#m65ccf092ad" x="530.02" y="201.297602" style="stroke: #000000; stroke-width: 0.5"/>
      </g>
     </g>
    </g>
    <g id="ytick_11">
     <g id="line2d_117">
      <g>
       <use xlink:href="#mccc984eb56" x="27.82" y="188.914194" style="stroke: #000000; stroke-width: 0.5"/>
      </g>
     </g>
     <g id="line2d_118">
      <g>
       <use xlink:href="#m65ccf092ad" x="530.02" y="188.914194" style="stroke: #000000; stroke-width: 0.5"/>
      </g>
     </g>
    </g>
    <g id="ytick_12">
     <g id="line2d_119">
      <g>
       <use xlink:href="#mccc984eb56" x="27.82" y="164.147377" style="stroke: #000000; stroke-width: 0.5"/>
      </g>
     </g>
     <g id="line2d_120">
      <g>
       <use xlink:href="#m65ccf092ad" x="530.02" y="164.147377" style="stroke: #000000; stroke-width: 0.5"/>
      </g>
     </g>
    </g>
    <g id="ytick_13">
     <g id="line2d_121">
      <g>
       <use xlink:href="#mccc984eb56" x="27.82" y="151.763969" style="stroke: #000000; stroke-width: 0.5"/>
      </g>
     </g>
     <g id="line2d_122">
      <g>
       <use xlink:href="#m65ccf092ad" x="530.02" y="151.763969" style="stroke: #000000; stroke-width: 0.5"/>
      </g>
     </g>
    </g>
    <g id="ytick_14">
     <g id="line2d_123">
      <g>
       <use xlink:href="#mccc984eb56" x="27.82" y="139.380561" style="stroke: #000000; stroke-width: 0.5"/>
      </g>
     </g>
     <g id="line2d_124">
      <g>
       <use xlink:href="#m65ccf092ad" x="530.02" y="139.380561" style="stroke: #000000; stroke-width: 0.5"/>
      </g>
     </g>
    </g>
    <g id="ytick_15">
     <g id="line2d_125">
      <g>
       <use xlink:href="#mccc984eb56" x="27.82" y="114.613744" style="stroke: #000000; stroke-width: 0.5"/>
      </g>
     </g>
     <g id="line2d_126">
      <g>
       <use xlink:href="#m65ccf092ad" x="530.02" y="114.613744" style="stroke: #000000; stroke-width: 0.5"/>
      </g>
     </g>
    </g>
    <g id="ytick_16">
     <g id="line2d_127">
      <g>
       <use xlink:href="#mccc984eb56" x="27.82" y="102.230336" style="stroke: #000000; stroke-width: 0.5"/>
      </g>
     </g>
     <g id="line2d_128">
      <g>
       <use xlink:href="#m65ccf092ad" x="530.02" y="102.230336" style="stroke: #000000; stroke-width: 0.5"/>
      </g>
     </g>
    </g>
    <g id="ytick_17">
     <g id="line2d_129">
      <g>
       <use xlink:href="#mccc984eb56" x="27.82" y="89.846928" style="stroke: #000000; stroke-width: 0.5"/>
      </g>
     </g>
     <g id="line2d_130">
      <g>
       <use xlink:href="#m65ccf092ad" x="530.02" y="89.846928" style="stroke: #000000; stroke-width: 0.5"/>
      </g>
     </g>
    </g>
    <g id="ytick_18">
     <g id="line2d_131">
      <g>
       <use xlink:href="#mccc984eb56" x="27.82" y="65.080111" style="stroke: #000000; stroke-width: 0.5"/>
      </g>
     </g>
     <g id="line2d_132">
      <g>
       <use xlink:href="#m65ccf092ad" x="530.02" y="65.080111" style="stroke: #000000; stroke-width: 0.5"/>
      </g>
     </g>
    </g>
    <g id="ytick_19">
     <g id="line2d_133">
      <g>
       <use xlink:href="#mccc984eb56" x="27.82" y="52.696703" style="stroke: #000000; stroke-width: 0.5"/>
      </g>
     </g>
     <g id="line2d_134">
      <g>
       <use xlink:href="#m65ccf092ad" x="530.02" y="52.696703" style="stroke: #000000; stroke-width: 0.5"/>
      </g>
     </g>
    </g>
    <g id="ytick_20">
     <g id="line2d_135">
      <g>
       <use xlink:href="#mccc984eb56" x="27.82" y="40.313295" style="stroke: #000000; stroke-width: 0.5"/>
      </g>
     </g>
     <g id="line2d_136">
      <g>
       <use xlink:href="#m65ccf092ad" x="530.02" y="40.313295" style="stroke: #000000; stroke-width: 0.5"/>
      </g>
     </g>
    </g>
    <g id="text_16">
     <!-- Ey (V/m) -->
     <g transform="translate(9.05625 156.115875) rotate(-90) scale(0.08 -0.08)">
      <defs>
       <path id="STIXGeneral-Regular-45" d="M 3821 1082 
L 3526 0 
L 77 0 
L 77 122 
Q 442 147 538 252 
Q 634 358 634 730 
L 634 3520 
Q 634 3878 534 3987 
Q 435 4096 77 4115 
L 77 4237 
L 3469 4237 
L 3494 3322 
L 3334 3322 
Q 3264 3750 3085 3872 
Q 2906 3994 2349 3994 
L 1510 3994 
Q 1370 3994 1328 3952 
Q 1286 3910 1286 3763 
L 1286 2355 
L 2253 2355 
Q 2656 2355 2787 2470 
Q 2918 2586 2976 2970 
L 3123 2970 
L 3123 1472 
L 2976 1472 
Q 2918 1875 2790 1984 
Q 2662 2093 2253 2093 
L 1286 2093 
L 1286 538 
Q 1286 346 1420 291 
Q 1555 237 1933 237 
L 2163 237 
Q 2848 237 3136 403 
Q 3424 570 3642 1082 
L 3821 1082 
z
" transform="scale(0.015625)"/>
       <path id="STIXGeneral-Regular-79" d="M 3040 2880 
L 3040 2784 
Q 2925 2771 2854 2700 
Q 2784 2630 2720 2458 
L 1760 -160 
Q 1510 -838 1257 -1116 
Q 1005 -1395 640 -1395 
Q 435 -1395 313 -1289 
Q 192 -1184 192 -1024 
Q 192 -902 272 -816 
Q 352 -730 467 -730 
Q 653 -730 800 -813 
Q 883 -858 966 -858 
Q 1101 -858 1286 -576 
Q 1376 -448 1459 -211 
Q 1542 26 1542 115 
Q 1542 198 1274 762 
L 429 2566 
Q 346 2752 90 2790 
L 90 2880 
L 1402 2880 
L 1402 2784 
Q 1197 2778 1117 2739 
Q 1037 2701 1037 2611 
Q 1037 2541 1120 2349 
L 1837 749 
L 2458 2515 
Q 2483 2573 2483 2630 
Q 2483 2784 2189 2784 
L 2189 2880 
L 3040 2880 
z
" transform="scale(0.015625)"/>
       <path id="STIXGeneral-Regular-56" d="M 4461 4237 
L 4461 4115 
Q 4262 4109 4134 3990 
Q 4006 3872 3872 3533 
L 2451 -70 
L 2355 -70 
L 794 3411 
Q 589 3866 467 3987 
Q 346 4109 102 4115 
L 102 4237 
L 1798 4237 
L 1798 4115 
L 1619 4102 
Q 1331 4083 1331 3904 
Q 1331 3776 1581 3219 
L 2554 1030 
L 3494 3392 
Q 3616 3699 3616 3853 
Q 3616 3898 3606 3933 
Q 3597 3968 3584 3993 
Q 3571 4019 3536 4038 
Q 3501 4058 3481 4067 
Q 3462 4077 3411 4086 
Q 3360 4096 3337 4099 
Q 3315 4102 3248 4108 
Q 3181 4115 3155 4115 
L 3155 4237 
L 4461 4237 
z
" transform="scale(0.015625)"/>
       <path id="STIXGeneral-Regular-2f" d="M 1837 4326 
L 378 -90 
L -58 -90 
L 1408 4326 
L 1837 4326 
z
" transform="scale(0.015625)"/>
      </defs>
      <use xlink:href="#STIXGeneral-Regular-45"/>
      <use xlink:href="#STIXGeneral-Regular-79" transform="translate(61.099991 0)"/>
      <use xlink:href="#STIXGeneral-Regular-20" transform="translate(111.099976 0)"/>
      <use xlink:href="#STIXGeneral-Regular-28" transform="translate(136.09996 0)"/>
      <use xlink:href="#STIXGeneral-Regular-56" transform="translate(169.399948 0)"/>
      <use xlink:href="#STIXGeneral-Regular-2f" transform="translate(241.59993 0)"/>
      <use xlink:href="#STIXGeneral-Regular-6d" transform="translate(269.399918 0)"/>
      <use xlink:href="#STIXGeneral-Regular-29" transform="translate(347.199905 0)"/>
     </g>
    </g>
    <g id="text_17">
     <!-- $\times\mathdefault{10^{−6}}\mathdefault{}$ -->
     <g transform="translate(27.82 13.1565) scale(0.08 -0.08)">
      <defs>
       <path id="Cmsy10-a3" d="M 941 184 
Q 941 234 972 275 
L 2303 1600 
L 972 2931 
Q 941 2963 941 3016 
Q 941 3063 978 3103 
Q 1016 3144 1069 3144 
Q 1113 3144 1166 3103 
L 2491 1778 
L 3809 3103 
Q 3863 3144 3903 3144 
Q 3956 3144 3993 3106 
Q 4031 3069 4031 3016 
Q 4031 2963 4000 2931 
L 2669 1600 
L 4000 275 
Q 4031 234 4031 184 
Q 4031 131 3993 93 
Q 3956 56 3903 56 
Q 3856 56 3809 103 
L 2491 1422 
L 1166 103 
Q 1119 56 1069 56 
Q 1016 56 978 97 
Q 941 138 941 184 
z
" transform="scale(0.015625)"/>
       <path id="STIXGeneral-Regular-36" d="M 2854 4378 
L 2867 4275 
Q 2112 4154 1606 3664 
Q 1101 3174 973 2451 
Q 1344 2739 1786 2739 
Q 2349 2739 2672 2380 
Q 2995 2022 2995 1402 
Q 2995 774 2669 378 
Q 2291 -90 1651 -90 
Q 870 -90 518 557 
Q 218 1107 218 1786 
Q 218 2835 915 3552 
Q 1312 3962 1731 4131 
Q 2150 4301 2854 4378 
z
M 2419 1203 
Q 2419 2445 1555 2445 
Q 1235 2445 1024 2275 
Q 813 2106 813 1702 
Q 813 954 1046 522 
Q 1280 90 1722 90 
Q 2061 90 2240 394 
Q 2419 698 2419 1203 
z
" transform="scale(0.015625)"/>
      </defs>
      <use xlink:href="#Cmsy10-a3" transform="translate(0 0.115625)"/>
      <use xlink:href="#STIXGeneral-Regular-31" transform="translate(77.685547 0.115625)"/>
      <use xlink:href="#STIXGeneral-Regular-30" transform="translate(127.685532 0.115625)"/>
      <use xlink:href="#STIXGeneral-Regular-2212" transform="translate(179.260516 36.115625) scale(0.7)"/>
      <use xlink:href="#STIXGeneral-Regular-36" transform="translate(227.210506 36.115625) scale(0.7)"/>
     </g>
    </g>
   </g>
   <g id="line2d_137">
    <path d="M 27.82 126.997153 
L 49.315147 127.106464 
L 56.6709 127.451833 
L 58.877627 127.4095 
L 61.084353 127.12026 
L 63.372809 126.862846 
L 65.252613 126.903614 
L 68.440106 127.000864 
L 76.122782 126.801849 
L 77.348741 127.065657 
L 78.166047 127.46766 
L 78.819892 128.031826 
L 79.473737 128.924947 
L 80.127582 130.268769 
L 80.781426 132.174972 
L 81.517002 135.061149 
L 82.497769 139.916919 
L 83.641997 145.480797 
L 84.132381 146.941216 
L 84.459303 147.30052 
L 84.622764 147.244861 
L 84.867956 146.819867 
L 85.194879 145.532532 
L 85.603532 142.610235 
L 86.093915 136.981879 
L 86.666029 127.430039 
L 87.483335 109.148498 
L 88.954486 74.839357 
L 89.44487 68.123848 
L 89.771792 66.192164 
L 89.935253 66.115172 
L 90.098714 66.67198 
L 90.343906 68.739689 
L 90.670829 73.838378 
L 91.079481 83.867403 
L 91.651596 103.760904 
L 93.694861 182.039666 
L 94.103514 188.028689 
L 94.266975 188.813347 
L 94.348705 188.844353 
L 94.512167 188.17529 
L 94.757358 185.348248 
L 95.084281 178.291418 
L 95.574664 161.4906 
L 96.31024 126.961438 
L 97.454468 73.687955 
L 97.944852 59.186714 
L 98.271774 53.846256 
L 98.516966 52.295739 
L 98.598696 52.250463 
L 98.762158 52.857914 
L 99.007349 55.461426 
L 99.334272 61.86139 
L 99.824655 76.701782 
L 100.641961 109.880117 
L 101.86792 158.637161 
L 102.521765 176.15173 
L 103.012149 184.061406 
L 103.420802 187.346207 
L 103.665993 188.024038 
L 103.829454 187.999621 
L 103.992916 187.634384 
L 104.319838 186.029334 
L 104.810222 182.005523 
L 106.199642 167.332688 
L 107.26214 157.865673 
L 110.04098 136.164475 
L 110.367902 135.311771 
L 110.531363 135.240492 
L 110.694825 135.418848 
L 110.940016 136.150313 
L 111.266939 137.909779 
L 112.656359 146.644864 
L 112.738089 146.614139 
L 112.901551 146.164699 
L 113.146742 144.387409 
L 113.473665 139.663687 
L 113.882318 129.653377 
L 114.454432 108.467077 
L 116.252505 34.050734 
L 116.579428 29.172032 
L 116.742889 28.474976 
L 116.824619 28.576115 
L 116.98808 29.678547 
L 117.233272 33.533255 
L 117.560195 42.469155 
L 118.132309 66.182371 
L 119.68519 136.956218 
L 120.175574 148.973628 
L 120.502496 153.077416 
L 120.747688 154.270611 
L 120.911149 154.272644 
L 121.07461 153.718871 
L 121.401533 151.236587 
L 121.891916 145.144001 
L 122.954414 128.085785 
L 124.098642 106.696478 
L 125.978446 69.487557 
L 126.305368 66.641808 
L 126.55056 65.953942 
L 126.632291 66.023781 
L 126.795752 66.628107 
L 127.040944 68.709618 
L 127.367866 73.630605 
L 127.85825 85.084706 
L 128.675556 111.102459 
L 129.983245 152.344116 
L 130.882282 173.34752 
L 132.271702 204.825448 
L 134.069775 250.592273 
L 134.396697 253.89867 
L 134.560159 254.2965 
L 134.641889 254.146087 
L 134.80535 253.105701 
L 135.050542 249.605575 
L 135.377465 241.194891 
L 135.867848 220.848789 
L 136.521693 182.530154 
L 137.911113 97.67889 
L 138.401497 79.286818 
L 138.81015 70.842566 
L 139.055341 68.620936 
L 139.218803 68.183776 
L 139.300533 68.243705 
L 139.463994 68.854748 
L 139.790917 71.643222 
L 140.444762 80.314086 
L 141.262068 90.105736 
L 142.97841 107.044087 
L 143.795716 121.477171 
L 144.449561 131.328497 
L 144.694753 133.025384 
L 144.858214 133.251564 
L 145.021675 132.65283 
L 145.266867 130.077295 
L 145.593789 123.386908 
L 146.084173 106.872187 
L 146.983209 65.490523 
L 147.637054 39.513465 
L 148.045707 30.110706 
L 148.290899 27.72494 
L 148.372629 27.4965 
L 148.45436 27.550561 
L 148.617821 28.4916 
L 148.863013 31.888774 
L 149.271666 42.165328 
L 149.925511 66.682759 
L 151.396662 124.608884 
L 152.050506 142.368428 
L 152.62262 152.657863 
L 153.031273 156.771366 
L 153.276465 157.823196 
L 153.439926 157.89861 
L 153.603388 157.458731 
L 153.848579 155.822933 
L 154.175502 151.865682 
L 154.665885 142.64754 
L 156.137036 111.90147 
L 156.382228 110.102484 
L 156.545689 109.871129 
L 156.70915 110.467378 
L 156.954342 112.953549 
L 157.281264 119.171282 
L 157.771648 133.848844 
L 159.896644 206.697536 
L 160.305296 211.98149 
L 160.550488 213.272127 
L 160.713949 213.385559 
L 160.877411 212.930486 
L 161.122602 211.243415 
L 161.449525 207.273367 
L 161.939908 198.112422 
L 162.593753 181.245846 
L 164.310096 133.743832 
L 164.800479 126.88351 
L 165.127402 125.037978 
L 165.290863 124.881921 
L 165.454324 125.169045 
L 165.699516 126.264874 
L 166.762014 132.11035 
L 166.843744 132.085215 
L 167.007205 131.64412 
L 167.252397 129.905903 
L 167.57932 125.463385 
L 168.069703 114.702901 
L 169.459123 80.650532 
L 169.786046 77.857526 
L 169.949507 77.686357 
L 170.112968 78.3387 
L 170.35816 80.783094 
L 170.766813 88.133174 
L 172.401425 122.653554 
L 172.728347 124.612893 
L 172.891808 124.778859 
L 173.05527 124.468103 
L 173.300461 123.26523 
L 173.790845 119.26737 
L 174.52642 113.35076 
L 174.935073 111.439305 
L 175.425457 110.177549 
L 175.83411 109.032635 
L 176.161032 107.376635 
L 176.569685 103.838965 
L 177.141799 96.210982 
L 178.040836 83.997185 
L 178.367758 82.249907 
L 178.449489 82.199076 
L 178.61295 82.619096 
L 178.858142 84.627538 
L 179.185064 89.922079 
L 179.675448 102.82098 
L 181.39179 154.550564 
L 181.718713 158.492523 
L 181.963905 159.668005 
L 182.127366 159.676151 
L 182.290827 159.138839 
L 182.617749 156.757212 
L 183.271594 149.354215 
L 183.925439 142.680991 
L 184.415822 139.663614 
L 184.906206 137.977622 
L 185.47832 136.121656 
L 185.886973 133.878256 
L 186.377357 129.644547 
L 187.276393 119.03181 
L 187.930238 112.580954 
L 188.25716 110.853913 
L 188.502352 110.412409 
L 188.665813 110.547032 
L 188.911005 111.3889 
L 189.237928 113.636081 
L 189.728311 119.016613 
L 190.545617 131.136206 
L 191.853307 150.408645 
L 192.588882 158.054626 
L 193.079266 161.293554 
L 193.487919 162.78983 
L 193.814841 163.233328 
L 194.060033 163.165513 
L 194.305225 162.792339 
L 194.713878 161.589719 
L 195.204261 159.345274 
L 195.776375 155.655092 
L 196.348489 150.404438 
L 196.920604 142.852859 
L 197.574448 130.817357 
L 199.454252 92.38748 
L 199.781174 89.654752 
L 200.026366 88.971101 
L 200.108097 89.004985 
L 200.271558 89.452359 
L 200.51675 91.00688 
L 200.925403 95.501568 
L 202.396554 113.908235 
L 202.723476 115.193688 
L 202.886937 115.315437 
L 203.050398 115.130657 
L 203.29559 114.392122 
L 204.276357 110.65271 
L 204.439818 110.708189 
L 204.60328 111.143507 
L 204.848471 112.601802 
L 205.175394 116.155448 
L 205.665777 124.737953 
L 206.646545 147.94098 
L 207.300389 160.738908 
L 207.709042 165.253168 
L 207.954234 166.394684 
L 208.117695 166.489569 
L 208.281156 166.064816 
L 208.526348 164.505275 
L 208.935001 159.735556 
L 209.507115 149.624107 
L 210.569613 125.681115 
L 212.285956 87.477004 
L 212.9398 77.223856 
L 213.348453 73.3936 
L 213.593645 72.30234 
L 213.757106 72.131789 
L 213.920568 72.429416 
L 214.165759 73.781164 
L 214.492682 77.294839 
L 214.901335 84.350962 
L 215.473449 98.530476 
L 216.617677 134.546651 
L 217.434983 156.869737 
L 217.925367 165.274592 
L 218.252289 168.153591 
L 218.497481 168.814235 
L 218.660942 168.557931 
L 218.906134 167.194498 
L 219.233056 163.775205 
L 219.805171 154.765002 
L 220.867668 137.4942 
L 221.358052 133.079787 
L 221.684974 131.817941 
L 221.930166 131.625309 
L 222.175358 131.897111 
L 222.910933 133.224067 
L 223.074394 133.161148 
L 223.237856 132.828113 
L 223.483047 131.721401 
L 223.80997 128.972169 
L 224.218623 123.50688 
L 225.035929 108.531452 
L 225.689773 98.386745 
L 226.016696 95.893325 
L 226.180157 95.523505 
L 226.261888 95.5746 
L 226.425349 96.160064 
L 226.670541 98.24445 
L 226.997463 103.145752 
L 227.487847 114.126849 
L 229.040728 151.974749 
L 229.449381 156.998643 
L 229.776303 159.002206 
L 230.021495 159.4859 
L 230.184956 159.412467 
L 230.430148 158.84907 
L 230.920532 156.797174 
L 231.819568 153.021029 
L 232.636874 149.91016 
L 233.045527 147.11368 
L 233.45418 142.615437 
L 233.944564 134.561218 
L 234.76187 116.389625 
L 235.579176 99.832547 
L 235.987829 95.462892 
L 236.23302 94.640986 
L 236.314751 94.685657 
L 236.478212 95.251833 
L 236.723404 97.248153 
L 237.132057 103.215043 
L 238.031094 121.797735 
L 238.603208 131.168341 
L 238.93013 133.973573 
L 239.175322 134.661359 
L 239.257052 134.626238 
L 239.420514 134.186061 
L 239.665705 132.710455 
L 240.156089 127.853664 
L 240.809934 121.58594 
L 241.055126 120.509965 
L 241.218587 120.395088 
L 241.382048 120.815909 
L 241.62724 122.490491 
L 241.954162 126.590877 
L 242.526276 137.534532 
L 243.343582 153.373761 
L 243.670505 156.742779 
L 243.915696 157.414215 
L 244.079158 156.872659 
L 244.324349 154.52504 
L 244.651272 148.616633 
L 245.141655 134.774176 
L 246.857998 79.797922 
L 247.266651 73.809231 
L 247.593573 71.855027 
L 247.757034 71.753117 
L 247.920496 72.176119 
L 248.165687 73.678015 
L 248.57434 78.018931 
L 249.228185 87.950691 
L 250.372414 109.273187 
L 252.906062 159.121136 
L 253.314715 162.581466 
L 253.641637 163.664107 
L 253.805099 163.667787 
L 253.96856 163.34431 
L 254.213752 162.320293 
L 254.622405 159.530235 
L 256.175286 147.582052 
L 256.7474 145.215652 
L 257.646437 141.798856 
L 258.13682 138.719995 
L 258.708934 133.50603 
L 260.343546 117.264332 
L 260.670469 116.137722 
L 260.83393 116.060337 
L 260.997391 116.329127 
L 261.242583 117.39551 
L 261.569505 120.03185 
L 262.059889 126.271749 
L 263.122387 144.232633 
L 263.694501 152.067334 
L 264.103154 155.091154 
L 264.348346 155.569645 
L 264.511807 155.28345 
L 264.756998 153.928266 
L 265.083921 150.437446 
L 265.574304 142.037999 
L 266.39161 122.951964 
L 267.372378 101.114315 
L 267.944492 92.64615 
L 268.434875 88.438488 
L 268.843528 86.802279 
L 269.08872 86.47321 
L 269.252181 86.475809 
L 269.497373 86.762035 
L 269.824295 87.595665 
L 270.232948 89.297478 
L 270.723332 92.393703 
L 271.213716 96.92576 
L 271.78583 104.360402 
L 272.603136 118.441669 
L 273.829095 139.457908 
L 274.401209 145.61543 
L 274.809862 148.161001 
L 275.218515 149.466067 
L 275.627168 150.02296 
L 276.362743 150.777122 
L 276.771396 151.627708 
L 277.915624 154.440652 
L 278.079086 154.491348 
L 278.242547 154.353279 
L 278.487739 153.732201 
L 278.814661 152.028892 
L 279.223314 148.411105 
L 279.795428 140.847212 
L 282.247346 104.077587 
L 282.81946 99.706332 
L 283.228113 97.929098 
L 283.555036 97.372552 
L 283.718497 97.404166 
L 283.963689 97.864594 
L 284.290611 99.294274 
L 284.699264 102.453505 
L 285.189648 108.214334 
L 285.925223 119.975886 
L 287.232912 141.347853 
L 287.723296 146.385709 
L 288.131949 148.685787 
L 288.377141 149.236244 
L 288.540602 149.27941 
L 288.704063 149.083198 
L 288.949255 148.385167 
L 289.357908 146.338254 
L 290.011753 141.578978 
L 292.055018 125.727436 
L 292.627132 123.119916 
L 292.954054 122.359913 
L 293.199246 122.199218 
L 293.362707 122.29854 
L 293.607899 122.761786 
L 293.934821 123.947982 
L 294.425205 126.770924 
L 296.059817 137.526479 
L 296.386739 138.244152 
L 296.5502 138.283286 
L 296.713662 138.098266 
L 296.958853 137.397397 
L 297.285776 135.70156 
L 297.776159 131.758028 
L 298.838657 120.465707 
L 299.574232 114.030201 
L 299.982885 112.029163 
L 300.228077 111.518373 
L 300.391538 111.483602 
L 300.555 111.696536 
L 300.800191 112.474923 
L 301.127114 114.327365 
L 301.617497 118.605594 
L 302.516534 129.123542 
L 303.33384 137.954502 
L 303.824223 141.152839 
L 304.069415 141.864857 
L 304.232876 141.963633 
L 304.396338 141.744484 
L 304.641529 140.798958 
L 304.968452 138.371258 
L 305.377105 133.530028 
L 305.949219 123.924156 
L 307.665562 92.561041 
L 308.074214 89.347068 
L 308.319406 88.846466 
L 308.482867 89.143217 
L 308.728059 90.533635 
L 309.054982 94.062757 
L 309.545365 102.341935 
L 311.425169 138.253791 
L 311.833822 141.526893 
L 312.160744 142.643656 
L 312.405936 142.777218 
L 312.651128 142.480646 
L 313.223242 141.094922 
L 313.631895 140.38237 
L 313.877087 140.309094 
L 314.122279 140.553258 
L 314.449201 141.340468 
L 315.103046 143.798527 
L 315.593429 145.341232 
L 315.920352 145.743929 
L 316.083813 145.698527 
L 316.329005 145.30785 
L 316.655927 144.230345 
L 317.228041 141.330952 
L 318.045347 137.408858 
L 318.454 136.464998 
L 318.699192 136.284097 
L 318.944384 136.327829 
L 319.679959 136.712824 
L 319.925151 136.485388 
L 320.170343 135.875892 
L 320.497265 134.334966 
L 320.905918 131.171033 
L 321.559763 123.929181 
L 322.458799 114.026583 
L 322.867452 111.350877 
L 323.194375 110.405015 
L 323.357836 110.325311 
L 323.521297 110.483262 
L 323.766489 111.099249 
L 324.256873 113.197921 
L 324.992448 116.283216 
L 325.31937 116.914216 
L 325.564562 116.984987 
L 325.809754 116.73585 
L 326.218407 115.810578 
L 326.953982 114.047694 
L 327.199174 113.88215 
L 327.362635 113.968727 
L 327.607827 114.428125 
L 327.934749 115.665183 
L 328.425133 118.65824 
L 329.978014 129.281704 
L 330.468398 131.001703 
L 331.122243 132.404597 
L 331.612626 133.593799 
L 332.10301 135.463832 
L 332.756855 139.119887 
L 333.737622 144.737191 
L 334.146275 145.941265 
L 334.391466 146.129438 
L 334.554928 146.012756 
L 334.800119 145.473481 
L 335.127042 144.114878 
L 335.617425 140.97245 
L 337.333768 128.66553 
L 337.742421 127.330952 
L 338.069343 126.952192 
L 338.314535 127.062874 
L 338.559727 127.486848 
L 338.96838 128.783109 
L 339.703955 132.19647 
L 340.439531 135.243932 
L 340.766453 135.913068 
L 341.011645 136.001197 
L 341.175106 135.839384 
L 341.420298 135.250558 
L 341.74722 133.825721 
L 342.237604 130.488687 
L 344.362599 113.967473 
L 344.934713 111.899838 
L 345.83375 108.94737 
L 346.405864 105.98864 
L 348.122207 95.752699 
L 348.367398 95.478065 
L 348.53086 95.606491 
L 348.776051 96.288266 
L 349.102974 98.097227 
L 349.593357 102.482298 
L 350.574125 114.268278 
L 351.473161 123.976213 
L 352.372198 131.068799 
L 353.925079 142.861885 
L 354.742385 148.550076 
L 355.151038 150.18689 
L 355.39623 150.594847 
L 355.559691 150.603562 
L 355.723152 150.397287 
L 355.968344 149.691554 
L 356.376997 147.549666 
L 356.949111 143.044431 
L 358.501992 129.972886 
L 359.074107 127.057517 
L 359.56449 125.649307 
L 359.891413 125.248204 
L 360.136604 125.219686 
L 360.381796 125.419953 
L 360.708718 126.036665 
L 361.117371 127.348567 
L 361.689486 130.062652 
L 363.405828 139.001409 
L 363.732751 139.675159 
L 363.977942 139.817467 
L 364.223134 139.653426 
L 364.550056 139.009431 
L 365.04044 137.393575 
L 366.102938 133.723002 
L 366.511591 133.024244 
L 366.838513 132.835388 
L 367.165436 132.896438 
L 367.982742 133.195799 
L 368.227933 133.044443 
L 368.554856 132.504771 
L 368.963509 131.20917 
L 369.535623 128.348601 
L 370.925043 120.746137 
L 371.333696 119.657881 
L 371.660618 119.340495 
L 371.90581 119.391117 
L 372.232733 119.751178 
L 373.458691 121.468157 
L 373.703883 121.445939 
L 374.030806 121.120863 
L 374.439459 120.297842 
L 375.828879 117.072551 
L 376.074071 116.950524 
L 376.319262 117.047343 
L 376.646185 117.506621 
L 377.136568 118.761885 
L 378.525988 122.729737 
L 378.934641 123.241992 
L 379.343294 123.419527 
L 380.487523 123.617405 
L 380.896176 124.102367 
L 381.46829 125.24676 
L 382.285596 126.914294 
L 382.612518 127.178461 
L 382.85771 127.113623 
L 383.102902 126.792989 
L 383.429824 125.962749 
L 383.920208 123.986246 
L 385.227897 118.180412 
L 385.55482 117.548735 
L 385.800012 117.419182 
L 386.045203 117.576429 
L 386.372126 118.167919 
L 387.02597 120.066511 
L 387.598085 121.504881 
L 387.925007 121.873253 
L 388.170199 121.870315 
L 388.415391 121.632968 
L 388.824044 120.826117 
L 389.72308 118.90741 
L 389.968272 118.838913 
L 390.213464 119.137784 
L 390.458655 119.864756 
L 390.785578 121.551971 
L 391.275961 125.564591 
L 392.011537 133.896945 
L 393.074035 145.593223 
L 393.564418 148.922214 
L 393.973071 150.291747 
L 394.218263 150.50132 
L 394.381724 150.401868 
L 394.626916 149.924174 
L 394.953838 148.750764 
L 395.444222 146.098736 
L 396.343258 139.661299 
L 397.814409 129.013767 
L 398.386523 126.268754 
L 398.795176 125.265831 
L 399.040368 125.131955 
L 399.203829 125.25312 
L 399.449021 125.75776 
L 399.775943 127.021367 
L 400.266327 130.026228 
L 401.98267 142.210549 
L 402.309592 142.86617 
L 402.473053 142.828021 
L 402.636514 142.533202 
L 402.881706 141.606986 
L 403.290359 138.840714 
L 403.862473 132.948927 
L 405.251893 117.741347 
L 405.660546 115.482034 
L 405.905738 114.888446 
L 406.069199 114.812089 
L 406.232661 114.979539 
L 406.477852 115.647128 
L 406.886505 117.640591 
L 408.194195 125.077772 
L 408.521117 125.685167 
L 408.684578 125.674373 
L 408.92977 125.255254 
L 409.256693 123.98492 
L 409.747076 120.865381 
L 411.218227 110.518866 
L 411.62688 109.273766 
L 411.872072 109.018116 
L 412.117264 109.103895 
L 412.362455 109.484526 
L 412.771108 110.604643 
L 414.569181 116.254251 
L 415.304757 117.479841 
L 417.18456 120.047191 
L 417.674944 120.308161 
L 418.165328 120.276789 
L 418.819172 120.205765 
L 419.064364 120.370932 
L 419.391287 120.941384 
L 419.718209 122.064583 
L 420.126862 124.439387 
L 420.617246 128.830708 
L 421.352821 137.933208 
L 422.415319 150.963679 
L 422.823972 153.817397 
L 423.069163 154.587125 
L 423.232625 154.66756 
L 423.396086 154.392611 
L 423.641278 153.318684 
L 423.9682 150.722073 
L 424.458584 144.775691 
L 426.256657 120.308376 
L 426.66531 118.018711 
L 426.910501 117.530287 
L 427.073963 117.560232 
L 427.319154 118.097461 
L 427.646077 119.607781 
L 428.218191 123.757386 
L 429.607611 134.616028 
L 430.179725 137.337366 
L 430.670109 138.689716 
L 431.078762 139.259296 
L 431.487415 139.443416 
L 431.814337 139.368477 
L 432.22299 139.028358 
L 432.713374 138.256476 
L 433.285488 136.823056 
L 434.021063 134.211229 
L 435.900867 127.107013 
L 437.862401 121.076276 
L 439.497013 114.797824 
L 439.823936 114.37889 
L 440.069127 114.416451 
L 440.314319 114.777747 
L 440.641242 115.759846 
L 441.131625 118.173936 
L 442.112392 124.692675 
L 442.847968 128.805642 
L 443.256621 130.140211 
L 443.583543 130.592533 
L 443.828735 130.555401 
L 444.073927 130.196338 
L 444.400849 129.232092 
L 444.809502 127.297041 
L 445.381616 123.404354 
L 446.280653 115.418973 
L 447.34315 106.371384 
L 447.833534 103.962764 
L 448.078726 103.454207 
L 448.242187 103.408355 
L 448.405648 103.607417 
L 448.65084 104.37132 
L 448.977762 106.235228 
L 449.468146 110.612945 
L 450.367183 121.422886 
L 451.266219 131.494219 
L 451.920064 136.448465 
L 452.492178 139.135122 
L 453.146023 141.051061 
L 453.963329 142.749319 
L 454.453712 143.418126 
L 454.780635 143.557611 
L 455.025827 143.425041 
L 455.271018 143.044845 
L 455.597941 142.108917 
L 456.006594 140.242194 
L 456.660438 136.012069 
L 457.722936 129.15017 
L 458.131589 127.721461 
L 458.376781 127.359912 
L 458.540242 127.333541 
L 458.785434 127.605326 
L 459.112356 128.489818 
L 459.60274 130.639351 
L 460.910429 136.796011 
L 461.319082 137.748594 
L 461.646005 138.02985 
L 461.891197 137.972696 
L 462.218119 137.577948 
L 462.626772 136.657795 
L 463.198886 134.761524 
L 463.934462 131.482136 
L 464.670037 127.203743 
L 465.732535 119.436261 
L 466.631571 113.252053 
L 467.121955 111.153059 
L 467.448877 110.535231 
L 467.612338 110.487323 
L 467.7758 110.616398 
L 468.020991 111.133943 
L 468.347914 112.378678 
L 468.920028 115.694178 
L 470.145987 123.217141 
L 470.55464 124.564147 
L 470.881562 125.028697 
L 471.126754 125.044333 
L 471.371946 124.824335 
L 471.862329 123.948027 
L 472.516174 122.81162 
L 472.843097 122.64325 
L 473.088288 122.782691 
L 473.415211 123.344223 
L 473.823864 124.57853 
L 475.295014 129.646035 
L 475.621937 129.939625 
L 475.867129 129.860355 
L 476.194051 129.405006 
L 476.766165 128.042256 
L 477.338279 126.842571 
L 477.665202 126.620195 
L 477.910393 126.774679 
L 478.155585 127.228137 
L 478.564238 128.610563 
L 479.218083 131.893974 
L 479.953658 135.391172 
L 480.362311 136.455474 
L 480.607503 136.670514 
L 480.852695 136.561411 
L 481.097887 136.15464 
L 481.50654 134.960468 
L 482.89596 130.36884 
L 483.304613 129.870324 
L 483.631535 129.7696 
L 484.448841 129.720105 
L 484.775764 129.335174 
L 485.102686 128.5303 
L 485.511339 126.845638 
L 486.083453 123.357712 
L 487.472873 114.286757 
L 487.881526 112.981182 
L 488.126718 112.670531 
L 488.290179 112.661942 
L 488.535371 112.932395 
L 488.862293 113.7657 
L 489.352677 115.788566 
L 490.415175 121.514864 
L 494.011321 140.679432 
L 494.338243 141.244244 
L 494.501705 141.28175 
L 494.665166 141.142135 
L 494.910357 140.588734 
L 495.23728 139.210485 
L 495.727663 135.912017 
L 496.6267 127.72143 
L 497.362275 121.779218 
L 497.852659 119.490816 
L 498.179581 118.932478 
L 498.343043 118.947972 
L 498.588234 119.317736 
L 498.915157 120.380417 
L 499.40554 122.861386 
L 500.958422 131.309899 
L 501.530536 133.021142 
L 502.020919 133.887768 
L 502.593034 134.460784 
L 503.083417 134.682623 
L 503.49207 134.622265 
L 503.818992 134.327311 
L 504.145915 133.73292 
L 504.554568 132.47997 
L 505.044951 130.192299 
L 505.862257 125.067286 
L 506.679563 120.285369 
L 507.169947 118.569691 
L 507.496869 118.061159 
L 507.742061 117.996462 
L 507.987253 118.160562 
L 508.395906 118.784976 
L 509.376673 120.435897 
L 509.785326 120.66231 
L 510.193979 120.599349 
L 510.847824 120.433384 
L 511.174746 120.638267 
L 511.501669 121.212445 
L 511.910322 122.547597 
L 512.482436 125.457071 
L 513.708395 132.126176 
L 514.117048 133.115908 
L 514.362239 133.233975 
L 514.607431 132.993785 
L 514.934354 132.170387 
L 515.424737 130.140141 
L 516.732427 124.281621 
L 517.22281 123.14025 
L 517.631463 122.725758 
L 517.958386 122.669481 
L 518.367039 122.837047 
L 518.939153 123.362895 
L 519.511267 124.209399 
L 520.083381 125.531302 
L 520.737226 127.763981 
L 522.208377 133.236491 
L 522.535299 133.749118 
L 522.780491 133.835 
L 523.025683 133.655975 
L 523.352605 133.029613 
L 523.842989 131.439318 
L 525.232409 126.474117 
L 525.641062 125.804236 
L 525.967984 125.612007 
L 526.294906 125.670311 
L 526.78529 126.047457 
L 527.684327 126.792108 
L 528.17471 126.922277 
L 528.746824 126.823039 
L 530.054514 126.417881 
L 530.054514 126.417881 
" clip-path="url(#p8d2b20a7c9)" style="fill: none; stroke: #0c5da5; stroke-linecap: square"/>
   </g>
   <g id="patch_3">
    <path d="M 27.82 265.6365 
L 27.82 16.1565 
" style="fill: none; stroke: #000000; stroke-width: 0.5; stroke-linejoin: miter; stroke-linecap: square"/>
   </g>
   <g id="patch_4">
    <path d="M 530.02 265.6365 
L 530.02 16.1565 
" style="fill: none; stroke: #000000; stroke-width: 0.5; stroke-linejoin: miter; stroke-linecap: square"/>
   </g>
   <g id="patch_5">
    <path d="M 27.82 265.6365 
L 530.02 265.6365 
" style="fill: none; stroke: #000000; stroke-width: 0.5; stroke-linejoin: miter; stroke-linecap: square"/>
   </g>
   <g id="patch_6">
    <path d="M 27.82 16.1565 
L 530.02 16.1565 
" style="fill: none; stroke: #000000; stroke-width: 0.5; stroke-linejoin: miter; stroke-linecap: square"/>
   </g>
   <g id="text_18">
    <!-- P2 electric field - low_capacitance -->
    <g transform="translate(212.53375 10.1565) scale(0.096 -0.096)">
     <defs>
      <path id="STIXGeneral-Regular-50" d="M 102 4237 
L 1760 4237 
Q 2669 4237 3149 3834 
Q 3469 3565 3469 3072 
Q 3469 2560 3104 2234 
Q 2835 1990 2553 1916 
Q 2272 1843 1734 1843 
Q 1549 1843 1293 1862 
L 1293 717 
Q 1293 352 1398 246 
Q 1504 141 1894 122 
L 1894 0 
L 102 0 
L 102 122 
Q 474 147 557 256 
Q 640 365 640 781 
L 640 3526 
Q 640 3885 547 3987 
Q 454 4090 102 4115 
L 102 4237 
z
M 1293 3770 
L 1293 2118 
Q 1510 2099 1683 2099 
Q 2202 2099 2486 2352 
Q 2771 2605 2771 3040 
Q 2771 3558 2476 3779 
Q 2182 4000 1517 4000 
Q 1382 4000 1337 3952 
Q 1293 3904 1293 3770 
z
" transform="scale(0.015625)"/>
      <path id="STIXGeneral-Regular-6c" d="M 1645 0 
L 134 0 
L 134 96 
Q 435 122 531 221 
Q 627 320 627 589 
L 627 3590 
Q 627 3821 569 3910 
Q 512 4000 358 4000 
Q 224 4000 122 3987 
L 122 4090 
Q 730 4237 1133 4371 
L 1165 4346 
L 1165 557 
Q 1165 288 1254 201 
Q 1344 115 1645 96 
L 1645 0 
z
" transform="scale(0.015625)"/>
      <path id="STIXGeneral-Regular-63" d="M 2547 998 
L 2637 941 
Q 2362 403 2112 205 
Q 1786 -64 1376 -64 
Q 845 -64 502 336 
Q 160 736 160 1357 
Q 160 2170 698 2618 
Q 1094 2944 1562 2944 
Q 1965 2944 2256 2749 
Q 2547 2554 2547 2285 
Q 2547 2176 2457 2096 
Q 2368 2016 2246 2016 
Q 2022 2016 1939 2310 
L 1901 2451 
Q 1850 2630 1773 2694 
Q 1696 2758 1523 2758 
Q 1133 2758 893 2451 
Q 653 2144 653 1645 
Q 653 1094 928 745 
Q 1203 397 1645 397 
Q 1920 397 2118 528 
Q 2317 659 2547 998 
z
" transform="scale(0.015625)"/>
      <path id="STIXGeneral-Regular-74" d="M 1702 493 
L 1786 422 
Q 1478 -64 1011 -64 
Q 448 -64 448 749 
L 448 2675 
L 109 2675 
Q 83 2694 83 2720 
Q 83 2771 192 2842 
Q 435 2982 813 3526 
Q 826 3546 874 3606 
Q 922 3667 941 3706 
Q 986 3706 986 3622 
L 986 2880 
L 1632 2880 
L 1632 2675 
L 986 2675 
L 986 845 
Q 986 538 1062 403 
Q 1139 269 1318 269 
Q 1510 269 1702 493 
z
" transform="scale(0.015625)"/>
      <path id="STIXGeneral-Regular-72" d="M 1024 2931 
L 1024 2342 
Q 1267 2688 1430 2816 
Q 1594 2944 1792 2944 
Q 1958 2944 2051 2854 
Q 2144 2765 2144 2605 
Q 2144 2470 2077 2393 
Q 2010 2317 1894 2317 
Q 1773 2317 1638 2445 
Q 1536 2541 1472 2541 
Q 1338 2541 1181 2355 
Q 1024 2170 1024 2016 
L 1024 576 
Q 1024 301 1133 205 
Q 1242 109 1568 96 
L 1568 0 
L 32 0 
L 32 96 
Q 339 154 412 224 
Q 486 294 486 538 
L 486 2138 
Q 486 2349 438 2435 
Q 390 2522 269 2522 
Q 166 2522 45 2496 
L 45 2598 
Q 448 2726 992 2944 
L 1024 2931 
z
" transform="scale(0.015625)"/>
      <path id="STIXGeneral-Regular-66" d="M 134 2880 
L 659 2880 
Q 666 3264 710 3478 
Q 755 3693 883 3910 
Q 1152 4371 1786 4371 
Q 2074 4371 2262 4259 
Q 2451 4147 2451 3974 
Q 2451 3866 2374 3789 
Q 2298 3712 2182 3712 
Q 2029 3712 1894 3942 
Q 1741 4192 1555 4192 
Q 1197 4192 1197 3622 
L 1197 2880 
L 1978 2880 
L 1978 2675 
L 1197 2675 
L 1197 666 
Q 1197 307 1299 208 
Q 1402 109 1792 96 
L 1792 0 
L 128 0 
L 128 96 
Q 474 115 566 214 
Q 659 314 659 666 
L 659 2675 
L 134 2675 
L 134 2880 
z
" transform="scale(0.015625)"/>
      <path id="STIXGeneral-Regular-64" d="M 3142 269 
L 2202 -64 
L 2176 -45 
L 2176 365 
Q 1869 -64 1357 -64 
Q 826 -64 499 317 
Q 173 698 173 1312 
Q 173 1990 563 2467 
Q 954 2944 1504 2944 
Q 1850 2944 2176 2669 
L 2176 3667 
Q 2176 3866 2118 3930 
Q 2061 3994 1882 3994 
Q 1792 3994 1741 3987 
L 1741 4090 
Q 2323 4243 2682 4371 
L 2714 4358 
L 2714 730 
Q 2714 506 2768 435 
Q 2822 365 2995 365 
Q 3034 365 3142 371 
L 3142 269 
z
M 2176 653 
L 2176 2125 
Q 2176 2381 1981 2573 
Q 1786 2765 1523 2765 
Q 1158 2765 940 2438 
Q 723 2112 723 1568 
Q 723 979 963 624 
Q 1203 269 1606 269 
Q 1907 269 2080 474 
Q 2176 582 2176 653 
z
" transform="scale(0.015625)"/>
      <path id="STIXGeneral-Regular-2d" d="M 1824 1242 
L 250 1242 
L 250 1645 
L 1824 1645 
L 1824 1242 
z
" transform="scale(0.015625)"/>
      <path id="STIXGeneral-Regular-6f" d="M 3008 1478 
Q 3008 806 2608 371 
Q 2208 -64 1568 -64 
Q 979 -64 582 368 
Q 186 800 186 1459 
Q 186 2125 582 2534 
Q 979 2944 1626 2944 
Q 2221 2944 2614 2537 
Q 3008 2131 3008 1478 
z
M 2432 1306 
Q 2432 2035 2112 2445 
Q 1856 2765 1504 2765 
Q 1171 2765 966 2493 
Q 762 2221 762 1747 
Q 762 928 1101 435 
Q 1318 115 1677 115 
Q 2029 115 2230 432 
Q 2432 749 2432 1306 
z
" transform="scale(0.015625)"/>
      <path id="STIXGeneral-Regular-77" d="M 4442 2880 
L 4442 2784 
Q 4346 2752 4301 2691 
Q 4256 2630 4179 2438 
L 3296 224 
Q 3168 -90 3117 -90 
Q 3085 -90 3062 -48 
Q 3040 -6 2963 186 
L 2381 1696 
L 1664 160 
Q 1549 -90 1504 -90 
Q 1446 -90 1338 192 
L 474 2381 
Q 378 2630 314 2700 
Q 250 2771 134 2784 
L 134 2880 
L 1286 2880 
L 1286 2784 
Q 1120 2765 1056 2720 
Q 992 2675 992 2573 
Q 992 2477 1030 2381 
L 1664 710 
L 2246 1984 
L 2118 2342 
Q 2029 2598 1942 2681 
Q 1856 2765 1677 2784 
L 1677 2880 
L 2976 2880 
L 2976 2784 
Q 2752 2752 2678 2707 
Q 2605 2662 2605 2560 
Q 2605 2458 2714 2176 
L 3251 742 
L 3827 2163 
Q 3936 2432 3936 2592 
Q 3936 2669 3875 2710 
Q 3814 2752 3654 2784 
L 3654 2880 
L 4442 2880 
z
" transform="scale(0.015625)"/>
      <path id="STIXGeneral-Regular-5f" d="M 3200 -800 
L 0 -800 
L 0 -480 
L 3200 -480 
L 3200 -800 
z
" transform="scale(0.015625)"/>
      <path id="STIXGeneral-Regular-61" d="M 2829 422 
L 2829 243 
Q 2586 -64 2253 -64 
Q 1888 -64 1843 403 
L 1837 403 
Q 1427 -64 909 -64 
Q 608 -64 422 112 
Q 237 288 237 602 
Q 237 1050 685 1350 
Q 992 1555 1837 1869 
L 1837 2214 
Q 1837 2502 1699 2646 
Q 1562 2790 1338 2790 
Q 1146 2790 1018 2697 
Q 890 2605 890 2477 
Q 890 2419 909 2348 
Q 928 2278 928 2208 
Q 928 2112 841 2029 
Q 755 1946 634 1946 
Q 525 1946 441 2029 
Q 358 2112 358 2240 
Q 358 2547 685 2752 
Q 986 2944 1421 2944 
Q 1939 2944 2176 2656 
Q 2291 2522 2323 2384 
Q 2355 2246 2355 1946 
L 2355 723 
Q 2355 301 2554 301 
Q 2682 301 2829 422 
z
M 1837 813 
L 1837 1715 
Q 1248 1510 1018 1293 
Q 800 1094 800 800 
Q 800 557 921 432 
Q 1043 307 1242 307 
Q 1453 307 1613 410 
Q 1747 506 1792 589 
Q 1837 672 1837 813 
z
" transform="scale(0.015625)"/>
      <path id="STIXGeneral-Regular-70" d="M 1018 2931 
L 1018 2438 
Q 1421 2944 1939 2944 
Q 2406 2944 2707 2560 
Q 3008 2176 3008 1581 
Q 3008 883 2621 409 
Q 2234 -64 1664 -64 
Q 1466 -64 1328 -6 
Q 1190 51 1018 211 
L 1018 -794 
Q 1018 -1094 1120 -1180 
Q 1222 -1267 1581 -1274 
L 1581 -1389 
L 32 -1389 
L 32 -1280 
Q 314 -1254 397 -1171 
Q 480 -1088 480 -838 
L 480 2157 
Q 480 2381 429 2451 
Q 378 2522 218 2522 
Q 115 2522 58 2515 
L 58 2618 
Q 506 2752 979 2944 
L 1018 2931 
z
M 1018 2138 
L 1018 563 
Q 1018 422 1238 281 
Q 1459 141 1683 141 
Q 2029 141 2243 467 
Q 2458 794 2458 1325 
Q 2458 1888 2243 2224 
Q 2029 2560 1670 2560 
Q 1446 2560 1232 2419 
Q 1018 2278 1018 2138 
z
" transform="scale(0.015625)"/>
     </defs>
     <use xlink:href="#STIXGeneral-Regular-50"/>
     <use xlink:href="#STIXGeneral-Regular-32" transform="translate(55.699997 0)"/>
     <use xlink:href="#STIXGeneral-Regular-20" transform="translate(105.699982 0)"/>
     <use xlink:href="#STIXGeneral-Regular-65" transform="translate(130.699966 0)"/>
     <use xlink:href="#STIXGeneral-Regular-6c" transform="translate(175.09996 0)"/>
     <use xlink:href="#STIXGeneral-Regular-65" transform="translate(202.899948 0)"/>
     <use xlink:href="#STIXGeneral-Regular-63" transform="translate(247.299942 0)"/>
     <use xlink:href="#STIXGeneral-Regular-74" transform="translate(291.699936 0)"/>
     <use xlink:href="#STIXGeneral-Regular-72" transform="translate(319.499924 0)"/>
     <use xlink:href="#STIXGeneral-Regular-69" transform="translate(352.799911 0)"/>
     <use xlink:href="#STIXGeneral-Regular-63" transform="translate(380.599899 0)"/>
     <use xlink:href="#STIXGeneral-Regular-20" transform="translate(424.999893 0)"/>
     <use xlink:href="#STIXGeneral-Regular-66" transform="translate(449.999878 0)"/>
     <use xlink:href="#STIXGeneral-Regular-69" transform="translate(483.299866 0)"/>
     <use xlink:href="#STIXGeneral-Regular-65" transform="translate(511.099854 0)"/>
     <use xlink:href="#STIXGeneral-Regular-6c" transform="translate(555.499847 0)"/>
     <use xlink:href="#STIXGeneral-Regular-64" transform="translate(583.299835 0)"/>
     <use xlink:href="#STIXGeneral-Regular-20" transform="translate(633.29982 0)"/>
     <use xlink:href="#STIXGeneral-Regular-2d" transform="translate(658.299805 0)"/>
     <use xlink:href="#STIXGeneral-Regular-20" transform="translate(691.599792 0)"/>
     <use xlink:href="#STIXGeneral-Regular-6c" transform="translate(716.599777 0)"/>
     <use xlink:href="#STIXGeneral-Regular-6f" transform="translate(744.399765 0)"/>
     <use xlink:href="#STIXGeneral-Regular-77" transform="translate(794.39975 0)"/>
     <use xlink:href="#STIXGeneral-Regular-5f" transform="translate(866.599731 0)"/>
     <use xlink:href="#STIXGeneral-Regular-63" transform="translate(916.599716 0)"/>
     <use xlink:href="#STIXGeneral-Regular-61" transform="translate(960.99971 0)"/>
     <use xlink:href="#STIXGeneral-Regular-70" transform="translate(1005.399704 0)"/>
     <use xlink:href="#STIXGeneral-Regular-61" transform="translate(1055.399689 0)"/>
     <use xlink:href="#STIXGeneral-Regular-63" transform="translate(1099.799683 0)"/>
     <use xlink:href="#STIXGeneral-Regular-69" transform="translate(1144.199677 0)"/>
     <use xlink:href="#STIXGeneral-Regular-74" transform="translate(1171.999664 0)"/>
     <use xlink:href="#STIXGeneral-Regular-61" transform="translate(1199.799652 0)"/>
     <use xlink:href="#STIXGeneral-Regular-6e" transform="translate(1244.199646 0)"/>
     <use xlink:href="#STIXGeneral-Regular-63" transform="translate(1294.199631 0)"/>
     <use xlink:href="#STIXGeneral-Regular-65" transform="translate(1338.599625 0)"/>
    </g>
   </g>
   <g id="legend_1">
    <g id="patch_7">
     <path d="M 445.505 33.89275 
L 524.42 33.89275 
Q 526.02 33.89275 526.02 32.29275 
L 526.02 21.7565 
Q 526.02 20.1565 524.42 20.1565 
L 445.505 20.1565 
Q 443.905 20.1565 443.905 21.7565 
L 443.905 32.29275 
Q 443.905 33.89275 445.505 33.89275 
z
" style="fill: #ffffff; opacity: 0.95; stroke: #cccccc; stroke-linejoin: miter"/>
    </g>
    <g id="line2d_138">
     <path d="M 447.105 26.1565 
L 455.105 26.1565 
L 463.105 26.1565 
" style="fill: none; stroke: #0c5da5; stroke-linecap: square"/>
    </g>
    <g id="text_19">
     <!-- low_capacitance -->
     <g transform="translate(469.505 28.9565) scale(0.08 -0.08)">
      <use xlink:href="#STIXGeneral-Regular-6c"/>
      <use xlink:href="#STIXGeneral-Regular-6f" transform="translate(27.799988 0)"/>
      <use xlink:href="#STIXGeneral-Regular-77" transform="translate(77.799973 0)"/>
      <use xlink:href="#STIXGeneral-Regular-5f" transform="translate(149.999954 0)"/>
      <use xlink:href="#STIXGeneral-Regular-63" transform="translate(199.999939 0)"/>
      <use xlink:href="#STIXGeneral-Regular-61" transform="translate(244.399933 0)"/>
      <use xlink:href="#STIXGeneral-Regular-70" transform="translate(288.799927 0)"/>
      <use xlink:href="#STIXGeneral-Regular-61" transform="translate(338.799911 0)"/>
      <use xlink:href="#STIXGeneral-Regular-63" transform="translate(383.199905 0)"/>
      <use xlink:href="#STIXGeneral-Regular-69" transform="translate(427.599899 0)"/>
      <use xlink:href="#STIXGeneral-Regular-74" transform="translate(455.399887 0)"/>
      <use xlink:href="#STIXGeneral-Regular-61" transform="translate(483.199875 0)"/>
      <use xlink:href="#STIXGeneral-Regular-6e" transform="translate(527.599869 0)"/>
      <use xlink:href="#STIXGeneral-Regular-63" transform="translate(577.599854 0)"/>
      <use xlink:href="#STIXGeneral-Regular-65" transform="translate(621.999847 0)"/>
     </g>
    </g>
   </g>
  </g>
 </g>
 <defs>
  <clipPath id="p8d2b20a7c9">
   <rect x="27.82" y="16.1565" width="502.2" height="249.48"/>
  </clipPath>
 </defs>
</svg>
