<?xml version="1.0" encoding="utf-8" standalone="no"?>
<!DOCTYPE svg PUBLIC "-//W3C//DTD SVG 1.1//EN"
  "http://www.w3.org/Graphics/SVG/1.1/DTD/svg11.dtd">
<svg xmlns:xlink="http://www.w3.org/1999/xlink" width="538.62pt" height="291.1365pt" viewBox="0 0 538.62 291.1365" xmlns="http://www.w3.org/2000/svg" version="1.1">
 <metadata>
  <rdf:RDF xmlns:dc="http://purl.org/dc/elements/1.1/" xmlns:cc="http://creativecommons.org/ns#" xmlns:rdf="http://www.w3.org/1999/02/22-rdf-syntax-ns#">
   <cc:Work>
    <dc:type rdf:resource="http://purl.org/dc/dcmitype/StillImage"/>
    <dc:date>2026-06-07T13:54:41.064782</dc:date>
    <dc:format>image/svg+xml</dc:format>
    <dc:creator>
     <cc:Agent>
      <dc:title>Matplotlib v3.10.9, https://matplotlib.org/</dc:title>
     </cc:Agent>
    </dc:creator>
   </cc:Work>
  </rdf:RDF>
 </metadata>
 <defs>
  <style type="text/css">*{stroke-linejoin: round; stroke-linecap: butt}</style>
 </defs>
 <g id="figure_1">
  <g id="patch_1">
   <path d="M 0 291.1365 
L 538.62 291.1365 
L 538.62 0 
L 0 0 
z
" style="fill: #ffffff"/>
  </g>
  <g id="axes_1">
   <g id="patch_2">
    <path d="M 27.82 265.6365 
L 530.02 265.6365 
L 530.02 16.1565 
L 27.82 16.1565 
z
" style="fill: #ffffff"/>
   </g>
   <g id="matplotlib.axis_1">
    <g id="xtick_1">
     <g id="line2d_1">
      <path d="M 27.82 265.6365 
L 27.82 16.1565 
" clip-path="url(#p53d1ea033a)" style="fill: none; stroke-dasharray: 2.96,1.28; stroke-dashoffset: 0; stroke: #b0b0b0; stroke-opacity: 0.3; stroke-width: 0.8"/>
     </g>
     <g id="line2d_2">
      <defs>
       <path id="m5bfd40165c" d="M 0 0 
L 0 -3 
" style="stroke: #000000; stroke-width: 0.5"/>
      </defs>
      <g>
       <use xlink:href="#m5bfd40165c" x="27.82" y="265.6365" style="stroke: #000000; stroke-width: 0.5"/>
      </g>
     </g>
     <g id="line2d_3">
      <defs>
       <path id="mffabb47f16" d="M 0 0 
L 0 3 
" style="stroke: #000000; stroke-width: 0.5"/>
      </defs>
      <g>
       <use xlink:href="#mffabb47f16" x="27.82" y="16.1565" style="stroke: #000000; stroke-width: 0.5"/>
      </g>
     </g>
     <g id="text_1">
      <!-- $\mathdefault{0.0}$ -->
      <g transform="translate(22.82 274.60025) scale(0.08 -0.08)">
       <defs>
        <path id="STIXGeneral-Regular-30" d="M 3046 2112 
Q 3046 1683 2963 1302 
Q 2880 922 2717 602 
Q 2554 282 2266 96 
Q 1978 -90 1600 -90 
Q 1210 -90 915 108 
Q 621 307 461 640 
Q 301 973 227 1350 
Q 154 1728 154 2150 
Q 154 2746 301 3222 
Q 448 3699 790 4012 
Q 1133 4326 1626 4326 
Q 2253 4326 2649 3712 
Q 3046 3098 3046 2112 
z
M 2432 2080 
Q 2432 3091 2217 3625 
Q 2003 4160 1587 4160 
Q 1190 4160 979 3622 
Q 768 3085 768 2106 
Q 768 1120 979 598 
Q 1190 77 1600 77 
Q 2003 77 2217 598 
Q 2432 1120 2432 2080 
z
" transform="scale(0.015625)"/>
        <path id="STIXGeneral-Regular-2e" d="M 1158 275 
Q 1158 134 1052 32 
Q 947 -70 800 -70 
Q 653 -70 550 32 
Q 448 134 448 281 
Q 448 429 553 534 
Q 659 640 806 640 
Q 947 640 1052 531 
Q 1158 422 1158 275 
z
" transform="scale(0.015625)"/>
       </defs>
       <use xlink:href="#STIXGeneral-Regular-30" transform="translate(0 0.40625)"/>
       <use xlink:href="#STIXGeneral-Regular-2e" transform="translate(49.999985 0.40625)"/>
       <use xlink:href="#STIXGeneral-Regular-30" transform="translate(74.999969 0.40625)"/>
      </g>
     </g>
    </g>
    <g id="xtick_2">
     <g id="line2d_4">
      <path d="M 90.595 265.6365 
L 90.595 16.1565 
" clip-path="url(#p53d1ea033a)" style="fill: none; stroke-dasharray: 2.96,1.28; stroke-dashoffset: 0; stroke: #b0b0b0; stroke-opacity: 0.3; stroke-width: 0.8"/>
     </g>
     <g id="line2d_5">
      <g>
       <use xlink:href="#m5bfd40165c" x="90.595" y="265.6365" style="stroke: #000000; stroke-width: 0.5"/>
      </g>
     </g>
     <g id="line2d_6">
      <g>
       <use xlink:href="#mffabb47f16" x="90.595" y="16.1565" style="stroke: #000000; stroke-width: 0.5"/>
      </g>
     </g>
     <g id="text_2">
      <!-- $\mathdefault{0.5}$ -->
      <g transform="translate(85.595 274.60025) scale(0.08 -0.08)">
       <defs>
        <path id="STIXGeneral-Regular-35" d="M 2803 4358 
L 2573 3814 
Q 2534 3731 2400 3731 
L 1158 3731 
L 902 3187 
Q 1606 3053 1920 2896 
Q 2234 2739 2502 2368 
Q 2726 2061 2726 1555 
Q 2726 1094 2576 780 
Q 2426 467 2099 224 
Q 1664 -90 1011 -90 
Q 646 -90 422 19 
Q 198 128 198 307 
Q 198 550 486 550 
Q 717 550 960 352 
Q 1210 147 1414 147 
Q 1747 147 2012 480 
Q 2278 813 2278 1229 
Q 2278 1843 1850 2189 
Q 1293 2637 486 2637 
Q 410 2637 410 2688 
L 416 2720 
L 1114 4237 
L 2438 4237 
Q 2547 4237 2608 4269 
Q 2669 4301 2746 4403 
L 2803 4358 
z
" transform="scale(0.015625)"/>
       </defs>
       <use xlink:href="#STIXGeneral-Regular-30" transform="translate(0 0.203125)"/>
       <use xlink:href="#STIXGeneral-Regular-2e" transform="translate(49.999985 0.203125)"/>
       <use xlink:href="#STIXGeneral-Regular-35" transform="translate(74.999969 0.203125)"/>
      </g>
     </g>
    </g>
    <g id="xtick_3">
     <g id="line2d_7">
      <path d="M 153.37 265.6365 
L 153.37 16.1565 
" clip-path="url(#p53d1ea033a)" style="fill: none; stroke-dasharray: 2.96,1.28; stroke-dashoffset: 0; stroke: #b0b0b0; stroke-opacity: 0.3; stroke-width: 0.8"/>
     </g>
     <g id="line2d_8">
      <g>
       <use xlink:href="#m5bfd40165c" x="153.37" y="265.6365" style="stroke: #000000; stroke-width: 0.5"/>
      </g>
     </g>
     <g id="line2d_9">
      <g>
       <use xlink:href="#mffabb47f16" x="153.37" y="16.1565" style="stroke: #000000; stroke-width: 0.5"/>
      </g>
     </g>
     <g id="text_3">
      <!-- $\mathdefault{1.0}$ -->
      <g transform="translate(148.37 274.60025) scale(0.08 -0.08)">
       <defs>
        <path id="STIXGeneral-Regular-31" d="M 2522 0 
L 755 0 
L 755 96 
Q 1107 115 1235 227 
Q 1363 339 1363 608 
L 1363 3482 
Q 1363 3795 1171 3795 
Q 1082 3795 883 3718 
L 710 3654 
L 710 3744 
L 1856 4326 
L 1914 4307 
L 1914 486 
Q 1914 275 2042 185 
Q 2170 96 2522 96 
L 2522 0 
z
" transform="scale(0.015625)"/>
       </defs>
       <use xlink:href="#STIXGeneral-Regular-31" transform="translate(0 0.40625)"/>
       <use xlink:href="#STIXGeneral-Regular-2e" transform="translate(49.999985 0.40625)"/>
       <use xlink:href="#STIXGeneral-Regular-30" transform="translate(74.999969 0.40625)"/>
      </g>
     </g>
    </g>
    <g id="xtick_4">
     <g id="line2d_10">
      <path d="M 216.145 265.6365 
L 216.145 16.1565 
" clip-path="url(#p53d1ea033a)" style="fill: none; stroke-dasharray: 2.96,1.28; stroke-dashoffset: 0; stroke: #b0b0b0; stroke-opacity: 0.3; stroke-width: 0.8"/>
     </g>
     <g id="line2d_11">
      <g>
       <use xlink:href="#m5bfd40165c" x="216.145" y="265.6365" style="stroke: #000000; stroke-width: 0.5"/>
      </g>
     </g>
     <g id="line2d_12">
      <g>
       <use xlink:href="#mffabb47f16" x="216.145" y="16.1565" style="stroke: #000000; stroke-width: 0.5"/>
      </g>
     </g>
     <g id="text_4">
      <!-- $\mathdefault{1.5}$ -->
      <g transform="translate(211.145 274.60025) scale(0.08 -0.08)">
       <use xlink:href="#STIXGeneral-Regular-31" transform="translate(0 0.203125)"/>
       <use xlink:href="#STIXGeneral-Regular-2e" transform="translate(49.999985 0.203125)"/>
       <use xlink:href="#STIXGeneral-Regular-35" transform="translate(74.999969 0.203125)"/>
      </g>
     </g>
    </g>
    <g id="xtick_5">
     <g id="line2d_13">
      <path d="M 278.92 265.6365 
L 278.92 16.1565 
" clip-path="url(#p53d1ea033a)" style="fill: none; stroke-dasharray: 2.96,1.28; stroke-dashoffset: 0; stroke: #b0b0b0; stroke-opacity: 0.3; stroke-width: 0.8"/>
     </g>
     <g id="line2d_14">
      <g>
       <use xlink:href="#m5bfd40165c" x="278.92" y="265.6365" style="stroke: #000000; stroke-width: 0.5"/>
      </g>
     </g>
     <g id="line2d_15">
      <g>
       <use xlink:href="#mffabb47f16" x="278.92" y="16.1565" style="stroke: #000000; stroke-width: 0.5"/>
      </g>
     </g>
     <g id="text_5">
      <!-- $\mathdefault{2.0}$ -->
      <g transform="translate(273.92 274.60025) scale(0.08 -0.08)">
       <defs>
        <path id="STIXGeneral-Regular-32" d="M 3034 877 
L 2688 0 
L 186 0 
L 186 77 
L 1325 1286 
Q 1773 1754 1965 2144 
Q 2157 2534 2157 2950 
Q 2157 3379 1920 3616 
Q 1683 3853 1267 3853 
Q 922 3853 720 3673 
Q 518 3494 326 3021 
L 192 3053 
Q 301 3648 630 3987 
Q 960 4326 1523 4326 
Q 2054 4326 2380 4006 
Q 2707 3686 2707 3200 
Q 2707 2477 1888 1613 
L 832 486 
L 2330 486 
Q 2541 486 2665 569 
Q 2790 653 2944 915 
L 3034 877 
z
" transform="scale(0.015625)"/>
       </defs>
       <use xlink:href="#STIXGeneral-Regular-32" transform="translate(0 0.40625)"/>
       <use xlink:href="#STIXGeneral-Regular-2e" transform="translate(49.999985 0.40625)"/>
       <use xlink:href="#STIXGeneral-Regular-30" transform="translate(74.999969 0.40625)"/>
      </g>
     </g>
    </g>
    <g id="xtick_6">
     <g id="line2d_16">
      <path d="M 341.695 265.6365 
L 341.695 16.1565 
" clip-path="url(#p53d1ea033a)" style="fill: none; stroke-dasharray: 2.96,1.28; stroke-dashoffset: 0; stroke: #b0b0b0; stroke-opacity: 0.3; stroke-width: 0.8"/>
     </g>
     <g id="line2d_17">
      <g>
       <use xlink:href="#m5bfd40165c" x="341.695" y="265.6365" style="stroke: #000000; stroke-width: 0.5"/>
      </g>
     </g>
     <g id="line2d_18">
      <g>
       <use xlink:href="#mffabb47f16" x="341.695" y="16.1565" style="stroke: #000000; stroke-width: 0.5"/>
      </g>
     </g>
     <g id="text_6">
      <!-- $\mathdefault{2.5}$ -->
      <g transform="translate(336.695 274.60025) scale(0.08 -0.08)">
       <use xlink:href="#STIXGeneral-Regular-32" transform="translate(0 0.203125)"/>
       <use xlink:href="#STIXGeneral-Regular-2e" transform="translate(49.999985 0.203125)"/>
       <use xlink:href="#STIXGeneral-Regular-35" transform="translate(74.999969 0.203125)"/>
      </g>
     </g>
    </g>
    <g id="xtick_7">
     <g id="line2d_19">
      <path d="M 404.47 265.6365 
L 404.47 16.1565 
" clip-path="url(#p53d1ea033a)" style="fill: none; stroke-dasharray: 2.96,1.28; stroke-dashoffset: 0; stroke: #b0b0b0; stroke-opacity: 0.3; stroke-width: 0.8"/>
     </g>
     <g id="line2d_20">
      <g>
       <use xlink:href="#m5bfd40165c" x="404.47" y="265.6365" style="stroke: #000000; stroke-width: 0.5"/>
      </g>
     </g>
     <g id="line2d_21">
      <g>
       <use xlink:href="#mffabb47f16" x="404.47" y="16.1565" style="stroke: #000000; stroke-width: 0.5"/>
      </g>
     </g>
     <g id="text_7">
      <!-- $\mathdefault{3.0}$ -->
      <g transform="translate(399.47 274.60025) scale(0.08 -0.08)">
       <defs>
        <path id="STIXGeneral-Regular-33" d="M 390 3264 
L 288 3290 
Q 435 3770 748 4048 
Q 1062 4326 1542 4326 
Q 1990 4326 2265 4083 
Q 2541 3840 2541 3450 
Q 2541 2925 1946 2566 
Q 2298 2413 2477 2227 
Q 2758 1914 2758 1402 
Q 2758 890 2464 506 
Q 2246 211 1840 60 
Q 1434 -90 979 -90 
Q 262 -90 262 275 
Q 262 378 339 442 
Q 416 506 525 506 
Q 685 506 915 339 
Q 1197 141 1466 141 
Q 1818 141 2058 425 
Q 2298 710 2298 1120 
Q 2298 1856 1632 2048 
Q 1434 2112 979 2112 
L 979 2202 
Q 1338 2323 1517 2432 
Q 2035 2726 2035 3290 
Q 2035 3610 1852 3776 
Q 1670 3942 1344 3942 
Q 768 3942 390 3264 
z
" transform="scale(0.015625)"/>
       </defs>
       <use xlink:href="#STIXGeneral-Regular-33" transform="translate(0 0.40625)"/>
       <use xlink:href="#STIXGeneral-Regular-2e" transform="translate(49.999985 0.40625)"/>
       <use xlink:href="#STIXGeneral-Regular-30" transform="translate(74.999969 0.40625)"/>
      </g>
     </g>
    </g>
    <g id="xtick_8">
     <g id="line2d_22">
      <path d="M 467.245 265.6365 
L 467.245 16.1565 
" clip-path="url(#p53d1ea033a)" style="fill: none; stroke-dasharray: 2.96,1.28; stroke-dashoffset: 0; stroke: #b0b0b0; stroke-opacity: 0.3; stroke-width: 0.8"/>
     </g>
     <g id="line2d_23">
      <g>
       <use xlink:href="#m5bfd40165c" x="467.245" y="265.6365" style="stroke: #000000; stroke-width: 0.5"/>
      </g>
     </g>
     <g id="line2d_24">
      <g>
       <use xlink:href="#mffabb47f16" x="467.245" y="16.1565" style="stroke: #000000; stroke-width: 0.5"/>
      </g>
     </g>
     <g id="text_8">
      <!-- $\mathdefault{3.5}$ -->
      <g transform="translate(462.245 274.60025) scale(0.08 -0.08)">
       <use xlink:href="#STIXGeneral-Regular-33" transform="translate(0 0.203125)"/>
       <use xlink:href="#STIXGeneral-Regular-2e" transform="translate(49.999985 0.203125)"/>
       <use xlink:href="#STIXGeneral-Regular-35" transform="translate(74.999969 0.203125)"/>
      </g>
     </g>
    </g>
    <g id="xtick_9">
     <g id="line2d_25">
      <path d="M 530.02 265.6365 
L 530.02 16.1565 
" clip-path="url(#p53d1ea033a)" style="fill: none; stroke-dasharray: 2.96,1.28; stroke-dashoffset: 0; stroke: #b0b0b0; stroke-opacity: 0.3; stroke-width: 0.8"/>
     </g>
     <g id="line2d_26">
      <g>
       <use xlink:href="#m5bfd40165c" x="530.02" y="265.6365" style="stroke: #000000; stroke-width: 0.5"/>
      </g>
     </g>
     <g id="line2d_27">
      <g>
       <use xlink:href="#mffabb47f16" x="530.02" y="16.1565" style="stroke: #000000; stroke-width: 0.5"/>
      </g>
     </g>
     <g id="text_9">
      <!-- $\mathdefault{4.0}$ -->
      <g transform="translate(525.02 274.60025) scale(0.08 -0.08)">
       <defs>
        <path id="STIXGeneral-Regular-34" d="M 3027 1069 
L 2368 1069 
L 2368 0 
L 1869 0 
L 1869 1069 
L 77 1069 
L 77 1478 
L 2086 4326 
L 2368 4326 
L 2368 1478 
L 3027 1478 
L 3027 1069 
z
M 1869 1478 
L 1869 3674 
L 333 1478 
L 1869 1478 
z
" transform="scale(0.015625)"/>
       </defs>
       <use xlink:href="#STIXGeneral-Regular-34" transform="translate(0 0.40625)"/>
       <use xlink:href="#STIXGeneral-Regular-2e" transform="translate(49.999985 0.40625)"/>
       <use xlink:href="#STIXGeneral-Regular-30" transform="translate(74.999969 0.40625)"/>
      </g>
     </g>
    </g>
    <g id="xtick_10">
     <g id="line2d_28">
      <defs>
       <path id="me9322f1719" d="M 0 0 
L 0 -1.5 
" style="stroke: #000000; stroke-width: 0.5"/>
      </defs>
      <g>
       <use xlink:href="#me9322f1719" x="40.375" y="265.6365" style="stroke: #000000; stroke-width: 0.5"/>
      </g>
     </g>
     <g id="line2d_29">
      <defs>
       <path id="mf1db257bf6" d="M 0 0 
L 0 1.5 
" style="stroke: #000000; stroke-width: 0.5"/>
      </defs>
      <g>
       <use xlink:href="#mf1db257bf6" x="40.375" y="16.1565" style="stroke: #000000; stroke-width: 0.5"/>
      </g>
     </g>
    </g>
    <g id="xtick_11">
     <g id="line2d_30">
      <g>
       <use xlink:href="#me9322f1719" x="52.93" y="265.6365" style="stroke: #000000; stroke-width: 0.5"/>
      </g>
     </g>
     <g id="line2d_31">
      <g>
       <use xlink:href="#mf1db257bf6" x="52.93" y="16.1565" style="stroke: #000000; stroke-width: 0.5"/>
      </g>
     </g>
    </g>
    <g id="xtick_12">
     <g id="line2d_32">
      <g>
       <use xlink:href="#me9322f1719" x="65.485" y="265.6365" style="stroke: #000000; stroke-width: 0.5"/>
      </g>
     </g>
     <g id="line2d_33">
      <g>
       <use xlink:href="#mf1db257bf6" x="65.485" y="16.1565" style="stroke: #000000; stroke-width: 0.5"/>
      </g>
     </g>
    </g>
    <g id="xtick_13">
     <g id="line2d_34">
      <g>
       <use xlink:href="#me9322f1719" x="78.04" y="265.6365" style="stroke: #000000; stroke-width: 0.5"/>
      </g>
     </g>
     <g id="line2d_35">
      <g>
       <use xlink:href="#mf1db257bf6" x="78.04" y="16.1565" style="stroke: #000000; stroke-width: 0.5"/>
      </g>
     </g>
    </g>
    <g id="xtick_14">
     <g id="line2d_36">
      <g>
       <use xlink:href="#me9322f1719" x="103.15" y="265.6365" style="stroke: #000000; stroke-width: 0.5"/>
      </g>
     </g>
     <g id="line2d_37">
      <g>
       <use xlink:href="#mf1db257bf6" x="103.15" y="16.1565" style="stroke: #000000; stroke-width: 0.5"/>
      </g>
     </g>
    </g>
    <g id="xtick_15">
     <g id="line2d_38">
      <g>
       <use xlink:href="#me9322f1719" x="115.705" y="265.6365" style="stroke: #000000; stroke-width: 0.5"/>
      </g>
     </g>
     <g id="line2d_39">
      <g>
       <use xlink:href="#mf1db257bf6" x="115.705" y="16.1565" style="stroke: #000000; stroke-width: 0.5"/>
      </g>
     </g>
    </g>
    <g id="xtick_16">
     <g id="line2d_40">
      <g>
       <use xlink:href="#me9322f1719" x="128.26" y="265.6365" style="stroke: #000000; stroke-width: 0.5"/>
      </g>
     </g>
     <g id="line2d_41">
      <g>
       <use xlink:href="#mf1db257bf6" x="128.26" y="16.1565" style="stroke: #000000; stroke-width: 0.5"/>
      </g>
     </g>
    </g>
    <g id="xtick_17">
     <g id="line2d_42">
      <g>
       <use xlink:href="#me9322f1719" x="140.815" y="265.6365" style="stroke: #000000; stroke-width: 0.5"/>
      </g>
     </g>
     <g id="line2d_43">
      <g>
       <use xlink:href="#mf1db257bf6" x="140.815" y="16.1565" style="stroke: #000000; stroke-width: 0.5"/>
      </g>
     </g>
    </g>
    <g id="xtick_18">
     <g id="line2d_44">
      <g>
       <use xlink:href="#me9322f1719" x="165.925" y="265.6365" style="stroke: #000000; stroke-width: 0.5"/>
      </g>
     </g>
     <g id="line2d_45">
      <g>
       <use xlink:href="#mf1db257bf6" x="165.925" y="16.1565" style="stroke: #000000; stroke-width: 0.5"/>
      </g>
     </g>
    </g>
    <g id="xtick_19">
     <g id="line2d_46">
      <g>
       <use xlink:href="#me9322f1719" x="178.48" y="265.6365" style="stroke: #000000; stroke-width: 0.5"/>
      </g>
     </g>
     <g id="line2d_47">
      <g>
       <use xlink:href="#mf1db257bf6" x="178.48" y="16.1565" style="stroke: #000000; stroke-width: 0.5"/>
      </g>
     </g>
    </g>
    <g id="xtick_20">
     <g id="line2d_48">
      <g>
       <use xlink:href="#me9322f1719" x="191.035" y="265.6365" style="stroke: #000000; stroke-width: 0.5"/>
      </g>
     </g>
     <g id="line2d_49">
      <g>
       <use xlink:href="#mf1db257bf6" x="191.035" y="16.1565" style="stroke: #000000; stroke-width: 0.5"/>
      </g>
     </g>
    </g>
    <g id="xtick_21">
     <g id="line2d_50">
      <g>
       <use xlink:href="#me9322f1719" x="203.59" y="265.6365" style="stroke: #000000; stroke-width: 0.5"/>
      </g>
     </g>
     <g id="line2d_51">
      <g>
       <use xlink:href="#mf1db257bf6" x="203.59" y="16.1565" style="stroke: #000000; stroke-width: 0.5"/>
      </g>
     </g>
    </g>
    <g id="xtick_22">
     <g id="line2d_52">
      <g>
       <use xlink:href="#me9322f1719" x="228.7" y="265.6365" style="stroke: #000000; stroke-width: 0.5"/>
      </g>
     </g>
     <g id="line2d_53">
      <g>
       <use xlink:href="#mf1db257bf6" x="228.7" y="16.1565" style="stroke: #000000; stroke-width: 0.5"/>
      </g>
     </g>
    </g>
    <g id="xtick_23">
     <g id="line2d_54">
      <g>
       <use xlink:href="#me9322f1719" x="241.255" y="265.6365" style="stroke: #000000; stroke-width: 0.5"/>
      </g>
     </g>
     <g id="line2d_55">
      <g>
       <use xlink:href="#mf1db257bf6" x="241.255" y="16.1565" style="stroke: #000000; stroke-width: 0.5"/>
      </g>
     </g>
    </g>
    <g id="xtick_24">
     <g id="line2d_56">
      <g>
       <use xlink:href="#me9322f1719" x="253.81" y="265.6365" style="stroke: #000000; stroke-width: 0.5"/>
      </g>
     </g>
     <g id="line2d_57">
      <g>
       <use xlink:href="#mf1db257bf6" x="253.81" y="16.1565" style="stroke: #000000; stroke-width: 0.5"/>
      </g>
     </g>
    </g>
    <g id="xtick_25">
     <g id="line2d_58">
      <g>
       <use xlink:href="#me9322f1719" x="266.365" y="265.6365" style="stroke: #000000; stroke-width: 0.5"/>
      </g>
     </g>
     <g id="line2d_59">
      <g>
       <use xlink:href="#mf1db257bf6" x="266.365" y="16.1565" style="stroke: #000000; stroke-width: 0.5"/>
      </g>
     </g>
    </g>
    <g id="xtick_26">
     <g id="line2d_60">
      <g>
       <use xlink:href="#me9322f1719" x="291.475" y="265.6365" style="stroke: #000000; stroke-width: 0.5"/>
      </g>
     </g>
     <g id="line2d_61">
      <g>
       <use xlink:href="#mf1db257bf6" x="291.475" y="16.1565" style="stroke: #000000; stroke-width: 0.5"/>
      </g>
     </g>
    </g>
    <g id="xtick_27">
     <g id="line2d_62">
      <g>
       <use xlink:href="#me9322f1719" x="304.03" y="265.6365" style="stroke: #000000; stroke-width: 0.5"/>
      </g>
     </g>
     <g id="line2d_63">
      <g>
       <use xlink:href="#mf1db257bf6" x="304.03" y="16.1565" style="stroke: #000000; stroke-width: 0.5"/>
      </g>
     </g>
    </g>
    <g id="xtick_28">
     <g id="line2d_64">
      <g>
       <use xlink:href="#me9322f1719" x="316.585" y="265.6365" style="stroke: #000000; stroke-width: 0.5"/>
      </g>
     </g>
     <g id="line2d_65">
      <g>
       <use xlink:href="#mf1db257bf6" x="316.585" y="16.1565" style="stroke: #000000; stroke-width: 0.5"/>
      </g>
     </g>
    </g>
    <g id="xtick_29">
     <g id="line2d_66">
      <g>
       <use xlink:href="#me9322f1719" x="329.14" y="265.6365" style="stroke: #000000; stroke-width: 0.5"/>
      </g>
     </g>
     <g id="line2d_67">
      <g>
       <use xlink:href="#mf1db257bf6" x="329.14" y="16.1565" style="stroke: #000000; stroke-width: 0.5"/>
      </g>
     </g>
    </g>
    <g id="xtick_30">
     <g id="line2d_68">
      <g>
       <use xlink:href="#me9322f1719" x="354.25" y="265.6365" style="stroke: #000000; stroke-width: 0.5"/>
      </g>
     </g>
     <g id="line2d_69">
      <g>
       <use xlink:href="#mf1db257bf6" x="354.25" y="16.1565" style="stroke: #000000; stroke-width: 0.5"/>
      </g>
     </g>
    </g>
    <g id="xtick_31">
     <g id="line2d_70">
      <g>
       <use xlink:href="#me9322f1719" x="366.805" y="265.6365" style="stroke: #000000; stroke-width: 0.5"/>
      </g>
     </g>
     <g id="line2d_71">
      <g>
       <use xlink:href="#mf1db257bf6" x="366.805" y="16.1565" style="stroke: #000000; stroke-width: 0.5"/>
      </g>
     </g>
    </g>
    <g id="xtick_32">
     <g id="line2d_72">
      <g>
       <use xlink:href="#me9322f1719" x="379.36" y="265.6365" style="stroke: #000000; stroke-width: 0.5"/>
      </g>
     </g>
     <g id="line2d_73">
      <g>
       <use xlink:href="#mf1db257bf6" x="379.36" y="16.1565" style="stroke: #000000; stroke-width: 0.5"/>
      </g>
     </g>
    </g>
    <g id="xtick_33">
     <g id="line2d_74">
      <g>
       <use xlink:href="#me9322f1719" x="391.915" y="265.6365" style="stroke: #000000; stroke-width: 0.5"/>
      </g>
     </g>
     <g id="line2d_75">
      <g>
       <use xlink:href="#mf1db257bf6" x="391.915" y="16.1565" style="stroke: #000000; stroke-width: 0.5"/>
      </g>
     </g>
    </g>
    <g id="xtick_34">
     <g id="line2d_76">
      <g>
       <use xlink:href="#me9322f1719" x="417.025" y="265.6365" style="stroke: #000000; stroke-width: 0.5"/>
      </g>
     </g>
     <g id="line2d_77">
      <g>
       <use xlink:href="#mf1db257bf6" x="417.025" y="16.1565" style="stroke: #000000; stroke-width: 0.5"/>
      </g>
     </g>
    </g>
    <g id="xtick_35">
     <g id="line2d_78">
      <g>
       <use xlink:href="#me9322f1719" x="429.58" y="265.6365" style="stroke: #000000; stroke-width: 0.5"/>
      </g>
     </g>
     <g id="line2d_79">
      <g>
       <use xlink:href="#mf1db257bf6" x="429.58" y="16.1565" style="stroke: #000000; stroke-width: 0.5"/>
      </g>
     </g>
    </g>
    <g id="xtick_36">
     <g id="line2d_80">
      <g>
       <use xlink:href="#me9322f1719" x="442.135" y="265.6365" style="stroke: #000000; stroke-width: 0.5"/>
      </g>
     </g>
     <g id="line2d_81">
      <g>
       <use xlink:href="#mf1db257bf6" x="442.135" y="16.1565" style="stroke: #000000; stroke-width: 0.5"/>
      </g>
     </g>
    </g>
    <g id="xtick_37">
     <g id="line2d_82">
      <g>
       <use xlink:href="#me9322f1719" x="454.69" y="265.6365" style="stroke: #000000; stroke-width: 0.5"/>
      </g>
     </g>
     <g id="line2d_83">
      <g>
       <use xlink:href="#mf1db257bf6" x="454.69" y="16.1565" style="stroke: #000000; stroke-width: 0.5"/>
      </g>
     </g>
    </g>
    <g id="xtick_38">
     <g id="line2d_84">
      <g>
       <use xlink:href="#me9322f1719" x="479.8" y="265.6365" style="stroke: #000000; stroke-width: 0.5"/>
      </g>
     </g>
     <g id="line2d_85">
      <g>
       <use xlink:href="#mf1db257bf6" x="479.8" y="16.1565" style="stroke: #000000; stroke-width: 0.5"/>
      </g>
     </g>
    </g>
    <g id="xtick_39">
     <g id="line2d_86">
      <g>
       <use xlink:href="#me9322f1719" x="492.355" y="265.6365" style="stroke: #000000; stroke-width: 0.5"/>
      </g>
     </g>
     <g id="line2d_87">
      <g>
       <use xlink:href="#mf1db257bf6" x="492.355" y="16.1565" style="stroke: #000000; stroke-width: 0.5"/>
      </g>
     </g>
    </g>
    <g id="xtick_40">
     <g id="line2d_88">
      <g>
       <use xlink:href="#me9322f1719" x="504.91" y="265.6365" style="stroke: #000000; stroke-width: 0.5"/>
      </g>
     </g>
     <g id="line2d_89">
      <g>
       <use xlink:href="#mf1db257bf6" x="504.91" y="16.1565" style="stroke: #000000; stroke-width: 0.5"/>
      </g>
     </g>
    </g>
    <g id="xtick_41">
     <g id="line2d_90">
      <g>
       <use xlink:href="#me9322f1719" x="517.465" y="265.6365" style="stroke: #000000; stroke-width: 0.5"/>
      </g>
     </g>
     <g id="line2d_91">
      <g>
       <use xlink:href="#mf1db257bf6" x="517.465" y="16.1565" style="stroke: #000000; stroke-width: 0.5"/>
      </g>
     </g>
    </g>
    <g id="text_10">
     <!-- Time (ns) -->
     <g transform="translate(263.25625 285.80025) scale(0.08 -0.08)">
      <defs>
       <path id="STIXGeneral-Regular-54" d="M 3795 3149 
L 3642 3149 
Q 3539 3674 3353 3821 
Q 3168 3968 2656 3968 
L 2278 3968 
L 2278 710 
Q 2278 346 2387 243 
Q 2496 141 2893 122 
L 2893 0 
L 1024 0 
L 1024 122 
Q 1427 147 1526 256 
Q 1626 365 1626 787 
L 1626 3968 
L 1242 3968 
Q 723 3968 540 3817 
Q 358 3667 262 3149 
L 109 3149 
L 154 4237 
L 3750 4237 
L 3795 3149 
z
" transform="scale(0.015625)"/>
       <path id="STIXGeneral-Regular-69" d="M 1152 4045 
Q 1152 3904 1056 3811 
Q 960 3718 819 3718 
Q 685 3718 592 3811 
Q 499 3904 499 4045 
Q 499 4179 595 4275 
Q 691 4371 826 4371 
Q 966 4371 1059 4275 
Q 1152 4179 1152 4045 
z
M 1619 0 
L 102 0 
L 102 96 
Q 435 115 521 211 
Q 608 307 608 666 
L 608 2118 
Q 608 2342 563 2432 
Q 518 2522 397 2522 
Q 243 2522 128 2490 
L 128 2592 
L 1120 2944 
L 1146 2918 
L 1146 672 
Q 1146 314 1226 218 
Q 1306 122 1619 96 
L 1619 0 
z
" transform="scale(0.015625)"/>
       <path id="STIXGeneral-Regular-6d" d="M 4960 0 
L 3565 0 
L 3565 96 
Q 3834 122 3907 208 
Q 3981 294 3981 576 
L 3981 1894 
Q 3981 2278 3869 2444 
Q 3757 2611 3488 2611 
Q 3264 2611 3107 2521 
Q 2950 2432 2803 2221 
L 2803 608 
Q 2803 301 2896 201 
Q 2989 102 3264 96 
L 3264 0 
L 1830 0 
L 1830 96 
Q 2112 115 2189 188 
Q 2266 262 2266 550 
L 2266 1901 
Q 2266 2611 1850 2611 
Q 1670 2611 1468 2531 
Q 1267 2451 1171 2336 
Q 1088 2240 1088 2227 
L 1088 448 
Q 1088 243 1177 176 
Q 1267 109 1523 96 
L 1523 0 
L 102 0 
L 102 96 
Q 371 102 460 195 
Q 550 288 550 563 
L 550 2150 
Q 550 2387 499 2480 
Q 448 2573 326 2573 
Q 230 2573 122 2547 
L 122 2656 
Q 557 2778 1011 2944 
L 1062 2925 
L 1062 2451 
L 1075 2451 
Q 1363 2752 1584 2848 
Q 1805 2944 2054 2944 
Q 2560 2944 2733 2406 
Q 3232 2944 3776 2944 
Q 4518 2944 4518 1792 
L 4518 493 
Q 4518 282 4582 202 
Q 4646 122 4794 109 
L 4960 96 
L 4960 0 
z
" transform="scale(0.015625)"/>
       <path id="STIXGeneral-Regular-65" d="M 2611 1050 
L 2714 1005 
Q 2330 -64 1376 -64 
Q 813 -64 486 329 
Q 160 723 160 1389 
Q 160 2074 525 2509 
Q 890 2944 1485 2944 
Q 2061 2944 2374 2502 
Q 2560 2246 2592 1773 
L 621 1773 
Q 646 1370 700 1158 
Q 755 947 915 730 
Q 1184 378 1626 378 
Q 1939 378 2153 531 
Q 2368 685 2611 1050 
z
M 634 1978 
L 1939 1978 
Q 1882 2381 1750 2547 
Q 1619 2714 1312 2714 
Q 1043 2714 864 2525 
Q 685 2336 634 1978 
z
" transform="scale(0.015625)"/>
       <path id="STIXGeneral-Regular-20" transform="scale(0.015625)"/>
       <path id="STIXGeneral-Regular-28" d="M 1946 -1030 
L 1869 -1133 
Q 1126 -710 716 32 
Q 307 774 307 1613 
Q 307 3386 1888 4326 
L 1946 4224 
Q 1293 3667 1075 3126 
Q 858 2586 858 1632 
Q 858 685 1082 96 
Q 1306 -493 1946 -1030 
z
" transform="scale(0.015625)"/>
       <path id="STIXGeneral-Regular-6e" d="M 3104 0 
L 1773 0 
L 1779 96 
Q 2016 115 2096 233 
Q 2176 352 2176 672 
L 2176 1946 
Q 2176 2592 1709 2592 
Q 1549 2592 1408 2515 
Q 1267 2438 1050 2227 
L 1050 461 
Q 1050 269 1136 192 
Q 1222 115 1466 96 
L 1466 0 
L 115 0 
L 115 96 
Q 358 115 435 214 
Q 512 314 512 602 
L 512 2157 
Q 512 2394 467 2483 
Q 422 2573 288 2573 
Q 160 2573 102 2547 
L 102 2656 
Q 550 2784 979 2944 
L 1030 2925 
L 1030 2426 
L 1037 2426 
Q 1491 2944 1958 2944 
Q 2323 2944 2518 2688 
Q 2714 2432 2714 1958 
L 2714 544 
Q 2714 288 2790 205 
Q 2867 122 3104 96 
L 3104 0 
z
" transform="scale(0.015625)"/>
       <path id="STIXGeneral-Regular-73" d="M 998 1926 
L 1664 1523 
Q 1984 1331 2105 1164 
Q 2227 998 2227 736 
Q 2227 416 1961 176 
Q 1696 -64 1331 -64 
Q 1030 -64 864 -6 
Q 691 51 570 51 
Q 461 51 416 -26 
L 333 -26 
L 333 979 
L 435 979 
Q 538 512 730 294 
Q 922 77 1248 77 
Q 1485 77 1632 211 
Q 1779 346 1779 550 
Q 1779 845 1440 1030 
L 1094 1222 
Q 326 1651 326 2150 
Q 326 2522 566 2730 
Q 806 2938 1210 2938 
Q 1491 2938 1638 2867 
Q 1754 2816 1818 2816 
Q 1862 2816 1920 2880 
L 1990 2880 
L 2022 2010 
L 1926 2010 
Q 1818 2445 1654 2621 
Q 1491 2797 1203 2797 
Q 986 2797 854 2688 
Q 723 2579 723 2362 
Q 723 2253 796 2128 
Q 870 2003 998 1926 
z
" transform="scale(0.015625)"/>
       <path id="STIXGeneral-Regular-29" d="M 186 4224 
L 262 4326 
Q 992 3891 1408 3148 
Q 1824 2406 1824 1581 
Q 1824 -166 243 -1133 
L 186 -1030 
Q 845 -486 1059 54 
Q 1274 595 1274 1562 
Q 1274 2534 1059 3120 
Q 845 3706 186 4224 
z
" transform="scale(0.015625)"/>
      </defs>
      <use xlink:href="#STIXGeneral-Regular-54"/>
      <use xlink:href="#STIXGeneral-Regular-69" transform="translate(61.099991 0)"/>
      <use xlink:href="#STIXGeneral-Regular-6d" transform="translate(88.899979 0)"/>
      <use xlink:href="#STIXGeneral-Regular-65" transform="translate(166.699966 0)"/>
      <use xlink:href="#STIXGeneral-Regular-20" transform="translate(211.09996 0)"/>
      <use xlink:href="#STIXGeneral-Regular-28" transform="translate(236.099945 0)"/>
      <use xlink:href="#STIXGeneral-Regular-6e" transform="translate(269.399933 0)"/>
      <use xlink:href="#STIXGeneral-Regular-73" transform="translate(319.399918 0)"/>
      <use xlink:href="#STIXGeneral-Regular-29" transform="translate(358.299911 0)"/>
     </g>
    </g>
   </g>
   <g id="matplotlib.axis_2">
    <g id="ytick_1">
     <g id="line2d_92">
      <path d="M 27.82 242.494479 
L 530.02 242.494479 
" clip-path="url(#p53d1ea033a)" style="fill: none; stroke-dasharray: 2.96,1.28; stroke-dashoffset: 0; stroke: #b0b0b0; stroke-opacity: 0.3; stroke-width: 0.8"/>
     </g>
     <g id="line2d_93">
      <defs>
       <path id="maa747bcba9" d="M 0 0 
L 3 0 
" style="stroke: #000000; stroke-width: 0.5"/>
      </defs>
      <g>
       <use xlink:href="#maa747bcba9" x="27.82" y="242.494479" style="stroke: #000000; stroke-width: 0.5"/>
      </g>
     </g>
     <g id="line2d_94">
      <defs>
       <path id="m18260a2a33" d="M 0 0 
L -3 0 
" style="stroke: #000000; stroke-width: 0.5"/>
      </defs>
      <g>
       <use xlink:href="#m18260a2a33" x="530.02" y="242.494479" style="stroke: #000000; stroke-width: 0.5"/>
      </g>
     </g>
     <g id="text_11">
      <!-- $\mathdefault{−4}$ -->
      <g transform="translate(14.8 245.226354) scale(0.08 -0.08)">
       <defs>
        <path id="STIXGeneral-Regular-2212" d="M 3974 1408 
L 410 1408 
L 410 1830 
L 3974 1830 
L 3974 1408 
z
" transform="scale(0.015625)"/>
       </defs>
       <use xlink:href="#STIXGeneral-Regular-2212" transform="translate(0 0.40625)"/>
       <use xlink:href="#STIXGeneral-Regular-34" transform="translate(68.499985 0.40625)"/>
      </g>
     </g>
    </g>
    <g id="ytick_2">
     <g id="line2d_95">
      <path d="M 27.82 187.801383 
L 530.02 187.801383 
" clip-path="url(#p53d1ea033a)" style="fill: none; stroke-dasharray: 2.96,1.28; stroke-dashoffset: 0; stroke: #b0b0b0; stroke-opacity: 0.3; stroke-width: 0.8"/>
     </g>
     <g id="line2d_96">
      <g>
       <use xlink:href="#maa747bcba9" x="27.82" y="187.801383" style="stroke: #000000; stroke-width: 0.5"/>
      </g>
     </g>
     <g id="line2d_97">
      <g>
       <use xlink:href="#m18260a2a33" x="530.02" y="187.801383" style="stroke: #000000; stroke-width: 0.5"/>
      </g>
     </g>
     <g id="text_12">
      <!-- $\mathdefault{−2}$ -->
      <g transform="translate(14.8 190.533258) scale(0.08 -0.08)">
       <use xlink:href="#STIXGeneral-Regular-2212" transform="translate(0 0.40625)"/>
       <use xlink:href="#STIXGeneral-Regular-32" transform="translate(68.499985 0.40625)"/>
      </g>
     </g>
    </g>
    <g id="ytick_3">
     <g id="line2d_98">
      <path d="M 27.82 133.108288 
L 530.02 133.108288 
" clip-path="url(#p53d1ea033a)" style="fill: none; stroke-dasharray: 2.96,1.28; stroke-dashoffset: 0; stroke: #b0b0b0; stroke-opacity: 0.3; stroke-width: 0.8"/>
     </g>
     <g id="line2d_99">
      <g>
       <use xlink:href="#maa747bcba9" x="27.82" y="133.108288" style="stroke: #000000; stroke-width: 0.5"/>
      </g>
     </g>
     <g id="line2d_100">
      <g>
       <use xlink:href="#m18260a2a33" x="530.02" y="133.108288" style="stroke: #000000; stroke-width: 0.5"/>
      </g>
     </g>
     <g id="text_13">
      <!-- $\mathdefault{0}$ -->
      <g transform="translate(20.32 135.840163) scale(0.08 -0.08)">
       <use xlink:href="#STIXGeneral-Regular-30" transform="translate(0 0.40625)"/>
      </g>
     </g>
    </g>
    <g id="ytick_4">
     <g id="line2d_101">
      <path d="M 27.82 78.415193 
L 530.02 78.415193 
" clip-path="url(#p53d1ea033a)" style="fill: none; stroke-dasharray: 2.96,1.28; stroke-dashoffset: 0; stroke: #b0b0b0; stroke-opacity: 0.3; stroke-width: 0.8"/>
     </g>
     <g id="line2d_102">
      <g>
       <use xlink:href="#maa747bcba9" x="27.82" y="78.415193" style="stroke: #000000; stroke-width: 0.5"/>
      </g>
     </g>
     <g id="line2d_103">
      <g>
       <use xlink:href="#m18260a2a33" x="530.02" y="78.415193" style="stroke: #000000; stroke-width: 0.5"/>
      </g>
     </g>
     <g id="text_14">
      <!-- $\mathdefault{2}$ -->
      <g transform="translate(20.32 81.147068) scale(0.08 -0.08)">
       <use xlink:href="#STIXGeneral-Regular-32" transform="translate(0 0.40625)"/>
      </g>
     </g>
    </g>
    <g id="ytick_5">
     <g id="line2d_104">
      <path d="M 27.82 23.722097 
L 530.02 23.722097 
" clip-path="url(#p53d1ea033a)" style="fill: none; stroke-dasharray: 2.96,1.28; stroke-dashoffset: 0; stroke: #b0b0b0; stroke-opacity: 0.3; stroke-width: 0.8"/>
     </g>
     <g id="line2d_105">
      <g>
       <use xlink:href="#maa747bcba9" x="27.82" y="23.722097" style="stroke: #000000; stroke-width: 0.5"/>
      </g>
     </g>
     <g id="line2d_106">
      <g>
       <use xlink:href="#m18260a2a33" x="530.02" y="23.722097" style="stroke: #000000; stroke-width: 0.5"/>
      </g>
     </g>
     <g id="text_15">
      <!-- $\mathdefault{4}$ -->
      <g transform="translate(20.32 26.453972) scale(0.08 -0.08)">
       <use xlink:href="#STIXGeneral-Regular-34" transform="translate(0 0.40625)"/>
      </g>
     </g>
    </g>
    <g id="ytick_6">
     <g id="line2d_107">
      <defs>
       <path id="m211064aff7" d="M 0 0 
L 1.5 0 
" style="stroke: #000000; stroke-width: 0.5"/>
      </defs>
      <g>
       <use xlink:href="#m211064aff7" x="27.82" y="256.167753" style="stroke: #000000; stroke-width: 0.5"/>
      </g>
     </g>
     <g id="line2d_108">
      <defs>
       <path id="m71a6b30dc9" d="M 0 0 
L -1.5 0 
" style="stroke: #000000; stroke-width: 0.5"/>
      </defs>
      <g>
       <use xlink:href="#m71a6b30dc9" x="530.02" y="256.167753" style="stroke: #000000; stroke-width: 0.5"/>
      </g>
     </g>
    </g>
    <g id="ytick_7">
     <g id="line2d_109">
      <g>
       <use xlink:href="#m211064aff7" x="27.82" y="228.821205" style="stroke: #000000; stroke-width: 0.5"/>
      </g>
     </g>
     <g id="line2d_110">
      <g>
       <use xlink:href="#m71a6b30dc9" x="530.02" y="228.821205" style="stroke: #000000; stroke-width: 0.5"/>
      </g>
     </g>
    </g>
    <g id="ytick_8">
     <g id="line2d_111">
      <g>
       <use xlink:href="#m211064aff7" x="27.82" y="215.147931" style="stroke: #000000; stroke-width: 0.5"/>
      </g>
     </g>
     <g id="line2d_112">
      <g>
       <use xlink:href="#m71a6b30dc9" x="530.02" y="215.147931" style="stroke: #000000; stroke-width: 0.5"/>
      </g>
     </g>
    </g>
    <g id="ytick_9">
     <g id="line2d_113">
      <g>
       <use xlink:href="#m211064aff7" x="27.82" y="201.474657" style="stroke: #000000; stroke-width: 0.5"/>
      </g>
     </g>
     <g id="line2d_114">
      <g>
       <use xlink:href="#m71a6b30dc9" x="530.02" y="201.474657" style="stroke: #000000; stroke-width: 0.5"/>
      </g>
     </g>
    </g>
    <g id="ytick_10">
     <g id="line2d_115">
      <g>
       <use xlink:href="#m211064aff7" x="27.82" y="174.12811" style="stroke: #000000; stroke-width: 0.5"/>
      </g>
     </g>
     <g id="line2d_116">
      <g>
       <use xlink:href="#m71a6b30dc9" x="530.02" y="174.12811" style="stroke: #000000; stroke-width: 0.5"/>
      </g>
     </g>
    </g>
    <g id="ytick_11">
     <g id="line2d_117">
      <g>
       <use xlink:href="#m211064aff7" x="27.82" y="160.454836" style="stroke: #000000; stroke-width: 0.5"/>
      </g>
     </g>
     <g id="line2d_118">
      <g>
       <use xlink:href="#m71a6b30dc9" x="530.02" y="160.454836" style="stroke: #000000; stroke-width: 0.5"/>
      </g>
     </g>
    </g>
    <g id="ytick_12">
     <g id="line2d_119">
      <g>
       <use xlink:href="#m211064aff7" x="27.82" y="146.781562" style="stroke: #000000; stroke-width: 0.5"/>
      </g>
     </g>
     <g id="line2d_120">
      <g>
       <use xlink:href="#m71a6b30dc9" x="530.02" y="146.781562" style="stroke: #000000; stroke-width: 0.5"/>
      </g>
     </g>
    </g>
    <g id="ytick_13">
     <g id="line2d_121">
      <g>
       <use xlink:href="#m211064aff7" x="27.82" y="119.435014" style="stroke: #000000; stroke-width: 0.5"/>
      </g>
     </g>
     <g id="line2d_122">
      <g>
       <use xlink:href="#m71a6b30dc9" x="530.02" y="119.435014" style="stroke: #000000; stroke-width: 0.5"/>
      </g>
     </g>
    </g>
    <g id="ytick_14">
     <g id="line2d_123">
      <g>
       <use xlink:href="#m211064aff7" x="27.82" y="105.76174" style="stroke: #000000; stroke-width: 0.5"/>
      </g>
     </g>
     <g id="line2d_124">
      <g>
       <use xlink:href="#m71a6b30dc9" x="530.02" y="105.76174" style="stroke: #000000; stroke-width: 0.5"/>
      </g>
     </g>
    </g>
    <g id="ytick_15">
     <g id="line2d_125">
      <g>
       <use xlink:href="#m211064aff7" x="27.82" y="92.088467" style="stroke: #000000; stroke-width: 0.5"/>
      </g>
     </g>
     <g id="line2d_126">
      <g>
       <use xlink:href="#m71a6b30dc9" x="530.02" y="92.088467" style="stroke: #000000; stroke-width: 0.5"/>
      </g>
     </g>
    </g>
    <g id="ytick_16">
     <g id="line2d_127">
      <g>
       <use xlink:href="#m211064aff7" x="27.82" y="64.741919" style="stroke: #000000; stroke-width: 0.5"/>
      </g>
     </g>
     <g id="line2d_128">
      <g>
       <use xlink:href="#m71a6b30dc9" x="530.02" y="64.741919" style="stroke: #000000; stroke-width: 0.5"/>
      </g>
     </g>
    </g>
    <g id="ytick_17">
     <g id="line2d_129">
      <g>
       <use xlink:href="#m211064aff7" x="27.82" y="51.068645" style="stroke: #000000; stroke-width: 0.5"/>
      </g>
     </g>
     <g id="line2d_130">
      <g>
       <use xlink:href="#m71a6b30dc9" x="530.02" y="51.068645" style="stroke: #000000; stroke-width: 0.5"/>
      </g>
     </g>
    </g>
    <g id="ytick_18">
     <g id="line2d_131">
      <g>
       <use xlink:href="#m211064aff7" x="27.82" y="37.395371" style="stroke: #000000; stroke-width: 0.5"/>
      </g>
     </g>
     <g id="line2d_132">
      <g>
       <use xlink:href="#m71a6b30dc9" x="530.02" y="37.395371" style="stroke: #000000; stroke-width: 0.5"/>
      </g>
     </g>
    </g>
    <g id="text_16">
     <!-- Ey (V/m) -->
     <g transform="translate(9.05625 156.115875) rotate(-90) scale(0.08 -0.08)">
      <defs>
       <path id="STIXGeneral-Regular-45" d="M 3821 1082 
L 3526 0 
L 77 0 
L 77 122 
Q 442 147 538 252 
Q 634 358 634 730 
L 634 3520 
Q 634 3878 534 3987 
Q 435 4096 77 4115 
L 77 4237 
L 3469 4237 
L 3494 3322 
L 3334 3322 
Q 3264 3750 3085 3872 
Q 2906 3994 2349 3994 
L 1510 3994 
Q 1370 3994 1328 3952 
Q 1286 3910 1286 3763 
L 1286 2355 
L 2253 2355 
Q 2656 2355 2787 2470 
Q 2918 2586 2976 2970 
L 3123 2970 
L 3123 1472 
L 2976 1472 
Q 2918 1875 2790 1984 
Q 2662 2093 2253 2093 
L 1286 2093 
L 1286 538 
Q 1286 346 1420 291 
Q 1555 237 1933 237 
L 2163 237 
Q 2848 237 3136 403 
Q 3424 570 3642 1082 
L 3821 1082 
z
" transform="scale(0.015625)"/>
       <path id="STIXGeneral-Regular-79" d="M 3040 2880 
L 3040 2784 
Q 2925 2771 2854 2700 
Q 2784 2630 2720 2458 
L 1760 -160 
Q 1510 -838 1257 -1116 
Q 1005 -1395 640 -1395 
Q 435 -1395 313 -1289 
Q 192 -1184 192 -1024 
Q 192 -902 272 -816 
Q 352 -730 467 -730 
Q 653 -730 800 -813 
Q 883 -858 966 -858 
Q 1101 -858 1286 -576 
Q 1376 -448 1459 -211 
Q 1542 26 1542 115 
Q 1542 198 1274 762 
L 429 2566 
Q 346 2752 90 2790 
L 90 2880 
L 1402 2880 
L 1402 2784 
Q 1197 2778 1117 2739 
Q 1037 2701 1037 2611 
Q 1037 2541 1120 2349 
L 1837 749 
L 2458 2515 
Q 2483 2573 2483 2630 
Q 2483 2784 2189 2784 
L 2189 2880 
L 3040 2880 
z
" transform="scale(0.015625)"/>
       <path id="STIXGeneral-Regular-56" d="M 4461 4237 
L 4461 4115 
Q 4262 4109 4134 3990 
Q 4006 3872 3872 3533 
L 2451 -70 
L 2355 -70 
L 794 3411 
Q 589 3866 467 3987 
Q 346 4109 102 4115 
L 102 4237 
L 1798 4237 
L 1798 4115 
L 1619 4102 
Q 1331 4083 1331 3904 
Q 1331 3776 1581 3219 
L 2554 1030 
L 3494 3392 
Q 3616 3699 3616 3853 
Q 3616 3898 3606 3933 
Q 3597 3968 3584 3993 
Q 3571 4019 3536 4038 
Q 3501 4058 3481 4067 
Q 3462 4077 3411 4086 
Q 3360 4096 3337 4099 
Q 3315 4102 3248 4108 
Q 3181 4115 3155 4115 
L 3155 4237 
L 4461 4237 
z
" transform="scale(0.015625)"/>
       <path id="STIXGeneral-Regular-2f" d="M 1837 4326 
L 378 -90 
L -58 -90 
L 1408 4326 
L 1837 4326 
z
" transform="scale(0.015625)"/>
      </defs>
      <use xlink:href="#STIXGeneral-Regular-45"/>
      <use xlink:href="#STIXGeneral-Regular-79" transform="translate(61.099991 0)"/>
      <use xlink:href="#STIXGeneral-Regular-20" transform="translate(111.099976 0)"/>
      <use xlink:href="#STIXGeneral-Regular-28" transform="translate(136.09996 0)"/>
      <use xlink:href="#STIXGeneral-Regular-56" transform="translate(169.399948 0)"/>
      <use xlink:href="#STIXGeneral-Regular-2f" transform="translate(241.59993 0)"/>
      <use xlink:href="#STIXGeneral-Regular-6d" transform="translate(269.399918 0)"/>
      <use xlink:href="#STIXGeneral-Regular-29" transform="translate(347.199905 0)"/>
     </g>
    </g>
    <g id="text_17">
     <!-- $\times\mathdefault{10^{−7}}\mathdefault{}$ -->
     <g transform="translate(27.82 13.1565) scale(0.08 -0.08)">
      <defs>
       <path id="Cmsy10-a3" d="M 941 184 
Q 941 234 972 275 
L 2303 1600 
L 972 2931 
Q 941 2963 941 3016 
Q 941 3063 978 3103 
Q 1016 3144 1069 3144 
Q 1113 3144 1166 3103 
L 2491 1778 
L 3809 3103 
Q 3863 3144 3903 3144 
Q 3956 3144 3993 3106 
Q 4031 3069 4031 3016 
Q 4031 2963 4000 2931 
L 2669 1600 
L 4000 275 
Q 4031 234 4031 184 
Q 4031 131 3993 93 
Q 3956 56 3903 56 
Q 3856 56 3809 103 
L 2491 1422 
L 1166 103 
Q 1119 56 1069 56 
Q 1016 56 978 97 
Q 941 138 941 184 
z
" transform="scale(0.015625)"/>
       <path id="STIXGeneral-Regular-37" d="M 2874 4134 
L 1517 -51 
L 1101 -51 
L 2368 3763 
L 992 3763 
Q 717 3763 582 3667 
Q 448 3571 243 3238 
L 128 3296 
L 512 4237 
L 2874 4237 
L 2874 4134 
z
" transform="scale(0.015625)"/>
      </defs>
      <use xlink:href="#Cmsy10-a3" transform="translate(0 0.657813)"/>
      <use xlink:href="#STIXGeneral-Regular-31" transform="translate(77.685547 0.657813)"/>
      <use xlink:href="#STIXGeneral-Regular-30" transform="translate(127.685532 0.657813)"/>
      <use xlink:href="#STIXGeneral-Regular-2212" transform="translate(179.260516 36.657813) scale(0.7)"/>
      <use xlink:href="#STIXGeneral-Regular-37" transform="translate(227.210506 36.657813) scale(0.7)"/>
     </g>
    </g>
   </g>
   <g id="line2d_133">
    <path d="M 27.82 133.108288 
L 37.055557 133.001288 
L 39.262283 132.689775 
L 41.142087 132.471136 
L 42.286316 132.568465 
L 43.512274 132.911882 
L 45.800731 133.604148 
L 46.863229 133.638771 
L 48.089188 133.432326 
L 52.829562 132.398021 
L 56.017056 132.091925 
L 59.858394 131.964974 
L 62.800695 132.064292 
L 65.906458 132.404321 
L 77.021819 133.807798 
L 80.291043 133.819215 
L 84.622764 133.680675 
L 87.156413 133.340891 
L 89.036217 132.86942 
L 90.670829 132.230883 
L 92.141979 131.424783 
L 93.449669 130.454495 
L 95.738125 128.670656 
L 96.228509 128.568748 
L 96.637162 128.67029 
L 97.045815 128.988462 
L 97.536199 129.709251 
L 98.026582 130.839188 
L 98.680427 132.983905 
L 99.579463 136.864089 
L 101.050614 143.280267 
L 101.622728 144.85915 
L 102.031381 145.454074 
L 102.358304 145.580083 
L 102.603496 145.470611 
L 102.930418 145.067084 
L 103.420802 143.98178 
L 104.156377 141.624286 
L 105.627528 136.765862 
L 106.363103 135.15192 
L 107.098678 134.067274 
L 108.569829 132.063768 
L 109.550596 130.179538 
L 110.694825 128.034058 
L 111.348669 127.263715 
L 111.920784 126.952099 
L 112.492898 126.916216 
L 113.555395 127.158417 
L 116.007313 127.83257 
L 116.661158 128.437148 
L 118.214039 130.034037 
L 118.622692 130.118761 
L 118.949615 129.992281 
L 119.358268 129.564398 
L 119.848651 128.659877 
L 120.502496 126.915084 
L 122.3823 121.506927 
L 122.872683 120.73479 
L 123.281336 120.427633 
L 123.608259 120.416384 
L 123.935181 120.618534 
L 124.343834 121.17396 
L 124.834218 122.285742 
L 125.406332 124.194822 
L 126.141907 127.583641 
L 127.040944 132.905364 
L 129.002478 144.932736 
L 129.738054 147.898207 
L 130.391898 149.601941 
L 131.209204 151.003188 
L 132.189971 152.698448 
L 133.742853 155.618406 
L 134.069775 155.751873 
L 134.314967 155.616406 
L 134.641889 155.067507 
L 135.050542 153.736728 
L 135.540926 151.202641 
L 136.194771 146.535744 
L 138.646688 127.749715 
L 139.954378 120.447688 
L 140.771684 116.864927 
L 141.180337 115.778471 
L 141.507259 115.439808 
L 141.670721 115.47949 
L 141.915912 115.822383 
L 142.242835 116.822412 
L 142.651488 118.897728 
L 143.305332 123.592247 
L 144.2861 130.610271 
L 144.694753 132.286243 
L 144.939944 132.737658 
L 145.103406 132.791913 
L 145.266867 132.649968 
L 145.512059 132.087322 
L 145.920712 130.354375 
L 146.819748 124.928759 
L 147.391862 122.243727 
L 147.718785 121.514187 
L 147.963976 121.435533 
L 148.209168 121.766645 
L 148.536091 122.802799 
L 149.026474 125.363115 
L 150.661086 134.868532 
L 151.069739 135.997042 
L 151.396662 136.445157 
L 151.723584 136.566741 
L 152.132237 136.41119 
L 153.848579 135.36767 
L 154.829347 134.955133 
L 156.218767 134.107805 
L 156.545689 134.235768 
L 156.872611 134.644301 
L 157.281264 135.609768 
L 157.771648 137.409957 
L 159.487991 144.536831 
L 159.814913 144.945328 
L 160.060105 144.897082 
L 160.305296 144.535129 
L 160.632219 143.581512 
L 161.122602 141.278792 
L 161.939908 136.019006 
L 163.165867 128.224232 
L 163.901443 124.896519 
L 164.555288 122.946402 
L 165.045671 122.075456 
L 165.454324 121.729333 
L 165.781246 121.702951 
L 166.108169 121.90016 
L 166.516822 122.453797 
L 167.007205 123.529929 
L 167.742781 125.779642 
L 169.949507 133.005978 
L 170.685082 134.542586 
L 171.175466 135.145138 
L 171.584119 135.328521 
L 171.911041 135.24131 
L 172.319694 134.829685 
L 172.810078 133.926786 
L 173.627384 131.805728 
L 174.44469 129.836194 
L 174.935073 129.15179 
L 175.343726 128.960335 
L 175.670649 129.040849 
L 176.161032 129.455779 
L 178.040836 131.738656 
L 178.61295 132.644694 
L 179.103334 133.861157 
L 179.675448 135.982625 
L 180.492754 140.094423 
L 181.473521 144.884061 
L 181.963905 146.398674 
L 182.372557 147.051085 
L 182.69948 147.213974 
L 183.026402 147.143813 
L 184.170631 146.635021 
L 184.579284 146.834088 
L 185.069667 147.384065 
L 185.805243 148.224344 
L 186.132165 148.279778 
L 186.377357 148.087233 
L 186.704279 147.453838 
L 187.112932 146.017794 
L 187.685046 142.953373 
L 189.319658 133.383237 
L 189.728311 132.217578 
L 190.055234 131.792038 
L 190.300425 131.737484 
L 190.627348 131.943793 
L 191.199462 132.724468 
L 191.771576 133.416728 
L 192.098498 133.515901 
L 192.34369 133.373279 
L 192.670613 132.837104 
L 193.079266 131.545836 
L 193.569649 129.029893 
L 194.141763 124.784449 
L 194.959069 116.690124 
L 196.593681 99.904129 
L 197.002334 97.610056 
L 197.329257 96.824605 
L 197.492718 96.824321 
L 197.656179 97.098013 
L 197.901371 98.02913 
L 198.228293 100.224599 
L 198.718677 105.363372 
L 199.454252 115.985463 
L 200.925403 137.615112 
L 201.579248 143.93451 
L 202.151362 147.39393 
L 202.641745 149.109852 
L 203.132129 150.008424 
L 203.540782 150.332605 
L 203.949435 150.376476 
L 204.358088 150.168354 
L 204.766741 149.676218 
L 205.175394 148.82722 
L 205.665777 147.214646 
L 206.237892 144.365761 
L 206.891736 139.800086 
L 208.035965 129.70059 
L 208.853271 123.224831 
L 209.343654 120.787426 
L 209.670577 120.052846 
L 209.834038 119.98794 
L 209.997499 120.133362 
L 210.242691 120.749556 
L 210.569613 122.295373 
L 211.059997 125.987751 
L 211.877303 134.400126 
L 212.776339 143.161493 
L 213.266723 146.137263 
L 213.593645 147.108395 
L 213.838837 147.275716 
L 214.002298 147.126 
L 214.24749 146.532899 
L 214.656143 144.687169 
L 215.228257 140.836067 
L 216.699408 130.330294 
L 217.271522 127.79773 
L 217.761906 126.557054 
L 218.170559 126.116548 
L 218.497481 126.101058 
L 218.824403 126.348279 
L 219.233056 126.988933 
L 219.72344 128.205905 
L 220.377285 130.53231 
L 221.276321 134.731311 
L 222.50228 140.340459 
L 223.074394 141.943214 
L 223.483047 142.516829 
L 223.80997 142.660803 
L 224.218623 142.554489 
L 225.117659 142.152983 
L 225.444582 142.299146 
L 225.771504 142.737465 
L 226.180157 143.739786 
L 226.752271 145.866159 
L 227.814769 150.027826 
L 228.141691 150.659297 
L 228.386883 150.758732 
L 228.550344 150.619998 
L 228.795536 150.080625 
L 229.122459 148.72178 
L 229.531112 146.022385 
L 230.103226 140.662439 
L 231.247454 127.153531 
L 232.473413 113.549715 
L 233.37245 105.707983 
L 234.026294 101.568676 
L 234.434947 100.002752 
L 234.680139 99.575525 
L 234.8436 99.543597 
L 235.007061 99.73555 
L 235.252253 100.479991 
L 235.579176 102.395583 
L 235.987829 106.355979 
L 236.559943 114.718743 
L 237.377249 130.734435 
L 238.521477 152.651017 
L 239.011861 158.570741 
L 239.338783 160.71317 
L 239.583975 161.294752 
L 239.747436 161.19203 
L 239.992628 160.324672 
L 240.31955 157.934638 
L 240.809934 152.182789 
L 242.853199 124.765529 
L 243.180121 123.392973 
L 243.343582 123.219204 
L 243.507043 123.389939 
L 243.752235 124.275494 
L 244.079158 126.540677 
L 244.569541 131.77675 
L 245.958961 147.912381 
L 246.285884 149.33498 
L 246.449345 149.42075 
L 246.612806 149.045862 
L 246.857998 147.573614 
L 247.18492 143.870535 
L 247.593573 136.558669 
L 248.247418 119.980958 
L 249.636838 83.063924 
L 250.045491 77.268431 
L 250.290683 75.710789 
L 250.454144 75.544985 
L 250.617605 76.09664 
L 250.862797 78.270078 
L 251.18972 83.587501 
L 251.680103 96.080546 
L 252.497409 124.274724 
L 253.478176 156.53869 
L 253.96856 166.922461 
L 254.377213 171.373646 
L 254.622405 172.128882 
L 254.704135 172.069183 
L 254.867596 171.501855 
L 255.112788 169.60001 
L 255.521441 164.030889 
L 256.175286 151.019322 
L 257.319514 127.773737 
L 257.809898 121.56533 
L 258.13682 119.367674 
L 258.382012 118.813327 
L 258.545473 118.968449 
L 258.790665 119.97332 
L 259.117587 122.686625 
L 259.607971 129.36852 
L 260.261816 141.945605 
L 262.059889 179.030249 
L 262.550272 184.656386 
L 262.877195 186.507535 
L 263.122387 186.831954 
L 263.285848 186.541446 
L 263.53104 185.369499 
L 263.857962 182.531773 
L 264.348346 176.012363 
L 265.247382 160.167214 
L 266.39161 140.86893 
L 267.290647 129.430011 
L 269.660834 103.694107 
L 270.232948 99.591684 
L 270.559871 98.419294 
L 270.805063 98.205135 
L 270.968524 98.392736 
L 271.213716 99.165304 
L 271.540638 101.053592 
L 272.031022 105.365756 
L 273.665633 121.168737 
L 274.074286 122.853878 
L 274.319478 123.205617 
L 274.482939 123.173336 
L 274.728131 122.75368 
L 275.055054 121.590985 
L 275.545437 118.901729 
L 277.752163 105.445805 
L 278.406008 103.033346 
L 278.814661 102.129461 
L 279.059853 101.906373 
L 279.223314 101.927448 
L 279.468506 102.265895 
L 279.713698 103.039579 
L 280.04062 104.878151 
L 280.449273 108.691139 
L 280.939657 115.725001 
L 281.593501 129.073319 
L 283.555036 173.348307 
L 283.963689 177.447346 
L 284.20888 178.44738 
L 284.372342 178.499168 
L 284.535803 178.073942 
L 284.780995 176.598104 
L 285.189648 172.235488 
L 285.925223 160.880783 
L 286.742529 148.902518 
L 287.232912 144.444709 
L 287.559835 142.916976 
L 287.805027 142.474929 
L 287.968488 142.46708 
L 288.21368 142.796621 
L 288.622333 143.906579 
L 289.276177 145.663669 
L 289.521369 145.929151 
L 289.766561 145.868956 
L 290.011753 145.465748 
L 290.338675 144.43696 
L 290.99252 141.328133 
L 291.728095 138.1218 
L 292.136748 137.266265 
L 292.38194 137.147574 
L 292.627132 137.29203 
L 293.035785 137.927131 
L 293.607899 138.845824 
L 293.853091 138.933483 
L 294.098283 138.690422 
L 294.343474 138.044921 
L 294.670397 136.495511 
L 295.16078 132.756387 
L 296.059817 123.357244 
L 296.795392 116.532671 
L 297.285776 113.75324 
L 297.612698 112.816076 
L 297.85789 112.547782 
L 298.103082 112.588026 
L 298.430004 112.998917 
L 299.002118 114.247369 
L 299.982885 116.973666 
L 300.473269 119.086807 
L 300.963653 122.471031 
L 301.454036 127.628947 
L 302.107881 137.298989 
L 303.579032 160.367003 
L 303.987685 163.239428 
L 304.232876 163.634651 
L 304.396338 163.298704 
L 304.641529 161.879076 
L 304.968452 158.31908 
L 305.458835 149.81516 
L 306.194411 132.332062 
L 307.42037 103.530324 
L 307.910753 96.285129 
L 308.319406 93.202776 
L 308.564598 92.77626 
L 308.728059 93.10266 
L 308.973251 94.507537 
L 309.300173 98.042195 
L 309.790557 106.574482 
L 310.526132 124.650418 
L 311.833822 157.346092 
L 312.324205 164.384046 
L 312.651128 166.526319 
L 312.814589 166.793603 
L 312.97805 166.53408 
L 313.223242 165.20572 
L 313.550164 161.872712 
L 314.122279 152.924936 
L 315.593429 128.277143 
L 316.165544 122.795505 
L 316.655927 120.003303 
L 317.391502 117.313918 
L 318.127078 114.374587 
L 319.189576 110.009957 
L 319.434767 109.650532 
L 319.598229 109.675856 
L 319.76169 109.947988 
L 320.006882 110.870312 
L 320.333804 113.136058 
L 320.742457 117.652263 
L 321.314571 126.686027 
L 323.766489 169.536125 
L 324.338603 174.892017 
L 324.747256 177.135562 
L 325.074179 177.849834 
L 325.23764 177.80325 
L 325.401101 177.463062 
L 325.646293 176.361082 
L 325.973215 173.697048 
L 326.381868 168.314458 
L 326.872252 158.851181 
L 327.607827 139.783788 
L 328.915517 105.054739 
L 329.4059 96.929637 
L 329.814553 93.380767 
L 330.059745 92.66988 
L 330.223206 92.746935 
L 330.468398 93.604281 
L 330.79532 95.900779 
L 331.367434 101.941837 
L 332.593393 115.407339 
L 333.328969 120.832318 
L 335.780887 135.045992 
L 336.434731 138.011747 
L 336.843384 139.103373 
L 337.170307 139.521335 
L 337.497229 139.582512 
L 337.824152 139.373591 
L 338.559727 138.490696 
L 339.05011 138.051643 
L 339.377033 137.979311 
L 339.703955 138.138922 
L 340.030878 138.565812 
L 340.439531 139.53356 
L 340.848184 141.080904 
L 341.338567 143.902997 
L 341.828951 148.021866 
L 342.482796 155.70225 
L 344.199138 177.799119 
L 344.44433 178.859817 
L 344.607791 178.962828 
L 344.771252 178.528909 
L 345.016444 176.795393 
L 345.343366 172.360817 
L 345.752019 163.436563 
L 346.324134 145.601799 
L 348.122207 84.898332 
L 348.53086 78.312908 
L 348.857782 76.141817 
L 349.021243 76.081787 
L 349.184704 76.672187 
L 349.429896 78.684928 
L 349.838549 84.561704 
L 350.574125 99.738224 
L 351.39143 115.758298 
L 351.881814 121.479495 
L 352.208736 122.980694 
L 352.372198 122.996764 
L 352.535659 122.530767 
L 352.780851 120.973412 
L 353.189504 116.393284 
L 353.925079 104.495211 
L 354.578924 94.840023 
L 354.905846 92.131648 
L 355.151038 91.535971 
L 355.314499 91.938233 
L 355.559691 93.854298 
L 355.886613 98.993978 
L 356.295266 109.567321 
L 356.86738 131.051321 
L 358.747184 208.055053 
L 359.155837 214.677963 
L 359.401029 215.732244 
L 359.48276 215.586497 
L 359.646221 214.55851 
L 359.891413 211.238618 
L 360.300065 201.449661 
L 360.87218 181.176468 
L 362.2616 129.614519 
L 362.670253 121.280078 
L 362.997175 118.214301 
L 363.160636 117.926635 
L 363.324098 118.453892 
L 363.569289 120.698308 
L 363.896212 126.116059 
L 364.468326 140.463249 
L 365.694285 173.237084 
L 366.102938 178.936005 
L 366.34813 180.227576 
L 366.42986 180.274953 
L 366.593321 179.78231 
L 366.838513 177.576461 
L 367.165436 172.003296 
L 367.655819 158.767119 
L 368.473125 128.906868 
L 369.453892 94.642454 
L 370.026006 81.544572 
L 370.434659 76.282753 
L 370.761582 74.41532 
L 370.925043 74.170565 
L 371.088504 74.322934 
L 371.333696 75.176758 
L 371.742349 77.773825 
L 372.968308 86.347298 
L 373.29523 87.307071 
L 373.540422 87.500603 
L 373.703883 87.391712 
L 373.949075 86.916028 
L 374.357728 85.526657 
L 375.093303 82.941373 
L 375.338495 82.671288 
L 375.501956 82.805443 
L 375.747148 83.602299 
L 375.99234 85.251912 
L 376.319262 89.009349 
L 376.727915 96.533491 
L 377.218299 109.94798 
L 377.872144 134.609481 
L 379.915409 219.188121 
L 380.324062 227.276688 
L 380.569253 229.55845 
L 380.732715 229.949835 
L 380.896176 229.428162 
L 381.141368 226.953584 
L 381.46829 220.639352 
L 381.958673 205.520425 
L 382.694249 174.180563 
L 384.083669 113.841114 
L 384.655783 97.997314 
L 385.064436 91.721964 
L 385.309628 90.084806 
L 385.473089 89.868641 
L 385.63655 90.329748 
L 385.881742 92.223304 
L 386.208664 96.766254 
L 386.699048 106.975456 
L 388.497121 148.573289 
L 388.905774 152.538905 
L 389.150966 153.360204 
L 389.232697 153.375723 
L 389.396158 153.032828 
L 389.64135 151.640193 
L 390.050003 147.336557 
L 390.703847 137.308395 
L 391.684614 122.759869 
L 392.174998 118.225501 
L 392.583651 116.05597 
L 392.992304 114.94059 
L 393.80961 113.320094 
L 394.136532 112.018238 
L 394.545185 109.446556 
L 395.117299 104.240674 
L 396.098067 95.185236 
L 396.424989 93.856929 
L 396.58845 93.769902 
L 396.751911 94.129847 
L 396.997103 95.585341 
L 397.324026 99.350038 
L 397.732679 107.020592 
L 398.304793 122.654486 
L 399.449021 162.502652 
L 400.348058 189.706944 
L 400.920172 200.835917 
L 401.328825 205.197359 
L 401.574017 206.358775 
L 401.737478 206.54043 
L 401.900939 206.260882 
L 402.146131 205.006214 
L 402.473053 201.8523 
L 402.963437 194.20305 
L 403.535551 181.376354 
L 404.352857 157.335508 
L 406.314391 96.563508 
L 406.804775 87.875724 
L 407.213428 84.149982 
L 407.45862 83.481435 
L 407.54035 83.509062 
L 407.703811 83.918844 
L 407.949003 85.346665 
L 408.357656 89.475306 
L 410.073999 109.940666 
L 410.400921 111.225337 
L 410.646113 111.422392 
L 410.809574 111.22817 
L 411.054766 110.534789 
L 411.545149 108.267643 
L 412.198994 105.469018 
L 412.444186 105.041111 
L 412.607647 105.038435 
L 412.771108 105.284941 
L 413.0163 106.140184 
L 413.343222 108.164442 
L 413.833606 112.776088 
L 415.631679 131.521971 
L 416.203793 134.554479 
L 417.838405 141.404567 
L 418.410519 145.85163 
L 419.309556 154.92358 
L 421.025898 172.223674 
L 422.251857 182.497357 
L 422.742241 185.025168 
L 422.987433 185.517275 
L 423.150894 185.464314 
L 423.314355 185.059378 
L 423.559547 183.713179 
L 423.886469 180.393792 
L 424.295122 173.653962 
L 424.867237 159.770161 
L 426.74704 108.664581 
L 427.155693 103.90657 
L 427.400885 102.715328 
L 427.564346 102.567094 
L 427.727807 102.882271 
L 427.972999 104.088008 
L 428.463383 108.179839 
L 429.198958 114.214143 
L 429.52588 115.344461 
L 429.689342 115.37967 
L 429.852803 115.041959 
L 430.097995 113.851821 
L 430.506648 110.291349 
L 432.059529 94.453749 
L 432.304721 93.93105 
L 432.468182 94.056892 
L 432.713374 94.939303 
L 433.040296 97.273287 
L 433.61241 103.509908 
L 434.593177 114.206697 
L 435.00183 116.630696 
L 435.328753 117.388866 
L 435.492214 117.391952 
L 435.737406 116.982476 
L 436.064328 115.812419 
L 436.718173 112.307916 
L 437.61721 107.730186 
L 438.107593 106.253402 
L 438.434515 105.863811 
L 438.597977 105.893037 
L 438.843168 106.280704 
L 439.08836 107.171131 
L 439.415283 109.356698 
L 439.823936 114.178524 
L 440.232589 121.956713 
L 440.722972 135.893492 
L 441.376817 162.261178 
L 443.256621 244.885226 
L 443.583543 250.647627 
L 443.828735 251.945728 
L 443.910465 251.77671 
L 444.073927 250.529208 
L 444.319118 246.417709 
L 444.646041 236.999043 
L 445.136424 215.813551 
L 446.117192 160.377522 
L 447.016228 113.922199 
L 447.670073 91.082687 
L 448.160456 81.000223 
L 448.569109 76.858063 
L 448.814301 76.010643 
L 448.977762 76.052559 
L 449.141224 76.536415 
L 449.386415 78.009137 
L 449.795068 82.146794 
L 450.448913 91.851711 
L 452.083525 117.747579 
L 452.655639 122.983419 
L 453.146023 125.669983 
L 454.045059 130.015338 
L 454.453712 133.739921 
L 454.944096 140.921416 
L 455.51621 153.055751 
L 456.742169 180.823806 
L 457.069091 184.42414 
L 457.232553 185.076897 
L 457.314283 185.082517 
L 457.477744 184.416146 
L 457.722936 181.653007 
L 458.049859 174.630065 
L 458.540242 157.513036 
L 459.357548 117.830603 
L 460.256585 76.580527 
L 460.746968 62.933509 
L 461.073891 58.721669 
L 461.237352 58.141634 
L 461.319082 58.226042 
L 461.482544 59.119016 
L 461.727735 62.159422 
L 462.136388 71.096085 
L 462.790233 91.866592 
L 463.934462 128.614561 
L 464.506576 140.224056 
L 464.915229 144.798597 
L 465.242151 146.383621 
L 465.405612 146.57351 
L 465.569073 146.418232 
L 465.814265 145.643919 
L 466.222918 143.344251 
L 467.285416 136.845612 
L 467.612338 136.139206 
L 467.7758 136.178996 
L 467.939261 136.507659 
L 468.184453 137.565484 
L 468.511375 140.030406 
L 469.001758 145.735697 
L 470.55464 166.2795 
L 470.799832 167.281516 
L 470.881562 167.347799 
L 471.045023 167.039707 
L 471.290215 165.401228 
L 471.617138 160.897425 
L 472.025791 151.570195 
L 472.597905 132.753116 
L 474.069055 80.405273 
L 474.477708 73.145865 
L 474.7229 71.484123 
L 474.804631 71.40926 
L 474.968092 71.98771 
L 475.213284 74.656994 
L 475.540206 81.39572 
L 476.03059 97.203721 
L 477.093088 142.245945 
L 477.828663 168.669395 
L 478.319046 179.659662 
L 478.645969 183.534594 
L 478.891161 184.667881 
L 478.972891 184.726916 
L 479.136352 184.39778 
L 479.381544 182.880445 
L 479.790197 178.108735 
L 480.444042 166.90139 
L 481.58827 147.468712 
L 482.078654 142.542224 
L 482.405576 140.941837 
L 482.650768 140.669305 
L 482.814229 140.921101 
L 483.059421 141.912734 
L 483.468074 144.99013 
L 484.121919 152.246954 
L 484.939225 160.734855 
L 485.266147 162.501057 
L 485.511339 162.880754 
L 485.6748 162.634799 
L 485.919992 161.491734 
L 486.246914 158.561791 
L 486.737298 151.635953 
L 488.290179 127.337107 
L 488.617102 125.381025 
L 488.780563 125.054308 
L 488.944024 125.155794 
L 489.189216 126.056938 
L 489.516138 128.428739 
L 490.905558 140.721101 
L 491.069019 140.998062 
L 491.15075 140.966378 
L 491.314211 140.541813 
L 491.559403 138.965306 
L 491.886325 135.099481 
L 492.376709 125.901044 
L 493.194015 105.04345 
L 494.174782 81.421376 
L 494.746896 72.772007 
L 495.155549 69.663954 
L 495.400741 69.03634 
L 495.564202 69.113092 
L 495.727663 69.568486 
L 495.972855 70.922551 
L 496.381508 74.803961 
L 496.953622 83.099754 
L 497.770928 99.018143 
L 499.569001 135.640845 
L 500.222846 144.222758 
L 500.79496 148.852536 
L 501.285344 151.229096 
L 503.083417 158.379528 
L 503.900723 162.167638 
L 504.227645 162.877516 
L 504.391107 162.924794 
L 504.554568 162.72901 
L 504.79976 161.933216 
L 505.126682 159.873833 
L 505.535335 155.725116 
L 506.18918 146.339043 
L 507.251678 131.106892 
L 507.660331 128.034575 
L 507.905522 127.405334 
L 507.987253 127.415413 
L 508.150714 127.772019 
L 508.395906 129.14126 
L 508.722828 132.431506 
L 509.213212 139.894997 
L 510.684363 164.352105 
L 511.011285 166.709059 
L 511.256477 167.2172 
L 511.419938 166.9297 
L 511.66513 165.570119 
L 511.992052 162.143297 
L 512.482436 154.239578 
L 514.117048 124.797286 
L 514.525701 121.132683 
L 514.852623 119.676399 
L 515.097815 119.320001 
L 515.261276 119.359623 
L 515.506468 119.715065 
L 516.405504 121.443108 
L 516.568965 121.446628 
L 516.814157 121.131322 
L 517.14108 120.086018 
L 517.631463 117.397257 
L 518.61223 111.527398 
L 518.939153 110.697927 
L 519.102614 110.65075 
L 519.266075 110.871363 
L 519.511267 111.714083 
L 519.838189 113.749107 
L 520.328573 118.366997 
L 521.881454 134.477433 
L 522.371838 137.297455 
L 522.862221 138.936728 
L 523.352605 139.870619 
L 524.00645 140.635099 
L 524.415103 140.802504 
L 524.660295 140.664205 
L 524.905486 140.250169 
L 525.232409 139.133722 
L 525.641062 136.65013 
L 526.131445 132.081918 
L 527.439135 118.779837 
L 527.684327 117.967594 
L 527.847788 118.000576 
L 528.011249 118.542515 
L 528.256441 120.363641 
L 528.583363 124.684509 
L 529.073747 134.720308 
L 530.054514 159.91421 
L 530.054514 159.91421 
" clip-path="url(#p53d1ea033a)" style="fill: none; stroke: #0c5da5; stroke-linecap: square"/>
   </g>
   <g id="patch_3">
    <path d="M 27.82 265.6365 
L 27.82 16.1565 
" style="fill: none; stroke: #000000; stroke-width: 0.5; stroke-linejoin: miter; stroke-linecap: square"/>
   </g>
   <g id="patch_4">
    <path d="M 530.02 265.6365 
L 530.02 16.1565 
" style="fill: none; stroke: #000000; stroke-width: 0.5; stroke-linejoin: miter; stroke-linecap: square"/>
   </g>
   <g id="patch_5">
    <path d="M 27.82 265.6365 
L 530.02 265.6365 
" style="fill: none; stroke: #000000; stroke-width: 0.5; stroke-linejoin: miter; stroke-linecap: square"/>
   </g>
   <g id="patch_6">
    <path d="M 27.82 16.1565 
L 530.02 16.1565 
" style="fill: none; stroke: #000000; stroke-width: 0.5; stroke-linejoin: miter; stroke-linecap: square"/>
   </g>
   <g id="text_18">
    <!-- P3 electric field - low_capacitance -->
    <g transform="translate(212.53375 10.1565) scale(0.096 -0.096)">
     <defs>
      <path id="STIXGeneral-Regular-50" d="M 102 4237 
L 1760 4237 
Q 2669 4237 3149 3834 
Q 3469 3565 3469 3072 
Q 3469 2560 3104 2234 
Q 2835 1990 2553 1916 
Q 2272 1843 1734 1843 
Q 1549 1843 1293 1862 
L 1293 717 
Q 1293 352 1398 246 
Q 1504 141 1894 122 
L 1894 0 
L 102 0 
L 102 122 
Q 474 147 557 256 
Q 640 365 640 781 
L 640 3526 
Q 640 3885 547 3987 
Q 454 4090 102 4115 
L 102 4237 
z
M 1293 3770 
L 1293 2118 
Q 1510 2099 1683 2099 
Q 2202 2099 2486 2352 
Q 2771 2605 2771 3040 
Q 2771 3558 2476 3779 
Q 2182 4000 1517 4000 
Q 1382 4000 1337 3952 
Q 1293 3904 1293 3770 
z
" transform="scale(0.015625)"/>
      <path id="STIXGeneral-Regular-6c" d="M 1645 0 
L 134 0 
L 134 96 
Q 435 122 531 221 
Q 627 320 627 589 
L 627 3590 
Q 627 3821 569 3910 
Q 512 4000 358 4000 
Q 224 4000 122 3987 
L 122 4090 
Q 730 4237 1133 4371 
L 1165 4346 
L 1165 557 
Q 1165 288 1254 201 
Q 1344 115 1645 96 
L 1645 0 
z
" transform="scale(0.015625)"/>
      <path id="STIXGeneral-Regular-63" d="M 2547 998 
L 2637 941 
Q 2362 403 2112 205 
Q 1786 -64 1376 -64 
Q 845 -64 502 336 
Q 160 736 160 1357 
Q 160 2170 698 2618 
Q 1094 2944 1562 2944 
Q 1965 2944 2256 2749 
Q 2547 2554 2547 2285 
Q 2547 2176 2457 2096 
Q 2368 2016 2246 2016 
Q 2022 2016 1939 2310 
L 1901 2451 
Q 1850 2630 1773 2694 
Q 1696 2758 1523 2758 
Q 1133 2758 893 2451 
Q 653 2144 653 1645 
Q 653 1094 928 745 
Q 1203 397 1645 397 
Q 1920 397 2118 528 
Q 2317 659 2547 998 
z
" transform="scale(0.015625)"/>
      <path id="STIXGeneral-Regular-74" d="M 1702 493 
L 1786 422 
Q 1478 -64 1011 -64 
Q 448 -64 448 749 
L 448 2675 
L 109 2675 
Q 83 2694 83 2720 
Q 83 2771 192 2842 
Q 435 2982 813 3526 
Q 826 3546 874 3606 
Q 922 3667 941 3706 
Q 986 3706 986 3622 
L 986 2880 
L 1632 2880 
L 1632 2675 
L 986 2675 
L 986 845 
Q 986 538 1062 403 
Q 1139 269 1318 269 
Q 1510 269 1702 493 
z
" transform="scale(0.015625)"/>
      <path id="STIXGeneral-Regular-72" d="M 1024 2931 
L 1024 2342 
Q 1267 2688 1430 2816 
Q 1594 2944 1792 2944 
Q 1958 2944 2051 2854 
Q 2144 2765 2144 2605 
Q 2144 2470 2077 2393 
Q 2010 2317 1894 2317 
Q 1773 2317 1638 2445 
Q 1536 2541 1472 2541 
Q 1338 2541 1181 2355 
Q 1024 2170 1024 2016 
L 1024 576 
Q 1024 301 1133 205 
Q 1242 109 1568 96 
L 1568 0 
L 32 0 
L 32 96 
Q 339 154 412 224 
Q 486 294 486 538 
L 486 2138 
Q 486 2349 438 2435 
Q 390 2522 269 2522 
Q 166 2522 45 2496 
L 45 2598 
Q 448 2726 992 2944 
L 1024 2931 
z
" transform="scale(0.015625)"/>
      <path id="STIXGeneral-Regular-66" d="M 134 2880 
L 659 2880 
Q 666 3264 710 3478 
Q 755 3693 883 3910 
Q 1152 4371 1786 4371 
Q 2074 4371 2262 4259 
Q 2451 4147 2451 3974 
Q 2451 3866 2374 3789 
Q 2298 3712 2182 3712 
Q 2029 3712 1894 3942 
Q 1741 4192 1555 4192 
Q 1197 4192 1197 3622 
L 1197 2880 
L 1978 2880 
L 1978 2675 
L 1197 2675 
L 1197 666 
Q 1197 307 1299 208 
Q 1402 109 1792 96 
L 1792 0 
L 128 0 
L 128 96 
Q 474 115 566 214 
Q 659 314 659 666 
L 659 2675 
L 134 2675 
L 134 2880 
z
" transform="scale(0.015625)"/>
      <path id="STIXGeneral-Regular-64" d="M 3142 269 
L 2202 -64 
L 2176 -45 
L 2176 365 
Q 1869 -64 1357 -64 
Q 826 -64 499 317 
Q 173 698 173 1312 
Q 173 1990 563 2467 
Q 954 2944 1504 2944 
Q 1850 2944 2176 2669 
L 2176 3667 
Q 2176 3866 2118 3930 
Q 2061 3994 1882 3994 
Q 1792 3994 1741 3987 
L 1741 4090 
Q 2323 4243 2682 4371 
L 2714 4358 
L 2714 730 
Q 2714 506 2768 435 
Q 2822 365 2995 365 
Q 3034 365 3142 371 
L 3142 269 
z
M 2176 653 
L 2176 2125 
Q 2176 2381 1981 2573 
Q 1786 2765 1523 2765 
Q 1158 2765 940 2438 
Q 723 2112 723 1568 
Q 723 979 963 624 
Q 1203 269 1606 269 
Q 1907 269 2080 474 
Q 2176 582 2176 653 
z
" transform="scale(0.015625)"/>
      <path id="STIXGeneral-Regular-2d" d="M 1824 1242 
L 250 1242 
L 250 1645 
L 1824 1645 
L 1824 1242 
z
" transform="scale(0.015625)"/>
      <path id="STIXGeneral-Regular-6f" d="M 3008 1478 
Q 3008 806 2608 371 
Q 2208 -64 1568 -64 
Q 979 -64 582 368 
Q 186 800 186 1459 
Q 186 2125 582 2534 
Q 979 2944 1626 2944 
Q 2221 2944 2614 2537 
Q 3008 2131 3008 1478 
z
M 2432 1306 
Q 2432 2035 2112 2445 
Q 1856 2765 1504 2765 
Q 1171 2765 966 2493 
Q 762 2221 762 1747 
Q 762 928 1101 435 
Q 1318 115 1677 115 
Q 2029 115 2230 432 
Q 2432 749 2432 1306 
z
" transform="scale(0.015625)"/>
      <path id="STIXGeneral-Regular-77" d="M 4442 2880 
L 4442 2784 
Q 4346 2752 4301 2691 
Q 4256 2630 4179 2438 
L 3296 224 
Q 3168 -90 3117 -90 
Q 3085 -90 3062 -48 
Q 3040 -6 2963 186 
L 2381 1696 
L 1664 160 
Q 1549 -90 1504 -90 
Q 1446 -90 1338 192 
L 474 2381 
Q 378 2630 314 2700 
Q 250 2771 134 2784 
L 134 2880 
L 1286 2880 
L 1286 2784 
Q 1120 2765 1056 2720 
Q 992 2675 992 2573 
Q 992 2477 1030 2381 
L 1664 710 
L 2246 1984 
L 2118 2342 
Q 2029 2598 1942 2681 
Q 1856 2765 1677 2784 
L 1677 2880 
L 2976 2880 
L 2976 2784 
Q 2752 2752 2678 2707 
Q 2605 2662 2605 2560 
Q 2605 2458 2714 2176 
L 3251 742 
L 3827 2163 
Q 3936 2432 3936 2592 
Q 3936 2669 3875 2710 
Q 3814 2752 3654 2784 
L 3654 2880 
L 4442 2880 
z
" transform="scale(0.015625)"/>
      <path id="STIXGeneral-Regular-5f" d="M 3200 -800 
L 0 -800 
L 0 -480 
L 3200 -480 
L 3200 -800 
z
" transform="scale(0.015625)"/>
      <path id="STIXGeneral-Regular-61" d="M 2829 422 
L 2829 243 
Q 2586 -64 2253 -64 
Q 1888 -64 1843 403 
L 1837 403 
Q 1427 -64 909 -64 
Q 608 -64 422 112 
Q 237 288 237 602 
Q 237 1050 685 1350 
Q 992 1555 1837 1869 
L 1837 2214 
Q 1837 2502 1699 2646 
Q 1562 2790 1338 2790 
Q 1146 2790 1018 2697 
Q 890 2605 890 2477 
Q 890 2419 909 2348 
Q 928 2278 928 2208 
Q 928 2112 841 2029 
Q 755 1946 634 1946 
Q 525 1946 441 2029 
Q 358 2112 358 2240 
Q 358 2547 685 2752 
Q 986 2944 1421 2944 
Q 1939 2944 2176 2656 
Q 2291 2522 2323 2384 
Q 2355 2246 2355 1946 
L 2355 723 
Q 2355 301 2554 301 
Q 2682 301 2829 422 
z
M 1837 813 
L 1837 1715 
Q 1248 1510 1018 1293 
Q 800 1094 800 800 
Q 800 557 921 432 
Q 1043 307 1242 307 
Q 1453 307 1613 410 
Q 1747 506 1792 589 
Q 1837 672 1837 813 
z
" transform="scale(0.015625)"/>
      <path id="STIXGeneral-Regular-70" d="M 1018 2931 
L 1018 2438 
Q 1421 2944 1939 2944 
Q 2406 2944 2707 2560 
Q 3008 2176 3008 1581 
Q 3008 883 2621 409 
Q 2234 -64 1664 -64 
Q 1466 -64 1328 -6 
Q 1190 51 1018 211 
L 1018 -794 
Q 1018 -1094 1120 -1180 
Q 1222 -1267 1581 -1274 
L 1581 -1389 
L 32 -1389 
L 32 -1280 
Q 314 -1254 397 -1171 
Q 480 -1088 480 -838 
L 480 2157 
Q 480 2381 429 2451 
Q 378 2522 218 2522 
Q 115 2522 58 2515 
L 58 2618 
Q 506 2752 979 2944 
L 1018 2931 
z
M 1018 2138 
L 1018 563 
Q 1018 422 1238 281 
Q 1459 141 1683 141 
Q 2029 141 2243 467 
Q 2458 794 2458 1325 
Q 2458 1888 2243 2224 
Q 2029 2560 1670 2560 
Q 1446 2560 1232 2419 
Q 1018 2278 1018 2138 
z
" transform="scale(0.015625)"/>
     </defs>
     <use xlink:href="#STIXGeneral-Regular-50"/>
     <use xlink:href="#STIXGeneral-Regular-33" transform="translate(55.699997 0)"/>
     <use xlink:href="#STIXGeneral-Regular-20" transform="translate(105.699982 0)"/>
     <use xlink:href="#STIXGeneral-Regular-65" transform="translate(130.699966 0)"/>
     <use xlink:href="#STIXGeneral-Regular-6c" transform="translate(175.09996 0)"/>
     <use xlink:href="#STIXGeneral-Regular-65" transform="translate(202.899948 0)"/>
     <use xlink:href="#STIXGeneral-Regular-63" transform="translate(247.299942 0)"/>
     <use xlink:href="#STIXGeneral-Regular-74" transform="translate(291.699936 0)"/>
     <use xlink:href="#STIXGeneral-Regular-72" transform="translate(319.499924 0)"/>
     <use xlink:href="#STIXGeneral-Regular-69" transform="translate(352.799911 0)"/>
     <use xlink:href="#STIXGeneral-Regular-63" transform="translate(380.599899 0)"/>
     <use xlink:href="#STIXGeneral-Regular-20" transform="translate(424.999893 0)"/>
     <use xlink:href="#STIXGeneral-Regular-66" transform="translate(449.999878 0)"/>
     <use xlink:href="#STIXGeneral-Regular-69" transform="translate(483.299866 0)"/>
     <use xlink:href="#STIXGeneral-Regular-65" transform="translate(511.099854 0)"/>
     <use xlink:href="#STIXGeneral-Regular-6c" transform="translate(555.499847 0)"/>
     <use xlink:href="#STIXGeneral-Regular-64" transform="translate(583.299835 0)"/>
     <use xlink:href="#STIXGeneral-Regular-20" transform="translate(633.29982 0)"/>
     <use xlink:href="#STIXGeneral-Regular-2d" transform="translate(658.299805 0)"/>
     <use xlink:href="#STIXGeneral-Regular-20" transform="translate(691.599792 0)"/>
     <use xlink:href="#STIXGeneral-Regular-6c" transform="translate(716.599777 0)"/>
     <use xlink:href="#STIXGeneral-Regular-6f" transform="translate(744.399765 0)"/>
     <use xlink:href="#STIXGeneral-Regular-77" transform="translate(794.39975 0)"/>
     <use xlink:href="#STIXGeneral-Regular-5f" transform="translate(866.599731 0)"/>
     <use xlink:href="#STIXGeneral-Regular-63" transform="translate(916.599716 0)"/>
     <use xlink:href="#STIXGeneral-Regular-61" transform="translate(960.99971 0)"/>
     <use xlink:href="#STIXGeneral-Regular-70" transform="translate(1005.399704 0)"/>
     <use xlink:href="#STIXGeneral-Regular-61" transform="translate(1055.399689 0)"/>
     <use xlink:href="#STIXGeneral-Regular-63" transform="translate(1099.799683 0)"/>
     <use xlink:href="#STIXGeneral-Regular-69" transform="translate(1144.199677 0)"/>
     <use xlink:href="#STIXGeneral-Regular-74" transform="translate(1171.999664 0)"/>
     <use xlink:href="#STIXGeneral-Regular-61" transform="translate(1199.799652 0)"/>
     <use xlink:href="#STIXGeneral-Regular-6e" transform="translate(1244.199646 0)"/>
     <use xlink:href="#STIXGeneral-Regular-63" transform="translate(1294.199631 0)"/>
     <use xlink:href="#STIXGeneral-Regular-65" transform="translate(1338.599625 0)"/>
    </g>
   </g>
   <g id="legend_1">
    <g id="patch_7">
     <path d="M 445.505 33.89275 
L 524.42 33.89275 
Q 526.02 33.89275 526.02 32.29275 
L 526.02 21.7565 
Q 526.02 20.1565 524.42 20.1565 
L 445.505 20.1565 
Q 443.905 20.1565 443.905 21.7565 
L 443.905 32.29275 
Q 443.905 33.89275 445.505 33.89275 
z
" style="fill: #ffffff; opacity: 0.95; stroke: #cccccc; stroke-linejoin: miter"/>
    </g>
    <g id="line2d_134">
     <path d="M 447.105 26.1565 
L 455.105 26.1565 
L 463.105 26.1565 
" style="fill: none; stroke: #0c5da5; stroke-linecap: square"/>
    </g>
    <g id="text_19">
     <!-- low_capacitance -->
     <g transform="translate(469.505 28.9565) scale(0.08 -0.08)">
      <use xlink:href="#STIXGeneral-Regular-6c"/>
      <use xlink:href="#STIXGeneral-Regular-6f" transform="translate(27.799988 0)"/>
      <use xlink:href="#STIXGeneral-Regular-77" transform="translate(77.799973 0)"/>
      <use xlink:href="#STIXGeneral-Regular-5f" transform="translate(149.999954 0)"/>
      <use xlink:href="#STIXGeneral-Regular-63" transform="translate(199.999939 0)"/>
      <use xlink:href="#STIXGeneral-Regular-61" transform="translate(244.399933 0)"/>
      <use xlink:href="#STIXGeneral-Regular-70" transform="translate(288.799927 0)"/>
      <use xlink:href="#STIXGeneral-Regular-61" transform="translate(338.799911 0)"/>
      <use xlink:href="#STIXGeneral-Regular-63" transform="translate(383.199905 0)"/>
      <use xlink:href="#STIXGeneral-Regular-69" transform="translate(427.599899 0)"/>
      <use xlink:href="#STIXGeneral-Regular-74" transform="translate(455.399887 0)"/>
      <use xlink:href="#STIXGeneral-Regular-61" transform="translate(483.199875 0)"/>
      <use xlink:href="#STIXGeneral-Regular-6e" transform="translate(527.599869 0)"/>
      <use xlink:href="#STIXGeneral-Regular-63" transform="translate(577.599854 0)"/>
      <use xlink:href="#STIXGeneral-Regular-65" transform="translate(621.999847 0)"/>
     </g>
    </g>
   </g>
  </g>
 </g>
 <defs>
  <clipPath id="p53d1ea033a">
   <rect x="27.82" y="16.1565" width="502.2" height="249.48"/>
  </clipPath>
 </defs>
</svg>
